<?xml version="1.0" encoding="UTF-8"?>
<!DOCTYPE svg PUBLIC "-//W3C//DTD SVG 1.1//EN" "http://www.w3.org/Graphics/SVG/1.1/DTD/svg11.dtd">
<svg xmlns="http://www.w3.org/2000/svg" version="1.1" width="1024px" height="1024px" style="shape-rendering:geometricPrecision; text-rendering:geometricPrecision; image-rendering:optimizeQuality; fill-rule:evenodd; clip-rule:evenodd" xmlns:xlink="http://www.w3.org/1999/xlink">
<g><path style="opacity:1" fill="#fefefe" d="M -0.5,-0.5 C 340.833,-0.5 682.167,-0.5 1023.5,-0.5C 1023.5,340.833 1023.5,682.167 1023.5,1023.5C 682.167,1023.5 340.833,1023.5 -0.5,1023.5C -0.5,682.167 -0.5,340.833 -0.5,-0.5 Z"/></g>
<g><path style="opacity:1" fill="#0f3c6a" d="M 471.5,249.5 C 471.217,250.289 470.717,250.956 470,251.5C 469.667,275.167 469.333,298.833 469,322.5C 468.5,323 468,323.5 467.5,324C 426.665,324.831 385.998,324.665 345.5,323.5C 385.835,323.667 426.168,323.5 466.5,323C 467.328,299.573 467.828,276.073 468,252.5C 468.422,250.574 469.589,249.574 471.5,249.5 Z"/></g>
<g><path style="opacity:1" fill="#0f3f6b" d="M 472.5,248.5 C 498.835,248.333 525.169,248.5 551.5,249C 553,249.833 554.167,251 555,252.5C 555.5,301.166 555.667,349.832 555.5,398.5C 555.565,398.938 555.399,399.272 555,399.5C 554.667,398.833 554.333,398.167 554,397.5C 553.829,348.792 553.329,300.126 552.5,251.5C 551.975,250.808 551.308,250.308 550.5,250C 524.33,249.832 498.33,249.332 472.5,248.5 Z"/></g>
<g><path style="opacity:1" fill="#28577e" d="M 472.5,248.5 C 498.33,249.332 524.33,249.832 550.5,250C 551.308,250.308 551.975,250.808 552.5,251.5C 553.329,300.126 553.829,348.792 554,397.5C 554.333,398.167 554.667,398.833 555,399.5C 555.399,399.272 555.565,398.938 555.5,398.5C 556.167,398.5 556.5,398.833 556.5,399.5C 582.039,400.175 607.706,400.842 633.5,401.5C 634.192,402.025 634.692,402.692 635,403.5C 635.833,495.498 636.333,495.498 636.5,403.5C 637.498,426.661 637.831,449.994 637.5,473.5C 641.833,473.5 646.167,473.5 650.5,473.5C 646.688,474.324 642.688,474.824 638.5,475C 644.196,475.17 649.862,475.67 655.5,476.5C 654.359,477.425 654.359,478.259 655.5,479C 656.784,479.684 657.951,479.517 659,478.5C 662.34,480.608 662.173,482.108 658.5,483C 659.167,483.333 659.833,483.667 660.5,484C 658.833,484.333 657.167,484.667 655.5,485C 658.146,485.497 660.813,485.664 663.5,485.5C 663.5,485.833 663.5,486.167 663.5,486.5C 501.5,486.333 339.5,486.5 177.5,487C 176.877,489.607 176.21,492.107 175.5,494.5C 176.057,490.366 175.057,486.699 172.5,483.5C 171.459,485.991 170.626,485.991 170,483.5C 169.282,486.234 167.782,486.9 165.5,485.5C 166.492,481.508 168.492,478.174 171.5,475.5C 171.918,474.778 172.584,474.278 173.5,474C 188.907,473.818 204.241,473.318 219.5,472.5C 220.195,449.53 220.862,425.864 221.5,401.5C 247.791,400.684 274.124,400.184 300.5,400C 275.169,399.5 249.836,399.333 224.5,399.5C 249.663,398.668 274.997,398.168 300.5,398C 301.162,373.899 301.829,349.732 302.5,325.5C 303.308,325.192 303.975,324.692 304.5,324C 318.163,323.5 331.829,323.333 345.5,323.5C 385.998,324.665 426.665,324.831 467.5,324C 468,323.5 468.5,323 469,322.5C 469.333,298.833 469.667,275.167 470,251.5C 470.717,250.956 471.217,250.289 471.5,249.5C 471.5,248.833 471.833,248.5 472.5,248.5 Z"/></g>
<g><path style="opacity:1" fill="#30c8f4" d="M 481.5,336.5 C 481.5,356.833 481.5,377.167 481.5,397.5C 501.5,397.5 521.5,397.5 541.5,397.5C 541.479,376.861 541.479,356.527 541.5,336.5C 542.663,356.996 542.829,377.663 542,398.5C 531.908,399.161 521.741,399.494 511.5,399.5C 501.259,399.494 491.092,399.161 481,398.5C 480.171,377.663 480.337,356.996 481.5,336.5 Z"/></g>
<g><path style="opacity:1" fill="#30b7ef" d="M 541.5,336.5 C 541.479,356.527 541.479,376.861 541.5,397.5C 521.5,397.5 501.5,397.5 481.5,397.5C 481.5,377.167 481.5,356.833 481.5,336.5C 501.5,335.167 521.5,335.167 541.5,336.5 Z"/></g>
<g><path style="opacity:1" fill="#30b7ef" d="M 458.5,397.5 C 438.5,397.5 418.5,397.5 398.5,397.5C 398.5,377.167 398.5,356.833 398.5,336.5C 418.569,335.169 438.736,335.169 459,336.5C 459.829,357.004 459.663,377.337 458.5,397.5 Z"/></g>
<g><path style="opacity:1" fill="#31c8f4" d="M 481.5,261.5 C 481.522,281.194 481.522,301.194 481.5,321.5C 501.5,321.5 521.5,321.5 541.5,321.5C 541.478,301.194 541.478,281.194 541.5,261.5C 542.663,281.663 542.829,301.996 542,322.5C 531.908,323.161 521.741,323.494 511.5,323.5C 501.259,323.494 491.092,323.161 481,322.5C 480.171,301.996 480.337,281.663 481.5,261.5 Z"/></g>
<g><path style="opacity:1" fill="#30b7f0" d="M 481.5,261.5 C 501.5,260.167 521.5,260.167 541.5,261.5C 541.478,281.194 541.478,301.194 541.5,321.5C 521.5,321.5 501.5,321.5 481.5,321.5C 481.522,301.194 481.522,281.194 481.5,261.5 Z"/></g>
<g><path style="opacity:1" fill="#31d6fe" d="M 374.5,337.5 C 375.497,357.66 375.83,377.993 375.5,398.5C 355.167,398.5 334.833,398.5 314.5,398.5C 314.5,377.833 314.5,357.167 314.5,336.5C 334.674,336.17 354.674,336.503 374.5,337.5 Z"/></g>
<g><path style="opacity:1" fill="#30b7ef" d="M 374.5,337.5 C 374.5,357.5 374.5,377.5 374.5,397.5C 354.833,397.5 335.167,397.5 315.5,397.5C 315.5,377.5 315.5,357.5 315.5,337.5C 335.167,337.5 354.833,337.5 374.5,337.5 Z"/></g>
<g><path style="opacity:1" fill="#31d3fe" d="M 398.5,336.5 C 398.5,356.833 398.5,377.167 398.5,397.5C 418.5,397.5 438.5,397.5 458.5,397.5C 438.34,398.497 418.007,398.83 397.5,398.5C 397.169,377.66 397.503,356.993 398.5,336.5 Z"/></g>
<g><path style="opacity:1" fill="#013061" d="M 224.5,399.5 C 249.836,399.333 275.169,399.5 300.5,400C 274.124,400.184 247.791,400.684 221.5,401.5C 221.973,400.094 222.973,399.427 224.5,399.5 Z"/></g>
<g><path style="opacity:1" fill="#31c6f3" d="M 458.5,412.5 C 438.674,413.497 418.674,413.83 398.5,413.5C 398.5,433.167 398.5,452.833 398.5,472.5C 418.806,472.478 438.806,472.478 458.5,472.5C 438.34,473.497 418.007,473.83 397.5,473.5C 397.5,452.833 397.5,432.167 397.5,411.5C 418.007,411.17 438.34,411.503 458.5,412.5 Z"/></g>
<g><path style="opacity:1" fill="#30b7ef" d="M 458.5,412.5 C 459.833,432.5 459.833,452.5 458.5,472.5C 438.806,472.478 418.806,472.478 398.5,472.5C 398.5,452.833 398.5,433.167 398.5,413.5C 418.674,413.83 438.674,413.497 458.5,412.5 Z"/></g>
<g><path style="opacity:1" fill="#30b7ef" d="M 375.5,411.5 C 375.5,411.833 375.5,412.167 375.5,412.5C 374.503,432.326 374.17,452.326 374.5,472.5C 354.527,472.478 334.861,472.478 315.5,472.5C 314.338,452.671 314.171,432.671 315,412.5C 335.091,411.507 355.257,411.173 375.5,411.5 Z"/></g>
<g><path style="opacity:1" fill="#30b7ef" d="M 541.5,412.5 C 542.833,432.5 542.833,452.5 541.5,472.5C 522.137,472.642 502.47,472.475 482.5,472C 481.507,452.576 481.174,433.076 481.5,413.5C 501.674,413.83 521.674,413.497 541.5,412.5 Z"/></g>
<g><path style="opacity:1" fill="#30b7ef" d="M 623.5,412.5 C 624.833,432.5 624.833,452.5 623.5,472.5C 603.833,472.5 584.167,472.5 564.5,472.5C 564.5,452.833 564.5,433.167 564.5,413.5C 584.34,413.83 604.007,413.497 623.5,412.5 Z"/></g>
<g><path style="opacity:1" fill="#30c7f4" d="M 623.5,412.5 C 604.007,413.497 584.34,413.83 564.5,413.5C 564.5,433.167 564.5,452.833 564.5,472.5C 584.167,472.5 603.833,472.5 623.5,472.5C 603.674,473.497 583.674,473.83 563.5,473.5C 563.5,452.833 563.5,432.167 563.5,411.5C 583.674,411.17 603.674,411.503 623.5,412.5 Z"/></g>
<g><path style="opacity:1" fill="#113869" d="M 787.5,422.5 C 797.86,422.296 808.194,422.629 818.5,423.5C 816.866,424.161 815.033,424.494 813,424.5C 804.331,424.013 795.831,423.346 787.5,422.5 Z"/></g>
<g><path style="opacity:1" fill="#043060" d="M 556.5,399.5 C 582.169,399.333 607.835,399.5 633.5,400C 635.056,400.72 636.056,401.887 636.5,403.5C 636.333,495.498 635.833,495.498 635,403.5C 634.692,402.692 634.192,402.025 633.5,401.5C 607.706,400.842 582.039,400.175 556.5,399.5 Z"/></g>
<g><path style="opacity:1" fill="#002759" d="M 221.5,401.5 C 220.862,425.864 220.195,449.53 219.5,472.5C 219.333,449.164 219.5,425.831 220,402.5C 220.383,401.944 220.883,401.611 221.5,401.5 Z"/></g>
<g><path style="opacity:1" fill="#30caf7" d="M 233.5,411.5 C 253.409,411.174 273.243,411.507 293,412.5C 293.5,432.831 293.667,453.164 293.5,473.5C 273.167,473.5 252.833,473.5 232.5,473.5C 232.179,452.758 232.512,432.091 233.5,411.5 Z"/></g>
<g><path style="opacity:1" fill="#30b7ef" d="M 233.5,413.5 C 253.167,413.5 272.833,413.5 292.5,413.5C 292.5,433.167 292.5,452.833 292.5,472.5C 272.833,472.5 253.167,472.5 233.5,472.5C 233.5,452.833 233.5,433.167 233.5,413.5 Z"/></g>
<g><path style="opacity:1" fill="#30d4fe" d="M 541.5,412.5 C 521.674,413.497 501.674,413.83 481.5,413.5C 481.174,433.076 481.507,452.576 482.5,472C 502.47,472.475 522.137,472.642 541.5,472.5C 521.34,473.497 501.007,473.83 480.5,473.5C 480.5,453.167 480.5,432.833 480.5,412.5C 500.833,412.5 521.167,412.5 541.5,412.5 Z"/></g>
<g><path style="opacity:1" fill="#274b70" d="M 375.5,411.5 C 355.257,411.173 335.091,411.507 315,412.5C 314.171,432.671 314.338,452.671 315.5,472.5C 335.5,473.833 355.5,473.833 375.5,472.5C 376.332,452.671 376.832,432.671 377,412.5C 377.826,433.073 377.659,453.573 376.5,474C 366.261,475.144 355.928,475.644 345.5,475.5C 335.833,475.333 326.167,475.167 316.5,475C 315.584,474.626 314.75,474.126 314,473.5C 313.78,462.896 312.946,452.396 311.5,442C 312.651,432.244 312.818,422.411 312,412.5C 311.535,411.069 310.701,409.903 309.5,409C 311.533,408.199 313.699,407.699 316,407.5C 316.483,408.448 316.649,409.448 316.5,410.5C 336.34,410.17 356.007,410.503 375.5,411.5 Z"/></g>
<g><path style="opacity:1" fill="#31d5fe" d="M 375.5,412.5 C 375.5,432.5 375.5,452.5 375.5,472.5C 355.5,473.833 335.5,473.833 315.5,472.5C 334.861,472.478 354.527,472.478 374.5,472.5C 374.17,452.326 374.503,432.326 375.5,412.5 Z"/></g>
<g><path style="opacity:1" fill="#26547c" d="M 787.5,422.5 C 795.831,423.346 804.331,424.013 813,424.5C 815.033,424.494 816.866,424.161 818.5,423.5C 834.287,424.898 847.954,430.898 859.5,441.5C 851.9,470.268 834.234,490.102 806.5,501C 788.337,507.528 769.67,510.028 750.5,508.5C 727.79,568.442 692.79,619.942 645.5,663C 600.664,701.413 548.997,725.913 490.5,736.5C 489.903,735.861 489.07,735.528 488,735.5C 477.758,737.012 468.258,738.678 459.5,740.5C 401.034,748.012 343.7,742.512 287.5,724C 226.725,698.024 188.225,652.858 172,588.5C 163.478,554.96 160.811,520.96 164,486.5C 164.803,483.756 165.803,481.089 167,478.5C 168.129,476.859 169.629,475.859 171.5,475.5C 168.492,478.174 166.492,481.508 165.5,485.5C 167.782,486.9 169.282,486.234 170,483.5C 170.626,485.991 171.459,485.991 172.5,483.5C 175.057,486.699 176.057,490.366 175.5,494.5C 175.5,506.167 175.5,517.833 175.5,529.5C 177.041,572.91 189.374,612.91 212.5,649.5C 248.879,655.849 284.379,652.516 319,639.5C 322.868,641.348 326.035,644.015 328.5,647.5C 295.06,662.92 260.06,668.42 223.5,664C 250.631,694.408 284.298,713.742 324.5,722C 342.862,725.583 361.195,728.416 379.5,730.5C 405.362,733.117 431.362,732.95 457.5,730C 455.866,729.506 454.199,729.34 452.5,729.5C 455.833,728.833 459.167,728.167 462.5,727.5C 556.18,717.261 631.014,674.594 687,599.5C 710.666,566.843 729.666,531.51 744,493.5C 769.027,498.963 792.86,495.463 815.5,483C 829.102,474.06 839.102,462.06 845.5,447C 841.318,443.072 836.318,440.405 830.5,439C 805.845,432.735 781.345,433.235 757,440.5C 759.289,414.607 751.122,392.774 732.5,375C 725.562,368.727 718.062,363.227 710,358.5C 688.015,395.585 688.181,432.585 710.5,469.5C 705.61,474.756 699.61,478.256 692.5,480C 683.037,482.95 673.37,484.783 663.5,485.5C 660.813,485.664 658.146,485.497 655.5,485C 657.167,484.667 658.833,484.333 660.5,484C 659.833,483.667 659.167,483.333 658.5,483C 662.173,482.108 662.34,480.608 659,478.5C 657.951,479.517 656.784,479.684 655.5,479C 654.359,478.259 654.359,477.425 655.5,476.5C 649.862,475.67 644.196,475.17 638.5,475C 642.688,474.824 646.688,474.324 650.5,473.5C 665.149,473.879 679.315,471.546 693,466.5C 689.117,457.191 685.784,447.524 683,437.5C 678.086,408.498 682.753,381.165 697,355.5C 699.961,350.708 703.461,346.375 707.5,342.5C 724.872,351.705 740.039,363.705 753,378.5C 762.854,392.228 768.021,407.561 768.5,424.5C 774.815,423.687 781.148,423.021 787.5,422.5 Z"/></g>
<g><path style="opacity:1" fill="#d2f0fc" d="M 328.5,647.5 C 355.141,686.033 391.474,711.033 437.5,722.5C 445.717,724.81 454.051,726.477 462.5,727.5C 459.167,728.167 455.833,728.833 452.5,729.5C 428.182,730.418 403.849,730.751 379.5,730.5C 361.195,728.416 342.862,725.583 324.5,722C 284.298,713.742 250.631,694.408 223.5,664C 260.06,668.42 295.06,662.92 328.5,647.5 Z"/></g>
<g><path style="opacity:1" fill="#28aef3" d="M 663.5,486.5 C 659.018,487.326 654.351,487.826 649.5,488C 492.5,488.333 335.5,488.667 178.5,489C 177.736,491.069 177.236,493.236 177,495.5C 176.831,507.007 176.331,518.341 175.5,529.5C 175.5,517.833 175.5,506.167 175.5,494.5C 176.21,492.107 176.877,489.607 177.5,487C 339.5,486.5 501.5,486.333 663.5,486.5 Z"/></g>
<g><path style="opacity:1" fill="#28a5e8" d="M 462.5,727.5 C 454.051,726.477 445.717,724.81 437.5,722.5C 391.474,711.033 355.141,686.033 328.5,647.5C 326.035,644.015 322.868,641.348 319,639.5C 284.379,652.516 248.879,655.849 212.5,649.5C 189.374,612.91 177.041,572.91 175.5,529.5C 176.331,518.341 176.831,507.007 177,495.5C 177.236,493.236 177.736,491.069 178.5,489C 335.5,488.667 492.5,488.333 649.5,488C 654.351,487.826 659.018,487.326 663.5,486.5C 663.5,486.167 663.5,485.833 663.5,485.5C 673.37,484.783 683.037,482.95 692.5,480C 699.61,478.256 705.61,474.756 710.5,469.5C 688.181,432.585 688.015,395.585 710,358.5C 718.062,363.227 725.562,368.727 732.5,375C 751.122,392.774 759.289,414.607 757,440.5C 781.345,433.235 805.845,432.735 830.5,439C 836.318,440.405 841.318,443.072 845.5,447C 839.102,462.06 829.102,474.06 815.5,483C 792.86,495.463 769.027,498.963 744,493.5C 729.666,531.51 710.666,566.843 687,599.5C 631.014,674.594 556.18,717.261 462.5,727.5 Z"/></g>
<g><path style="opacity:1" fill="#f9fcfd" d="M 355.5,569.5 C 378.397,570.653 387.23,582.32 382,604.5C 372.148,618.937 359.648,621.771 344.5,613C 336.928,605.719 334.428,596.886 337,586.5C 340.387,577.737 346.554,572.07 355.5,569.5 Z"/></g>
<g><path style="opacity:1" fill="#25537c" d="M 355.5,579.5 C 370.328,579.154 376.162,586.154 373,600.5C 367.5,608.664 360.333,610.498 351.5,606C 342.495,595.533 343.828,586.699 355.5,579.5 Z"/></g>
<g><path style="opacity:1" fill="#1b4772" d="M 452.5,729.5 C 454.199,729.34 455.866,729.506 457.5,730C 431.362,732.95 405.362,733.117 379.5,730.5C 403.849,730.751 428.182,730.418 452.5,729.5 Z"/></g>
<g><path style="opacity:1" fill="#073263" d="M 490.5,736.5 C 480.214,738.207 469.881,739.541 459.5,740.5C 468.258,738.678 477.758,737.012 488,735.5C 489.07,735.528 489.903,735.861 490.5,736.5 Z"/></g>
</svg>
