<?xml version="1.0" encoding="UTF-8"?>
<!DOCTYPE svg PUBLIC "-//W3C//DTD SVG 1.1//EN" "http://www.w3.org/Graphics/SVG/1.1/DTD/svg11.dtd">
<svg xmlns="http://www.w3.org/2000/svg" version="1.1" width="1024px" height="1024px" style="shape-rendering:geometricPrecision; text-rendering:geometricPrecision; image-rendering:optimizeQuality; fill-rule:evenodd; clip-rule:evenodd" xmlns:xlink="http://www.w3.org/1999/xlink">
<g><path style="opacity:1" fill="#fbfbfc" d="M -0.5,-0.5 C 340.833,-0.5 682.167,-0.5 1023.5,-0.5C 1023.5,340.833 1023.5,682.167 1023.5,1023.5C 682.167,1023.5 340.833,1023.5 -0.5,1023.5C -0.5,682.167 -0.5,340.833 -0.5,-0.5 Z"/></g>
<g><path style="opacity:1" fill="#f64e2a" d="M 713.5,366.5 C 751.663,406.337 791.329,446.337 832.5,486.5C 841.053,498.713 841.553,511.379 834,524.5C 805.965,552.702 777.799,580.702 749.5,608.5C 737.92,618.577 726.753,629.243 716,640.5C 715.536,641.094 715.369,641.761 715.5,642.5C 695.5,663.167 675.167,683.5 654.5,703.5C 613.417,743.082 572.75,783.249 532.5,824C 532.728,824.399 533.062,824.565 533.5,824.5C 523.549,831.576 512.549,833.409 500.5,830C 497.339,828.587 494.339,826.92 491.5,825C 418.714,753.38 346.38,681.214 274.5,608.5C 247.586,580.084 220.086,552.084 192,524.5C 190.726,521.609 189.226,518.942 187.5,516.5C 185.818,513.332 184.818,509.832 184.5,506C 185.207,499.004 187.373,492.504 191,486.5C 198.368,478.964 205.868,471.631 213.5,464.5C 214.239,464.631 214.906,464.464 215.5,464C 276.68,402.653 338.014,341.486 399.5,280.5C 421.82,302.319 443.986,324.319 466,346.5C 465.497,351.526 464.497,356.526 463,361.5C 462.333,365.833 462.333,370.167 463,374.5C 463.181,371.305 463.681,368.305 464.5,365.5C 463.767,387.713 473.1,404.046 492.5,414.5C 491.522,415.297 491.855,415.964 493.5,416.5C 494.5,478.163 494.833,539.83 494.5,601.5C 491.911,601.461 489.911,602.461 488.5,604.5C 462.145,624.781 457.311,649.448 474,678.5C 491.92,698.138 513.087,702.638 537.5,692C 558.306,679.218 566.806,660.718 563,636.5C 558.487,619.988 548.321,608.488 532.5,602C 531.748,601.329 531.414,600.496 531.5,599.5C 532.17,538.264 532.837,476.931 533.5,415.5C 533.5,414.833 533.833,414.5 534.5,414.5C 555.747,437.249 577.58,459.582 600,481.5C 599.82,485.733 598.986,489.899 597.5,494C 597.528,495.07 597.861,495.903 598.5,496.5C 595.484,523.981 606.817,542.814 632.5,553C 665.88,559.567 687.713,546.733 698,514.5C 701.158,485.296 688.991,465.796 661.5,456C 657.569,455.004 653.569,454.504 649.5,454.5C 642.401,455.025 635.401,455.858 628.5,457C 606,434.5 583.5,412 561,389.5C 568.883,365.948 563.716,345.781 545.5,329C 536.679,322.226 526.679,318.726 515.5,318.5C 508.417,319.128 501.417,319.961 494.5,321C 471.581,298.081 448.581,275.081 425.5,252C 425.728,251.601 426.062,251.435 426.5,251.5C 448.249,231.253 469.582,210.42 490.5,189C 490.272,188.601 489.938,188.435 489.5,188.5C 503.071,177.456 517.404,176.622 532.5,186C 592.89,246.558 653.224,306.724 713.5,366.5 Z"/></g>
<g><path style="opacity:1" fill="#f6300b" d="M 489.5,188.5 C 489.938,188.435 490.272,188.601 490.5,189C 469.582,210.42 448.249,231.253 426.5,251.5C 447.167,230.167 468.167,209.167 489.5,188.5 Z"/></g>
<g><path style="opacity:1" fill="#f5300c" d="M 464.5,365.5 C 463.681,368.305 463.181,371.305 463,374.5C 462.333,370.167 462.333,365.833 463,361.5C 464.497,356.526 465.497,351.526 466,346.5C 443.986,324.319 421.82,302.319 399.5,280.5C 338.014,341.486 276.68,402.653 215.5,464C 214.906,464.464 214.239,464.631 213.5,464.5C 275.146,402.188 337.146,340.188 399.5,278.5C 422.486,300.986 445.32,323.653 468,346.5C 466.064,352.601 464.897,358.934 464.5,365.5 Z"/></g>
<g><path style="opacity:1" fill="#f53d1c" d="M 713.5,366.5 C 753.883,405.883 793.55,445.883 832.5,486.5C 791.329,446.337 751.663,406.337 713.5,366.5 Z"/></g>
<g><path style="opacity:1" fill="#f52d0a" d="M 534.5,414.5 C 557.132,436.632 579.632,458.965 602,481.5C 600.763,486.4 599.597,491.4 598.5,496.5C 597.861,495.903 597.528,495.07 597.5,494C 598.986,489.899 599.82,485.733 600,481.5C 577.58,459.582 555.747,437.249 534.5,414.5 Z"/></g>
<g><path style="opacity:1" fill="#f94d2d" d="M 492.5,414.5 C 493.721,415.028 494.887,415.695 496,416.5C 496.667,478.167 496.667,539.833 496,601.5C 493.55,602.642 491.05,603.642 488.5,604.5C 489.911,602.461 491.911,601.461 494.5,601.5C 494.833,539.83 494.5,478.163 493.5,416.5C 491.855,415.964 491.522,415.297 492.5,414.5 Z"/></g>
<g><path style="opacity:1" fill="#f11300" d="M 533.5,415.5 C 532.837,476.931 532.17,538.264 531.5,599.5C 530.837,537.824 531.504,476.491 533.5,415.5 Z"/></g>
<g><path style="opacity:1" fill="#f5310d" d="M 187.5,516.5 C 189.226,518.942 190.726,521.609 192,524.5C 220.086,552.084 247.586,580.084 274.5,608.5C 246.535,581.035 218.701,553.368 191,525.5C 189.259,522.691 188.092,519.691 187.5,516.5 Z"/></g>
<g><path style="opacity:1" fill="#f42b09" d="M 749.5,608.5 C 738.5,620.167 727.167,631.5 715.5,642.5C 715.369,641.761 715.536,641.094 716,640.5C 726.753,629.243 737.92,618.577 749.5,608.5 Z"/></g>
<g><path style="opacity:1" fill="#f42c09" d="M 654.5,703.5 C 614.5,744.167 574.167,784.5 533.5,824.5C 533.062,824.565 532.728,824.399 532.5,824C 572.75,783.249 613.417,743.082 654.5,703.5 Z"/></g>
</svg>
