<?xml version="1.0" encoding="UTF-8"?>
<!DOCTYPE svg PUBLIC "-//W3C//DTD SVG 1.1//EN" "http://www.w3.org/Graphics/SVG/1.1/DTD/svg11.dtd">
<svg xmlns="http://www.w3.org/2000/svg" version="1.1" width="1024px" height="1024px" style="shape-rendering:geometricPrecision; text-rendering:geometricPrecision; image-rendering:optimizeQuality; fill-rule:evenodd; clip-rule:evenodd" xmlns:xlink="http://www.w3.org/1999/xlink">
<g><path style="opacity:1" fill="#fbfbfb" d="M -0.5,-0.5 C 340.833,-0.5 682.167,-0.5 1023.5,-0.5C 1023.5,340.833 1023.5,682.167 1023.5,1023.5C 682.167,1023.5 340.833,1023.5 -0.5,1023.5C -0.5,682.167 -0.5,340.833 -0.5,-0.5 Z"/></g>
<g><path style="opacity:1" fill="#181818" d="M 649.5,405.5 C 700.167,405.5 750.833,405.5 801.5,405.5C 801.5,409.833 801.5,414.167 801.5,418.5C 777.833,418.5 754.167,418.5 730.5,418.5C 730.5,475.833 730.5,533.167 730.5,590.5C 725.5,590.5 720.5,590.5 715.5,590.5C 715.5,533.167 715.5,475.833 715.5,418.5C 693.5,418.5 671.5,418.5 649.5,418.5C 649.5,414.167 649.5,409.833 649.5,405.5 Z"/></g>
<g><path style="opacity:1" fill="#232323" d="M 645.5,391.5 C 639.357,402.446 633.191,413.446 627,424.5C 610.479,446.901 593.979,469.234 577.5,491.5C 577.19,490.262 576.69,490.262 576,491.5C 573.683,496.913 574.35,501.913 578,506.5C 586.853,518.191 596.186,529.525 606,540.5C 613.016,551.847 621.016,562.514 630,572.5C 632.789,576.35 635.455,580.35 638,584.5C 639.214,586.049 640.714,587.215 642.5,588C 638.312,588.176 634.312,588.676 630.5,589.5C 609.191,561.185 587.858,532.852 566.5,504.5C 548.553,532.751 529.887,560.417 510.5,587.5C 506.605,588.581 502.271,588.581 497.5,587.5C 499.8,583.701 502.634,580.368 506,577.5C 515.18,561.492 525.346,546.158 536.5,531.5C 542.914,520.343 550.08,509.677 558,499.5C 559.422,496.97 559.755,494.303 559,491.5C 558.722,492.416 558.222,493.082 557.5,493.5C 548.999,479.16 539.999,465.16 530.5,451.5C 522.475,437.963 513.808,424.796 504.5,412C 508.829,410.849 512.662,411.682 516,414.5C 525.254,428.009 534.754,441.343 544.5,454.5C 551.055,465.388 558.388,475.721 566.5,485.5C 567.5,485 568.5,484.5 569.5,484C 573.629,480.167 577.462,476.001 581,471.5C 602.064,440.657 624.064,410.657 647,381.5C 647.309,382.766 647.809,383.933 648.5,385C 646.781,386.87 645.781,389.037 645.5,391.5 Z"/></g>
<g><path style="opacity:1" fill="#252526" d="M 332.5,601.5 C 332.179,609.521 334.679,616.521 340,622.5C 340.761,625.053 341.594,627.553 342.5,630C 342,630.5 341.5,631 341,631.5C 332.056,619.252 322.889,607.252 313.5,595.5C 308.603,588.669 304.603,581.669 301.5,574.5C 302.035,572.899 303.035,572.399 304.5,573C 305.908,577.56 308.575,581.06 312.5,583.5C 315.451,586.287 318.284,589.287 321,592.5C 321.772,592.355 322.439,592.022 323,591.5C 323.333,588.833 323.667,586.167 324,583.5C 324.5,526.168 324.667,468.834 324.5,411.5C 327.167,411.5 329.833,411.5 332.5,411.5C 332.5,474.833 332.5,538.167 332.5,601.5 Z"/></g>
<g><path style="opacity:1" fill="#262626" d="M 650.5,410.5 C 700.167,410.5 749.833,410.5 799.5,410.5C 799.5,412.5 799.5,414.5 799.5,416.5C 775.77,415.849 752.27,416.516 729,418.5C 728.5,475.166 728.333,531.832 728.5,588.5C 724.833,588.5 721.167,588.5 717.5,588.5C 717.833,531.496 717.5,474.496 716.5,417.5C 694.546,416.511 672.546,416.178 650.5,416.5C 650.5,414.5 650.5,412.5 650.5,410.5 Z"/></g>
<g><path style="opacity:1" fill="#0d0e0e" d="M 375.5,499.5 C 375.5,525.833 375.5,552.167 375.5,578.5C 412.5,578.5 449.5,578.5 486.5,578.5C 486.5,582.5 486.5,586.5 486.5,590.5C 444.833,590.5 403.167,590.5 361.5,590.5C 361.5,528.833 361.5,467.167 361.5,405.5C 402.833,405.5 444.167,405.5 485.5,405.5C 485.5,409.833 485.5,414.167 485.5,418.5C 448.833,418.5 412.167,418.5 375.5,418.5C 375.5,441.5 375.5,464.5 375.5,487.5C 409.5,487.5 443.5,487.5 477.5,487.5C 477.5,491.5 477.5,495.5 477.5,499.5C 443.5,499.5 409.5,499.5 375.5,499.5 Z"/></g>
<g><path style="opacity:1" fill="#262626" d="M 375.5,499.5 C 374.883,499.611 374.383,499.944 374,500.5C 373.176,527.876 373.342,555.209 374.5,582.5C 411.161,583.5 447.827,583.833 484.5,583.5C 484.5,585.167 484.5,586.833 484.5,588.5C 444.167,588.5 403.833,588.5 363.5,588.5C 363.5,529.5 363.5,470.5 363.5,411.5C 403.833,411.5 444.167,411.5 484.5,411.5C 484.5,413.167 484.5,414.833 484.5,416.5C 448.165,416.333 411.832,416.5 375.5,417C 375,417.5 374.5,418 374,418.5C 373.177,442.876 373.343,467.209 374.5,491.5C 408.493,492.5 442.493,492.833 476.5,492.5C 476.5,494.5 476.5,496.5 476.5,498.5C 442.663,498.168 408.996,498.502 375.5,499.5 Z"/></g>
<g><path style="opacity:1" fill="#111112" d="M 645.5,391.5 C 645.781,389.037 646.781,386.87 648.5,385C 647.809,383.933 647.309,382.766 647,381.5C 624.064,410.657 602.064,440.657 581,471.5C 577.462,476.001 573.629,480.167 569.5,484C 568.5,484.5 567.5,485 566.5,485.5C 558.388,475.721 551.055,465.388 544.5,454.5C 534.754,441.343 525.254,428.009 516,414.5C 512.662,411.682 508.829,410.849 504.5,412C 513.808,424.796 522.475,437.963 530.5,451.5C 519.696,436.513 509.03,421.346 498.5,406C 504.167,405.333 509.833,405.333 515.5,406C 533.37,430.905 550.87,456.072 568,481.5C 611.455,422.266 656.121,363.933 702,306.5C 683.868,335.163 665.035,363.497 645.5,391.5 Z"/></g>
<g><path style="opacity:1" fill="#0c0c0c" d="M 334.5,604.5 C 333.833,603.5 333.167,602.5 332.5,601.5C 332.5,538.167 332.5,474.833 332.5,411.5C 329.833,411.5 327.167,411.5 324.5,411.5C 324.667,468.834 324.5,526.168 324,583.5C 323.667,586.167 323.333,588.833 323,591.5C 322.439,592.022 321.772,592.355 321,592.5C 318.284,589.287 315.451,586.287 312.5,583.5C 306.927,574.023 301.093,564.69 295,555.5C 293.667,554.833 292.333,554.167 291,553.5C 288.311,548.667 285.478,544 282.5,539.5C 282.291,538.078 281.791,536.745 281,535.5C 278.615,532.05 275.781,529.05 272.5,526.5C 265.32,514.801 258.154,503.134 251,491.5C 243.113,481.273 235.113,471.273 227,461.5C 223.478,454.639 219.145,448.306 214,442.5C 207.815,432.785 201.649,423.119 195.5,413.5C 190.739,411.63 185.739,410.963 180.5,411.5C 180.5,470.5 180.5,529.5 180.5,588.5C 184.167,588.5 187.833,588.5 191.5,588.5C 190.903,533.5 190.736,478.5 191,423.5C 192.183,422.269 193.349,422.269 194.5,423.5C 196.297,425.955 197.63,428.622 198.5,431.5C 196.14,429.287 194.306,426.621 193,423.5C 192.81,479.166 192.976,534.833 193.5,590.5C 188.5,590.5 183.5,590.5 178.5,590.5C 178.5,528.833 178.5,467.167 178.5,405.5C 184.425,405.192 190.259,405.525 196,406.5C 238,467.167 280,527.833 322,588.5C 322.5,527.501 322.667,466.501 322.5,405.5C 326.5,405.5 330.5,405.5 334.5,405.5C 334.5,471.833 334.5,538.167 334.5,604.5 Z"/></g>
<g><path style="opacity:1" fill="#252525" d="M 282.5,539.5 C 281.5,539.5 280.5,539.5 279.5,539.5C 279.785,541.288 279.452,542.955 278.5,544.5C 252.561,507.421 226.561,471.088 200.5,435.5C 199.326,434.486 198.66,433.153 198.5,431.5C 197.63,428.622 196.297,425.955 194.5,423.5C 193.349,422.269 192.183,422.269 191,423.5C 190.736,478.5 190.903,533.5 191.5,588.5C 187.833,588.5 184.167,588.5 180.5,588.5C 180.5,529.5 180.5,470.5 180.5,411.5C 185.739,410.963 190.739,411.63 195.5,413.5C 201.649,423.119 207.815,432.785 214,442.5C 219.145,448.306 223.478,454.639 227,461.5C 235.113,471.273 243.113,481.273 251,491.5C 258.154,503.134 265.32,514.801 272.5,526.5C 275.781,529.05 278.615,532.05 281,535.5C 281.791,536.745 282.291,538.078 282.5,539.5 Z"/></g>
<g><path style="opacity:1" fill="#121212" d="M 510.5,587.5 C 510.586,588.496 510.252,589.329 509.5,590C 503.833,590.667 498.167,590.667 492.5,590C 514.053,557.718 535.72,525.552 557.5,493.5C 558.222,493.082 558.722,492.416 559,491.5C 559.755,494.303 559.422,496.97 558,499.5C 550.08,509.677 542.914,520.343 536.5,531.5C 525.346,546.158 515.18,561.492 506,577.5C 502.634,580.368 499.8,583.701 497.5,587.5C 502.271,588.581 506.605,588.581 510.5,587.5 Z"/></g>
<g><path style="opacity:1" fill="#1c1c1c" d="M 282.5,539.5 C 285.478,544 288.311,548.667 291,553.5C 292.333,554.167 293.667,554.833 295,555.5C 301.093,564.69 306.927,574.023 312.5,583.5C 308.575,581.06 305.908,577.56 304.5,573C 303.035,572.399 302.035,572.899 301.5,574.5C 304.603,581.669 308.603,588.669 313.5,595.5C 276.863,544.681 240.363,493.681 204,442.5C 202.82,440.14 201.653,437.807 200.5,435.5C 226.561,471.088 252.561,507.421 278.5,544.5C 279.452,542.955 279.785,541.288 279.5,539.5C 280.5,539.5 281.5,539.5 282.5,539.5 Z"/></g>
<g><path style="opacity:1" fill="#0d0d0e" d="M 577.5,491.5 C 577.196,492.15 576.863,492.817 576.5,493.5C 600.135,525.935 624.135,558.101 648.5,590C 642.418,590.788 636.418,590.621 630.5,589.5C 634.312,588.676 638.312,588.176 642.5,588C 640.714,587.215 639.214,586.049 638,584.5C 635.455,580.35 632.789,576.35 630,572.5C 621.016,562.514 613.016,551.847 606,540.5C 596.186,529.525 586.853,518.191 578,506.5C 574.35,501.913 573.683,496.913 576,491.5C 576.69,490.262 577.19,490.262 577.5,491.5 Z"/></g>
<g><path style="opacity:1" fill="#0e0e0f" d="M 830.5,541.5 C 838.934,540.145 846.101,542.478 852,548.5C 852.424,551.328 851.09,552.661 848,552.5C 845.277,551.459 842.777,549.959 840.5,548C 837.036,547.183 833.702,547.517 830.5,549C 829.041,552.084 830.041,554.084 833.5,555C 839.038,556.051 844.372,557.717 849.5,560C 855.258,567.422 853.925,573.422 845.5,578C 836.069,581.395 827.902,579.561 821,572.5C 819.991,570.975 819.491,569.308 819.5,567.5C 821.199,567.38 822.865,567.046 824.5,566.5C 827.691,570.514 831.858,572.847 837,573.5C 840.073,573.477 842.74,572.477 845,570.5C 845.825,568.299 845.325,566.466 843.5,565C 837.332,563.944 831.332,562.277 825.5,560C 821.87,556.95 820.703,553.117 822,548.5C 824.439,545.549 827.272,543.216 830.5,541.5 Z"/></g>
<g><path style="opacity:1" fill="#101011" d="M 808.5,542.5 C 810.833,542.5 813.167,542.5 815.5,542.5C 815.923,552.58 815.423,562.58 814,572.5C 811.252,577.292 807.085,579.626 801.5,579.5C 794.728,579.954 790.061,577.121 787.5,571C 788.044,569.053 789.377,568.22 791.5,568.5C 794.288,570.764 797.454,572.431 801,573.5C 803.406,573.297 805.406,572.297 807,570.5C 808.445,561.274 808.945,551.94 808.5,542.5 Z"/></g>
<g><path style="opacity:1" fill="#161616" d="M 313.5,595.5 C 322.889,607.252 332.056,619.252 341,631.5C 341.5,631 342,630.5 342.5,630C 341.594,627.553 340.761,625.053 340,622.5C 334.679,616.521 332.179,609.521 332.5,601.5C 333.167,602.5 333.833,603.5 334.5,604.5C 334.389,605.117 334.056,605.617 333.5,606C 355.511,641.283 377.344,676.449 399,711.5C 372,675.5 345,639.5 318,603.5C 316.223,600.941 314.723,598.274 313.5,595.5 Z"/></g>
</svg>
