<?xml version="1.0" encoding="UTF-8"?>
<!DOCTYPE svg PUBLIC "-//W3C//DTD SVG 1.1//EN" "http://www.w3.org/Graphics/SVG/1.1/DTD/svg11.dtd">
<svg xmlns="http://www.w3.org/2000/svg" version="1.1" width="1024px" height="1024px" style="shape-rendering:geometricPrecision; text-rendering:geometricPrecision; image-rendering:optimizeQuality; fill-rule:evenodd; clip-rule:evenodd" xmlns:xlink="http://www.w3.org/1999/xlink">
<g><path style="opacity:1" fill="#fbfbfb" d="M -0.5,-0.5 C 340.833,-0.5 682.167,-0.5 1023.5,-0.5C 1023.5,340.833 1023.5,682.167 1023.5,1023.5C 682.167,1023.5 340.833,1023.5 -0.5,1023.5C -0.5,682.167 -0.5,340.833 -0.5,-0.5 Z"/></g>
<g><path style="opacity:1" fill="#050404" d="M 635.5,333.5 C 631.809,332.238 628.309,330.571 625,328.5C 623.739,328.759 622.739,329.426 622,330.5C 621.832,363.336 621.332,396.003 620.5,428.5C 620.333,395.498 620.5,362.498 621,329.5C 622.808,327.604 624.975,327.104 627.5,328C 630.407,329.609 633.073,331.442 635.5,333.5 Z"/></g>
<g><path style="opacity:1" fill="#2f2e2c" d="M 635.5,333.5 C 639.173,335 642.506,337 645.5,339.5C 649.426,342.807 653.76,345.64 658.5,348C 661.135,349.961 662.969,352.461 664,355.5C 664.667,414.833 664.667,474.167 664,533.5C 663.215,535.286 662.049,536.786 660.5,538C 660.728,538.399 661.062,538.565 661.5,538.5C 643.338,549.803 625.005,560.97 606.5,572C 602.278,575.111 597.611,576.111 592.5,575C 571.577,563.734 550.91,552.067 530.5,540C 528.004,538.669 526.004,536.836 524.5,534.5C 525.097,534.265 525.43,533.765 525.5,533C 524.848,509.027 524.181,485.193 523.5,461.5C 525.592,456.239 529.259,452.406 534.5,450C 553.167,439 571.833,428 590.5,417C 592.5,416.333 594.5,416.333 596.5,417C 603.671,421.42 611.004,425.586 618.5,429.5C 619.183,429.137 619.85,428.804 620.5,428.5C 621.332,396.003 621.832,363.336 622,330.5C 622.739,329.426 623.739,328.759 625,328.5C 628.309,330.571 631.809,332.238 635.5,333.5 Z"/></g>
<g><path style="opacity:1" fill="#060505" d="M 645.5,339.5 C 653.517,342.088 660.017,346.755 665,353.5C 665.667,413.833 665.667,474.167 665,534.5C 664.34,536.324 663.173,537.657 661.5,538.5C 661.062,538.565 660.728,538.399 660.5,538C 662.049,536.786 663.215,535.286 664,533.5C 664.667,474.167 664.667,414.833 664,355.5C 662.969,352.461 661.135,349.961 658.5,348C 653.76,345.64 649.426,342.807 645.5,339.5 Z"/></g>
<g><path style="opacity:1" fill="#2f2d2c" d="M 306.5,454.5 C 306.468,487.625 306.468,520.958 306.5,554.5C 305.402,558.589 303.068,559.423 299.5,557C 288.334,550.585 277.334,543.918 266.5,537C 264.561,535.568 263.228,533.735 262.5,531.5C 263.662,514.338 263.829,497.005 263,479.5C 262.184,478.177 261.017,477.511 259.5,477.5C 252.511,473.518 245.511,469.518 238.5,465.5C 230.121,470.108 221.954,475.108 214,480.5C 213.667,498.167 213.333,515.833 213,533.5C 211.194,535.306 209.36,537.14 207.5,539C 199.306,543.593 191.306,548.427 183.5,553.5C 183.44,552.957 183.107,552.624 182.5,552.5C 179.684,553.993 176.85,555.326 174,556.5C 172.289,556.561 170.956,555.894 170,554.5C 169.5,521.835 169.333,489.168 169.5,456.5C 170.191,453.635 171.858,451.468 174.5,450C 192.167,439.667 209.833,429.333 227.5,419C 233.499,414.259 239.832,413.593 246.5,417C 263.335,427.252 280.335,437.252 297.5,447C 300.94,449.042 303.94,451.542 306.5,454.5 Z"/></g>
<g><path style="opacity:1" fill="#2e2d2b" d="M 706.5,533.5 C 706.185,507.455 706.518,481.455 707.5,455.5C 708.475,453.807 709.808,452.307 711.5,451C 731.33,439.919 750.997,428.586 770.5,417C 774.956,416.133 779.289,416.466 783.5,418C 803.003,429.586 822.67,440.919 842.5,452C 846.885,455.431 848.552,459.931 847.5,465.5C 848.24,470.672 846.907,475.172 843.5,479C 830.194,486.902 816.694,494.402 803,501.5C 802.5,501.333 802,501.167 801.5,501C 802.903,494.164 802.736,487.331 801,480.5C 793.749,476.125 786.582,471.625 779.5,467C 776.217,466.257 773.217,466.924 770.5,469C 764.085,473.291 757.585,477.458 751,481.5C 750.333,490.833 750.333,500.167 751,509.5C 771.751,521.793 792.585,533.959 813.5,546C 815.208,547.51 816.874,549.01 818.5,550.5C 806.869,558.99 794.535,566.49 781.5,573C 775.855,575.172 770.522,574.505 765.5,571C 747.331,560.081 728.997,549.414 710.5,539C 708.536,537.549 707.203,535.716 706.5,533.5 Z"/></g>
<g><path style="opacity:1" fill="#060504" d="M 169.5,456.5 C 169.333,489.168 169.5,521.835 170,554.5C 170.956,555.894 172.289,556.561 174,556.5C 176.85,555.326 179.684,553.993 182.5,552.5C 183.107,552.624 183.44,552.957 183.5,553.5C 180.108,555.392 176.608,557.059 173,558.5C 171.395,557.899 170.062,556.899 169,555.5C 168.169,522.331 168.336,489.331 169.5,456.5 Z"/></g>
<g><path style="opacity:1" fill="#020102" d="M 707.5,455.5 C 706.518,481.455 706.185,507.455 706.5,533.5C 705.337,508.003 705.17,482.337 706,456.5C 706.383,455.944 706.883,455.611 707.5,455.5 Z"/></g>
<g><path style="opacity:1" fill="#040202" d="M 523.5,461.5 C 524.181,485.193 524.848,509.027 525.5,533C 525.43,533.765 525.097,534.265 524.5,534.5C 523.519,510.212 523.186,485.878 523.5,461.5 Z"/></g>
<g><path style="opacity:1" fill="#f9f9f9" d="M 620.5,484.5 C 620.666,493.173 620.5,501.84 620,510.5C 617.656,513.011 615.156,515.344 612.5,517.5C 607.184,520.158 601.85,522.825 596.5,525.5C 587.544,521.021 578.877,516.021 570.5,510.5C 569.16,509.312 568.493,507.812 568.5,506C 569.385,498.175 569.551,490.342 569,482.5C 577.117,476.526 585.617,471.193 594.5,466.5C 602.939,471.096 611.273,475.929 619.5,481C 620.337,482.011 620.67,483.178 620.5,484.5 Z"/></g>
<g><path style="opacity:1" fill="#519449" d="M 775.5,474.5 C 781.859,477.766 788.026,481.433 794,485.5C 794.915,491.944 794.581,498.277 793,504.5C 787.861,508.97 782.195,512.637 776,515.5C 770.521,512.76 765.187,509.76 760,506.5C 759.169,499.144 759.335,491.811 760.5,484.5C 766.082,481.887 771.082,478.554 775.5,474.5 Z"/></g>
<g><path style="opacity:1" fill="#040302" d="M 306.5,454.5 C 307.816,487.973 307.816,521.306 306.5,554.5C 306.468,520.958 306.468,487.625 306.5,454.5 Z"/></g>
<g><path style="opacity:1" fill="#030202" d="M 259.5,477.5 C 261.017,477.511 262.184,478.177 263,479.5C 263.829,497.005 263.662,514.338 262.5,531.5C 262.667,514.497 262.5,497.497 262,480.5C 260.955,479.627 260.122,478.627 259.5,477.5 Z"/></g>
<g><path style="opacity:1" fill="#090808" d="M 620.5,484.5 C 621.657,493.324 621.824,502.324 621,511.5C 618.871,514.457 616.038,516.457 612.5,517.5C 615.156,515.344 617.656,513.011 620,510.5C 620.5,501.84 620.666,493.173 620.5,484.5 Z"/></g>
<g><path style="opacity:1" fill="#53954b" d="M 346.5,531.5 C 347.332,506.67 347.832,481.67 348,456.5C 349.694,453.642 351.861,451.309 354.5,449.5C 373.996,437.012 393.996,425.345 414.5,414.5C 418.074,414.969 421.408,416.136 424.5,418C 443.336,429.253 462.336,440.253 481.5,451C 483.487,452.319 484.654,454.152 485,456.5C 485.667,482.167 485.667,507.833 485,533.5C 484.215,535.286 483.049,536.786 481.5,538C 462.833,549 444.167,560 425.5,571C 418.864,575.579 412.197,575.579 405.5,571C 389.5,561.667 373.5,552.333 357.5,543C 352.255,540.59 348.588,536.757 346.5,531.5 Z"/></g>
<g><path style="opacity:1" fill="#217714" d="M 354.5,449.5 C 351.861,451.309 349.694,453.642 348,456.5C 347.832,481.67 347.332,506.67 346.5,531.5C 346.333,506.164 346.5,480.831 347,455.5C 348.48,452.183 350.98,450.183 354.5,449.5 Z"/></g>
<g><path style="opacity:1" fill="#509347" d="M 565.5,679.5 C 566.117,679.389 566.617,679.056 567,678.5C 567.83,656.329 567.663,634.329 566.5,612.5C 561.603,608.11 556.27,604.277 550.5,601C 536,592.585 521.667,583.918 507.5,575C 505.167,574.333 502.833,574.333 500.5,575C 483.167,585.333 465.833,595.667 448.5,606C 446.622,607.543 445.122,609.376 444,611.5C 443.333,633.167 443.333,654.833 444,676.5C 450.096,682.131 456.929,686.631 464.5,690C 470.913,691.291 475.58,689.124 478.5,683.5C 479.186,660.294 479.853,636.961 480.5,613.5C 483.119,613.232 485.619,613.565 488,614.5C 488.667,638.167 488.667,661.833 488,685.5C 483.517,697.995 474.683,703.161 461.5,701C 453.204,696.852 445.204,692.185 437.5,687C 435.106,685.048 433.606,682.548 433,679.5C 432.038,654.45 432.372,629.45 434,604.5C 438.447,599.515 443.614,595.349 449.5,592C 465.998,582.585 482.332,572.919 498.5,563C 502.667,560.914 506.667,561.247 510.5,564C 528.668,575.252 547.001,586.252 565.5,597C 569.458,599.234 572.958,602.067 576,605.5C 577.648,631.079 577.981,656.746 577,682.5C 574.117,687.05 570.284,690.55 565.5,693C 546.833,704.333 528.167,715.667 509.5,727C 505.486,727.505 501.819,726.505 498.5,724C 490.667,718.833 482.833,713.667 475,708.5C 474.312,707.668 474.479,707.002 475.5,706.5C 478.54,705.157 481.54,703.824 484.5,702.5C 491.463,706.317 498.463,710.15 505.5,714C 506.833,714.667 508.167,714.667 509.5,714C 528.362,702.74 547.029,691.24 565.5,679.5 Z"/></g>
<g><path style="opacity:1" fill="#509347" d="M 520.5,612.5 C 529.726,612.473 538.393,614.64 546.5,619C 551.291,622.742 553.124,627.576 552,633.5C 549.503,635.478 546.669,635.978 543.5,635C 540.589,627.873 535.256,624.207 527.5,624C 520.362,622.91 513.862,624.41 508,628.5C 507.16,631.318 507.994,633.484 510.5,635C 521.221,637.453 531.887,640.12 542.5,643C 554.165,647.835 557.332,656.002 552,667.5C 547.334,672.917 541.501,676.417 534.5,678C 523.782,679.43 513.448,678.097 503.5,674C 495.724,669.486 493.058,663.153 495.5,655C 497.833,654.333 500.167,654.333 502.5,655C 504.167,660.667 507.833,664.333 513.5,666C 521.509,669.329 529.509,669.329 537.5,666C 542.752,663.704 544.086,660.204 541.5,655.5C 529.307,651.56 516.973,648.06 504.5,645C 494.182,638.126 492.849,629.793 500.5,620C 506.56,615.66 513.226,613.16 520.5,612.5 Z"/></g>
<g><path style="opacity:1" fill="#207913" d="M 480.5,613.5 C 479.853,636.961 479.186,660.294 478.5,683.5C 478.333,660.498 478.5,637.498 479,614.5C 479.383,613.944 479.883,613.611 480.5,613.5 Z"/></g>
<g><path style="opacity:1" fill="#267a19" d="M 566.5,612.5 C 567.663,634.329 567.83,656.329 567,678.5C 566.617,679.056 566.117,679.389 565.5,679.5C 566.479,657.212 566.812,634.879 566.5,612.5 Z"/></g>
</svg>
