<?xml version="1.0" encoding="UTF-8"?>
<!DOCTYPE svg PUBLIC "-//W3C//DTD SVG 1.1//EN" "http://www.w3.org/Graphics/SVG/1.1/DTD/svg11.dtd">
<svg xmlns="http://www.w3.org/2000/svg" version="1.1" width="1024px" height="1024px" style="shape-rendering:geometricPrecision; text-rendering:geometricPrecision; image-rendering:optimizeQuality; fill-rule:evenodd; clip-rule:evenodd" xmlns:xlink="http://www.w3.org/1999/xlink">
<g><path style="opacity:1" fill="#fefefe" d="M -0.5,-0.5 C 340.833,-0.5 682.167,-0.5 1023.5,-0.5C 1023.5,340.833 1023.5,682.167 1023.5,1023.5C 682.167,1023.5 340.833,1023.5 -0.5,1023.5C -0.5,682.167 -0.5,340.833 -0.5,-0.5 Z"/></g>
<g><path style="opacity:1" fill="#41c9fe" d="M 665.5,165.5 C 700.052,164.853 722.885,180.853 734,213.5C 737.113,223.619 739.113,233.953 740,244.5C 741.458,272.971 740.125,301.304 736,329.5C 733.595,345.262 730.762,360.929 727.5,376.5C 767.801,386.535 805.134,403.035 839.5,426C 857.205,438.706 870.038,455.206 878,475.5C 884.567,502.664 878.9,526.998 861,548.5C 840.073,570.409 815.573,587.242 787.5,599C 767.592,607.619 747.259,615.119 726.5,621.5C 726.167,622.167 725.833,622.833 725.5,623.5C 737.504,665.027 742.338,707.36 740,750.5C 739.238,775.118 731.905,797.451 718,817.5C 698.925,837.401 675.758,844.568 648.5,839C 616.689,830.593 587.689,816.593 561.5,797C 543.975,784.135 527.475,769.968 512,754.5C 481.272,785.614 446.106,810.448 406.5,829C 390.387,836.07 373.554,839.904 356,840.5C 331.058,840.201 312.058,829.534 299,808.5C 286.013,783.45 280.18,756.783 281.5,728.5C 282.561,692.238 288.227,656.738 298.5,622C 260.01,611.418 224.01,595.418 190.5,574C 175.624,563.458 163.124,550.624 153,535.5C 138.122,507.834 139.122,480.834 156,454.5C 169.144,437.523 184.977,423.69 203.5,413C 232.277,397.017 262.611,384.851 294.5,376.5C 294.833,375.667 295.167,374.833 295.5,374C 285.219,334.472 280.719,294.305 282,253.5C 282.965,237.309 286.298,221.643 292,206.5C 307.911,172.464 334.411,159.63 371.5,168C 401.917,175.378 429.584,188.378 454.5,207C 474.832,221.324 493.999,237.157 512,254.5C 537.264,229.557 565.097,208.057 595.5,190C 617.25,176.919 640.584,168.752 665.5,165.5 Z"/></g>
<g><path style="opacity:1" fill="#fefefe" d="M 348.5,199.5 C 358.731,199.462 368.731,200.962 378.5,204C 402.788,212.992 425.121,225.325 445.5,241C 460.757,252.919 475.424,265.586 489.5,279C 467.279,302.211 446.945,326.877 428.5,353C 395.026,355.234 362.026,360.401 329.5,368.5C 316.117,323.577 312.617,277.91 319,231.5C 322.261,214.417 332.095,203.75 348.5,199.5 Z"/></g>
<g><path style="opacity:1" fill="#fefefe" d="M 657.5,199.5 C 678.172,195.194 692.672,202.527 701,221.5C 708.564,245.33 710.564,269.663 707,294.5C 704.829,319.187 700.662,343.521 694.5,367.5C 661.161,360.388 627.495,355.388 593.5,352.5C 575.354,326.68 555.687,302.013 534.5,278.5C 561.905,250.796 592.905,227.963 627.5,210C 637.298,205.585 647.298,202.085 657.5,199.5 Z"/></g>
<g><path style="opacity:1" fill="#fdfefe" d="M 549.5,350.5 C 524.165,349.19 498.832,349.19 473.5,350.5C 472.761,350.631 472.094,350.464 471.5,350C 484.242,334.034 497.575,318.534 511.5,303.5C 525.888,318.121 539.221,333.621 551.5,350C 550.906,350.464 550.239,350.631 549.5,350.5 Z"/></g>
<g><path style="opacity:1" fill="#3fc4fe" d="M 549.5,350.5 C 524.167,351.833 498.833,351.833 473.5,350.5C 498.832,349.19 524.165,349.19 549.5,350.5 Z"/></g>
<g><path style="opacity:1" fill="#20befe" d="M 489.5,382.5 C 483.5,382.5 477.5,382.5 471.5,382.5C 477.606,381.131 487.773,380.464 502,380.5C 507.833,380.667 513.667,380.833 519.5,381C 509.325,381.17 499.325,381.67 489.5,382.5 Z"/></g>
<g><path style="opacity:1" fill="#fefefe" d="M 471.5,382.5 C 477.5,382.5 483.5,382.5 489.5,382.5C 518.206,382.082 546.873,382.916 575.5,385C 601.222,422.761 623.889,462.427 643.5,504C 626.147,542.725 605.48,579.392 581.5,614C 534.88,619.665 488.214,619.999 441.5,615C 417.362,579.569 396.695,542.069 379.5,502.5C 399.12,461.912 421.287,422.912 446,385.5C 454.548,384.065 463.048,383.065 471.5,382.5 Z"/></g>
<g><path style="opacity:1" fill="#fdfefe" d="M 399.5,388.5 C 401.288,388.215 402.955,388.548 404.5,389.5C 389.034,414.763 374.867,440.763 362,467.5C 352.991,445.147 344.825,422.48 337.5,399.5C 358.106,394.734 378.772,391.067 399.5,388.5 Z"/></g>
<g><path style="opacity:1" fill="#fdfefe" d="M 616.5,388.5 C 616.735,387.903 617.235,387.57 618,387.5C 640.588,390.655 663.088,394.322 685.5,398.5C 678.617,421.649 670.451,444.316 661,466.5C 647.91,439.298 633.077,413.298 616.5,388.5 Z"/></g>
<g><path style="opacity:1" fill="#fefefe" d="M 301.5,407.5 C 302.833,407.5 304.167,407.5 305.5,407.5C 315.311,440.791 327.645,473.124 342.5,504.5C 329.382,532.732 317.382,561.399 306.5,590.5C 273.632,581.16 242.632,567.66 213.5,550C 198.233,540.734 186.4,528.234 178,512.5C 172.509,498.284 174.176,484.95 183,472.5C 198.695,454.483 217.528,440.649 239.5,431C 259.848,422.055 280.515,414.221 301.5,407.5 Z"/></g>
<g><path style="opacity:1" fill="#fefefe" d="M 716.5,407.5 C 756.905,416.562 793.571,433.395 826.5,458C 855.025,485.499 854.358,512.499 824.5,539C 791.414,563.371 754.748,580.538 714.5,590.5C 711.042,577.959 706.875,565.626 702,553.5C 694.968,536.733 688.134,519.9 681.5,503C 688.996,484.514 696.496,466.014 704,447.5C 709.08,434.427 713.247,421.094 716.5,407.5 Z"/></g>
<g><path style="opacity:1" fill="#41c9fe" d="M 505.5,430.5 C 549.4,431.9 574.067,454.4 579.5,498C 577.828,534.369 559.495,557.369 524.5,567C 489.727,571.199 464.56,557.699 449,526.5C 437.329,491.519 446.162,463.019 475.5,441C 485.035,435.768 495.035,432.268 505.5,430.5 Z"/></g>
<g><path style="opacity:1" fill="#fcfefe" d="M 360.5,541.5 C 367.849,554.519 375.016,567.852 382,581.5C 387.248,590.998 392.748,600.331 398.5,609.5C 398.333,609.833 398.167,610.167 398,610.5C 378.464,607.16 358.964,603.493 339.5,599.5C 345.926,579.977 352.926,560.643 360.5,541.5 Z"/></g>
<g><path style="opacity:1" fill="#fdfefe" d="M 660.5,542.5 C 662.284,543.574 663.451,545.24 664,547.5C 670.991,564.305 677.491,581.305 683.5,598.5C 663.766,603.814 643.766,607.647 623.5,610C 637.001,588.167 649.334,565.667 660.5,542.5 Z"/></g>
<g><path style="opacity:1" fill="#fefefe" d="M 329.5,629.5 C 359.81,636.774 390.477,642.107 421.5,645.5C 441.228,675.402 463.061,703.736 487,730.5C 487.667,731.167 487.667,731.833 487,732.5C 456.625,763.94 421.125,787.773 380.5,804C 345.408,816.205 324.575,804.038 318,767.5C 312.483,731.273 313.816,695.273 322,659.5C 324.191,649.401 326.691,639.401 329.5,629.5 Z"/></g>
<g><path style="opacity:1" fill="#fefefe" d="M 690.5,629.5 C 691.75,629.577 692.583,630.244 693,631.5C 705.886,671.917 710.552,713.25 707,755.5C 705.498,768.176 701.832,780.176 696,791.5C 686.084,805.697 672.584,810.864 655.5,807C 637.727,803.114 621.061,796.447 605.5,787C 580.119,770.961 556.452,752.628 534.5,732C 558.17,704.006 580.67,675.173 602,645.5C 619.172,643.094 636.339,640.594 653.5,638C 666.173,636.102 678.506,633.269 690.5,629.5 Z"/></g>
<g><path style="opacity:1" fill="#fdfefe" d="M 556.5,648.5 C 558.028,648.517 558.528,649.184 558,650.5C 543.866,670.415 528.533,689.415 512,707.5C 494.657,689.499 478.824,670.332 464.5,650C 477.824,649.966 491.158,650.133 504.5,650.5C 522.016,650.444 539.349,649.777 556.5,648.5 Z"/></g>
</svg>
