<?xml version="1.0" encoding="UTF-8"?>
<!DOCTYPE svg PUBLIC "-//W3C//DTD SVG 1.1//EN" "http://www.w3.org/Graphics/SVG/1.1/DTD/svg11.dtd">
<svg xmlns="http://www.w3.org/2000/svg" version="1.1" width="1024px" height="1024px" style="shape-rendering:geometricPrecision; text-rendering:geometricPrecision; image-rendering:optimizeQuality; fill-rule:evenodd; clip-rule:evenodd" xmlns:xlink="http://www.w3.org/1999/xlink">
<g><path style="opacity:1" fill="#fcfcfc" d="M -0.5,-0.5 C 340.833,-0.5 682.167,-0.5 1023.5,-0.5C 1023.5,340.833 1023.5,682.167 1023.5,1023.5C 682.167,1023.5 340.833,1023.5 -0.5,1023.5C -0.5,682.167 -0.5,340.833 -0.5,-0.5 Z"/></g>
<g><path style="opacity:1" fill="#23acd2" d="M 721.5,401.5 C 721.716,402.585 724.883,402.918 731,402.5C 747.027,403.119 761.86,399.285 775.5,391C 775.272,390.601 774.938,390.435 774.5,390.5C 779.939,387.272 785.273,383.772 790.5,380C 795.5,375 800.5,370 805.5,365C 806.448,364.517 807.448,364.351 808.5,364.5C 789.726,415.777 755.059,451.943 704.5,473C 661.061,486.855 619.061,483.521 578.5,463C 571.324,458.245 564.324,453.245 557.5,448C 546.167,437.333 534.833,426.667 523.5,416C 487.871,385.23 448.871,380.23 406.5,401C 393.303,408.528 382.303,418.528 373.5,431C 372.551,431.617 371.718,431.451 371,430.5C 370.333,428.833 370.333,427.167 371,425.5C 388.885,389.943 413.718,360.11 445.5,336C 498.211,304.609 552.211,302.276 607.5,329C 612.833,332.333 618.167,335.667 623.5,339C 637.43,350.26 650.763,362.26 663.5,375C 680.27,389.553 699.603,398.387 721.5,401.5 Z"/></g>
<g><path style="opacity:1" fill="#1c9fcb" d="M 774.5,390.5 C 774.938,390.435 775.272,390.601 775.5,391C 761.86,399.285 747.027,403.119 731,402.5C 724.883,402.918 721.716,402.585 721.5,401.5C 740.251,402.817 757.918,399.15 774.5,390.5 Z"/></g>
<g><path style="opacity:1" fill="#22acd2" d="M 558.5,585.5 C 584.267,591.773 609.267,587.939 633.5,574C 638.772,571.209 643.438,567.709 647.5,563.5C 655.486,556.513 662.819,548.846 669.5,540.5C 670.689,539.571 672.022,539.238 673.5,539.5C 673.52,544.134 672.354,548.467 670,552.5C 648.651,590.365 620.484,622.198 585.5,648C 547.734,670.681 507.4,676.681 464.5,666C 438.398,659.616 415.064,647.949 394.5,631C 377.774,613.605 360.44,596.938 342.5,581C 313.672,560.017 282.339,555.35 248.5,567C 232.226,574.598 218.226,585.264 206.5,599C 205.552,599.483 204.552,599.649 203.5,599.5C 203.818,594.183 205.318,589.183 208,584.5C 225.459,551.374 249.625,524.208 280.5,503C 298.909,491.808 318.909,485.141 340.5,483C 382.455,478.327 420.121,488.66 453.5,514C 468.689,527.433 483.689,541.1 498.5,555C 516.233,569.7 536.233,579.866 558.5,585.5 Z"/></g>
<g><path style="opacity:1" fill="#1c9fcb" d="M 647.5,563.5 C 643.438,567.709 638.772,571.209 633.5,574C 609.267,587.939 584.267,591.773 558.5,585.5C 591.302,590.549 620.968,583.216 647.5,563.5 Z"/></g>
</svg>
