<?xml version="1.0" encoding="UTF-8"?>
<!DOCTYPE svg PUBLIC "-//W3C//DTD SVG 1.1//EN" "http://www.w3.org/Graphics/SVG/1.1/DTD/svg11.dtd">
<svg xmlns="http://www.w3.org/2000/svg" version="1.1" width="1024px" height="1024px" style="shape-rendering:geometricPrecision; text-rendering:geometricPrecision; image-rendering:optimizeQuality; fill-rule:evenodd; clip-rule:evenodd" xmlns:xlink="http://www.w3.org/1999/xlink">
<g><path style="opacity:1" fill="#fafafa" d="M -0.5,-0.5 C 340.833,-0.5 682.167,-0.5 1023.5,-0.5C 1023.5,340.833 1023.5,682.167 1023.5,1023.5C 682.167,1023.5 340.833,1023.5 -0.5,1023.5C -0.5,682.167 -0.5,340.833 -0.5,-0.5 Z"/></g>
<g><path style="opacity:1" fill="#0064ca" d="M 271.5,265.5 C 432.5,265.333 593.5,265.5 754.5,266C 755.056,266.383 755.389,266.883 755.5,267.5C 755.062,268.506 754.396,268.506 753.5,267.5C 592.833,266.833 432.167,266.167 271.5,265.5 Z"/></g>
<g><path style="opacity:1" fill="#0975d0" d="M 269.5,266.5 C 269.842,265.662 270.508,265.328 271.5,265.5C 432.167,266.167 592.833,266.833 753.5,267.5C 592.361,267.759 431.361,267.759 270.5,267.5C 270.5,266.833 270.167,266.5 269.5,266.5 Z"/></g>
<g><path style="opacity:1" fill="#0058c6" d="M 269.5,266.5 C 270.167,266.5 270.5,266.833 270.5,267.5C 269.883,267.611 269.383,267.944 269,268.5C 268.5,425.833 268.333,583.166 268.5,740.5C 267.334,583.001 267.167,425.334 268,267.5C 268.383,266.944 268.883,266.611 269.5,266.5 Z"/></g>
<g><path style="opacity:1" fill="#157cd0" d="M 270.5,267.5 C 431.361,267.759 592.361,267.759 753.5,267.5C 754.396,268.506 755.062,268.506 755.5,267.5C 756.338,267.842 756.672,268.508 756.5,269.5C 755.832,426.373 755.165,583.373 754.5,740.5C 754.624,741.107 754.957,741.44 755.5,741.5C 755.082,742.222 754.416,742.722 753.5,743C 592.167,743.667 430.833,743.667 269.5,743C 268.748,742.329 268.414,741.496 268.5,740.5C 268.333,583.166 268.5,425.833 269,268.5C 269.383,267.944 269.883,267.611 270.5,267.5 Z"/></g>
<g><path style="opacity:1" fill="#1568cc" d="M 649.5,523.5 C 643.702,523.559 637.702,523.725 631.5,524C 619.396,527.259 613.73,535.092 614.5,547.5C 613.399,531.748 620.899,523.082 637,521.5C 641.21,522.03 645.377,522.696 649.5,523.5 Z"/></g>
<g><path style="opacity:1" fill="#fefefe" d="M 482.5,526.5 C 482.5,584.5 482.5,642.5 482.5,700.5C 467.167,700.5 451.833,700.5 436.5,700.5C 436.5,642.5 436.5,584.5 436.5,526.5C 415.34,525.503 394.007,525.169 372.5,525.5C 372.5,512.167 372.5,498.833 372.5,485.5C 429.5,485.5 486.5,485.5 543.5,485.5C 543.5,498.833 543.5,512.167 543.5,525.5C 522.993,525.17 502.66,525.503 482.5,526.5 Z"/></g>
<g><path style="opacity:1" fill="#fdfefe" d="M 649.5,523.5 C 645.377,522.696 641.21,522.03 637,521.5C 620.899,523.082 613.399,531.748 614.5,547.5C 617.258,554.759 622.258,559.926 629.5,563C 641.246,567.471 652.913,572.138 664.5,577C 679.887,582.74 692.72,591.906 703,604.5C 718.266,628.169 718.266,651.836 703,675.5C 690.338,690.914 674.171,700.247 654.5,703.5C 642.833,704.833 631.167,704.833 619.5,703.5C 591.571,698.702 570.238,684.202 555.5,660C 567.12,651.593 579.453,644.093 592.5,637.5C 599.072,648.739 608.405,656.739 620.5,661.5C 629.697,664.15 639.031,664.817 648.5,663.5C 664.131,658.92 669.964,648.587 666,632.5C 661.221,623.675 654.055,617.508 644.5,614C 626.069,608.702 608.736,601.202 592.5,591.5C 586.13,585.297 580.297,578.631 575,571.5C 571.744,566.228 569.577,560.562 568.5,554.5C 564.963,521.732 578.297,498.898 608.5,486C 645.52,474.566 676.686,483.4 702,512.5C 702.982,513.759 703.315,515.092 703,516.5C 691.333,524.167 679.667,531.833 668,539.5C 663.192,532.521 657.025,527.187 649.5,523.5 Z"/></g>
<g><path style="opacity:1" fill="#005eca" d="M 436.5,526.5 C 436.5,584.5 436.5,642.5 436.5,700.5C 435.501,643.002 435.168,585.336 435.5,527.5C 414.497,527.667 393.497,527.5 372.5,527C 393.831,526.5 415.164,526.333 436.5,526.5 Z"/></g>
<g><path style="opacity:1" fill="#1a69cd" d="M 568.5,554.5 C 569.577,560.562 571.744,566.228 575,571.5C 580.297,578.631 586.13,585.297 592.5,591.5C 580.729,583.641 572.563,572.974 568,559.5C 567.22,557.613 567.387,555.946 568.5,554.5 Z"/></g>
<g><path style="opacity:1" fill="#005fca" d="M 756.5,269.5 C 756.832,426.903 756.498,584.237 755.5,741.5C 754.957,741.44 754.624,741.107 754.5,740.5C 755.165,583.373 755.832,426.373 756.5,269.5 Z"/></g>
<g><path style="opacity:1" fill="#0154c7" d="M 482.5,526.5 C 502.836,526.333 523.169,526.5 543.5,527C 523.503,527.5 503.503,527.667 483.5,527.5C 483.5,585.5 483.5,643.5 483.5,701.5C 467.658,701.83 451.991,701.496 436.5,700.5C 451.833,700.5 467.167,700.5 482.5,700.5C 482.5,642.5 482.5,584.5 482.5,526.5 Z"/></g>
<g><path style="opacity:1" fill="#0b62c9" d="M 620.5,661.5 C 620.735,660.903 621.235,660.57 622,660.5C 630.929,662.616 639.763,663.616 648.5,663.5C 639.031,664.817 629.697,664.15 620.5,661.5 Z"/></g>
<g><path style="opacity:1" fill="#0b5bca" d="M 619.5,703.5 C 631.167,704.833 642.833,704.833 654.5,703.5C 654.07,704.421 652.736,704.921 650.5,705C 639.456,705.85 628.456,705.517 617.5,704C 618.094,703.536 618.761,703.369 619.5,703.5 Z"/></g>
</svg>
