<?xml version="1.0" encoding="UTF-8"?>
<!DOCTYPE svg PUBLIC "-//W3C//DTD SVG 1.1//EN" "http://www.w3.org/Graphics/SVG/1.1/DTD/svg11.dtd">
<svg xmlns="http://www.w3.org/2000/svg" version="1.1" width="1024px" height="1024px" style="shape-rendering:geometricPrecision; text-rendering:geometricPrecision; image-rendering:optimizeQuality; fill-rule:evenodd; clip-rule:evenodd" xmlns:xlink="http://www.w3.org/1999/xlink">
<g><path style="opacity:1" fill="#fbfbfb" d="M -0.5,-0.5 C 340.833,-0.5 682.167,-0.5 1023.5,-0.5C 1023.5,340.833 1023.5,682.167 1023.5,1023.5C 682.167,1023.5 340.833,1023.5 -0.5,1023.5C -0.5,682.167 -0.5,340.833 -0.5,-0.5 Z"/></g>
<g><path style="opacity:1" fill="#f8e517" d="M 586.5,287.5 C 585.778,287.082 585.278,286.416 585,285.5C 584.667,285.833 584.333,286.167 584,286.5C 582.837,282.787 581.337,282.787 579.5,286.5C 577.216,285.584 576.049,286.584 576,289.5C 574.635,285.777 572.968,285.777 571,289.5C 570.667,288.833 570.333,288.167 570,287.5C 569.033,288.678 568.533,290.011 568.5,291.5C 567.833,291.167 567.167,290.833 566.5,290.5C 556.281,298.369 545.947,305.369 535.5,311.5C 532.129,315.162 528.462,317.662 524.5,319C 520.838,322.129 517.505,325.629 514.5,329.5C 513.575,330.641 512.741,330.641 512,329.5C 510.018,333.146 507.351,336.146 504,338.5C 502.367,341.374 499.701,344.04 496,346.5C 495.25,345.874 494.416,345.374 493.5,345C 495.5,344 497.5,343 499.5,342C 499.619,340.719 499.119,339.552 498,338.5C 497.779,341.943 496.779,342.276 495,339.5C 486.298,349.709 477.131,358.709 467.5,366.5C 479.527,354.14 491.527,341.807 503.5,329.5C 509.252,324.858 514.752,319.858 520,314.5C 546.282,287.429 572.448,260.263 598.5,233C 602.6,230.564 605.267,231.73 606.5,236.5C 600.217,253.687 593.551,270.687 586.5,287.5 Z"/></g>
<g><path style="opacity:1" fill="#83a7fe" d="M 760.5,321.5 C 758.813,322.726 757.313,322.392 756,320.5C 754.739,320.759 753.739,321.426 753,322.5C 750.833,321 751,319.833 753.5,319C 750.164,317.721 747.164,315.887 744.5,313.5C 742.471,314.629 742.137,314.129 743.5,312C 742.747,310.513 741.914,310.346 741,311.5C 740.374,309.009 739.541,309.009 738.5,311.5C 736.735,309.358 734.235,308.024 731,307.5C 730.667,308.167 730.333,308.833 730,309.5C 728.667,307.833 727.333,306.167 726,304.5C 724.732,304.616 723.398,304.949 722,305.5C 721.517,304.552 721.351,303.552 721.5,302.5C 720.178,302.33 719.011,302.663 718,303.5C 716.881,302.448 716.381,301.281 716.5,300C 715.5,299.5 714.5,299 713.5,298.5C 712.232,299.428 710.899,299.595 709.5,299C 709.833,298.667 710.167,298.333 710.5,298C 707.592,297.311 704.925,296.145 702.5,294.5C 701.833,294.833 701.167,295.167 700.5,295.5C 699.304,295.154 699.304,294.654 700.5,294C 699.5,293.667 698.5,293.333 697.5,293C 701.773,291.97 706.106,291.303 710.5,291C 709.944,290.617 709.611,290.117 709.5,289.5C 726.378,287.494 743.211,285.16 760,282.5C 767.72,282.935 772.22,286.935 773.5,294.5C 770.408,304.211 766.075,313.211 760.5,321.5 Z"/></g>
<g><path style="opacity:1" fill="#8c9afe" d="M 709.5,289.5 C 709.611,290.117 709.944,290.617 710.5,291C 706.106,291.303 701.773,291.97 697.5,293C 698.5,293.333 699.5,293.667 700.5,294C 699.304,294.654 699.304,295.154 700.5,295.5C 701.167,295.167 701.833,294.833 702.5,294.5C 704.925,296.145 707.592,297.311 710.5,298C 710.167,298.333 709.833,298.667 709.5,299C 710.899,299.595 712.232,299.428 713.5,298.5C 714.5,299 715.5,299.5 716.5,300C 716.381,301.281 716.881,302.448 718,303.5C 719.011,302.663 720.178,302.33 721.5,302.5C 721.351,303.552 721.517,304.552 722,305.5C 723.398,304.949 724.732,304.616 726,304.5C 727.333,306.167 728.667,307.833 730,309.5C 730.333,308.833 730.667,308.167 731,307.5C 734.235,308.024 736.735,309.358 738.5,311.5C 739.541,309.009 740.374,309.009 741,311.5C 741.914,310.346 742.747,310.513 743.5,312C 742.137,314.129 742.471,314.629 744.5,313.5C 747.164,315.887 750.164,317.721 753.5,319C 751,319.833 750.833,321 753,322.5C 753.739,321.426 754.739,320.759 756,320.5C 757.313,322.392 758.813,322.726 760.5,321.5C 757.675,328.484 754.341,335.151 750.5,341.5C 749.293,342.189 747.959,342.355 746.5,342C 747.654,342.914 747.487,343.747 746,344.5C 745.026,342.122 744.359,342.456 744,345.5C 743.15,344.576 742.15,344.576 741,345.5C 739.274,344.352 739.441,343.185 741.5,342C 739.236,342.698 737.403,342.198 736,340.5C 735.586,340.957 735.086,341.291 734.5,341.5C 733.41,340.273 732.076,339.44 730.5,339C 731.167,338.667 731.833,338.333 732.5,338C 727.935,337.634 724.102,335.801 721,332.5C 720.333,335.167 719.667,335.167 719,332.5C 718.333,335.167 717.667,335.167 717,332.5C 716.667,332.833 716.333,333.167 716,333.5C 716.75,328.947 715.083,328.281 711,331.5C 709.96,327.708 708.127,327.042 705.5,329.5C 704.808,328.975 704.308,328.308 704,327.5C 702.951,328.517 701.784,328.684 700.5,328C 703.167,327.333 703.167,326.667 700.5,326C 700.833,325.667 701.167,325.333 701.5,325C 699.77,323.148 698.604,323.314 698,325.5C 697.667,324.5 697.333,323.5 697,322.5C 695.853,323.458 694.853,323.125 694,321.5C 694,322.833 694,324.167 694,325.5C 692.664,322.666 690.497,320.666 687.5,319.5C 686.029,320.381 685.196,321.714 685,323.5C 684.667,322.5 684.333,321.5 684,320.5C 682.806,321.43 681.473,322.097 680,322.5C 679.684,321.366 678.851,320.366 677.5,319.5C 676.353,319.818 675.519,320.484 675,321.5C 674.097,320.299 672.931,319.465 671.5,319C 672.654,318.086 672.487,317.253 671,316.5C 670.667,317.833 670.333,319.167 670,320.5C 668.333,315.5 666,315.167 663,319.5C 662.25,318.874 661.416,318.374 660.5,318C 661.34,316.334 660.84,316.167 659,317.5C 657.068,315.962 654.901,314.795 652.5,314C 652.833,313.667 653.167,313.333 653.5,313C 651.939,312.682 650.772,311.849 650,310.5C 648.863,311.364 647.53,312.364 646,313.5C 644.174,311.926 642.007,311.093 639.5,311C 639.957,310.586 640.291,310.086 640.5,309.5C 639.204,307.664 638.37,305.664 638,303.5C 635.797,303.761 633.63,303.261 631.5,302C 635.636,300.313 639.97,299.647 644.5,300C 645.727,301.587 645.394,302.921 643.5,304C 644,304.5 644.5,305 645,305.5C 646.117,304.051 646.784,302.384 647,300.5C 648.719,299.131 650.552,298.131 652.5,297.5C 671.308,294.111 690.308,291.445 709.5,289.5 Z"/></g>
<g><path style="opacity:1" fill="#946dfe" d="M 453.5,331.5 C 453.15,333.192 452.15,335.025 450.5,337C 448.837,337.265 447.337,336.765 446,335.5C 445.517,336.448 445.351,337.448 445.5,338.5C 446.978,338.238 448.311,338.571 449.5,339.5C 449.333,339.833 449.167,340.167 449,340.5C 447.644,339.62 446.144,339.286 444.5,339.5C 443.458,335.66 442.458,335.826 441.5,340C 442.683,341.052 443.183,342.552 443,344.5C 442.029,345.198 440.863,345.198 439.5,344.5C 437.912,345.01 436.745,346.01 436,347.5C 435.667,347.167 435.333,346.833 435,346.5C 434.251,347.635 434.417,348.635 435.5,349.5C 436.396,348.494 437.062,348.494 437.5,349.5C 435.704,350.141 434.204,351.141 433,352.5C 432.035,350.74 430.868,350.406 429.5,351.5C 430.025,352.192 430.692,352.692 431.5,353C 429.729,355.113 428.229,354.947 427,352.5C 426.051,355.355 424.384,357.689 422,359.5C 420.691,357.109 419.691,357.109 419,359.5C 418.586,359.043 418.086,358.709 417.5,358.5C 415.047,361.416 412.547,361.749 410,359.5C 408.148,361.23 408.314,362.396 410.5,363C 409.567,365.848 408.067,366.014 406,363.5C 405.333,359.5 404.667,359.5 404,363.5C 403.586,363.043 403.086,362.709 402.5,362.5C 401.527,365.567 399.694,366.567 397,365.5C 396.5,366.667 395.667,367.5 394.5,368C 395.833,369.84 395.666,370.34 394,369.5C 393.333,372.167 392.667,372.167 392,369.5C 389.471,372.315 386.804,372.649 384,370.5C 383.74,372.618 382.74,374.284 381,375.5C 380.333,374.833 379.667,374.167 379,373.5C 377.659,376.187 375.993,377.853 374,378.5C 372.004,378.004 370.337,377.004 369,375.5C 367.324,376.061 365.991,377.061 365,378.5C 364.667,378.167 364.333,377.833 364,377.5C 360.845,379.212 359.178,381.879 359,385.5C 358.667,383.5 358.333,381.5 358,379.5C 357.094,381.985 355.261,384.319 352.5,386.5C 352.004,381.502 349.337,379.669 344.5,381C 346.301,381.317 346.634,381.984 345.5,383C 346,383.5 346.5,384 347,384.5C 347.249,383.376 347.749,382.376 348.5,381.5C 348.833,381.667 349.167,381.833 349.5,382C 348.359,382.741 348.359,383.575 349.5,384.5C 348.271,385.281 346.938,385.781 345.5,386C 346.833,386.667 346.833,387.333 345.5,388C 344.584,388.374 343.75,388.874 343,389.5C 341.738,387.697 340.071,386.364 338,385.5C 335.34,386.834 332.506,387.668 329.5,388C 329.833,388.333 330.167,388.667 330.5,389C 328.996,390.491 328.163,392.324 328,394.5C 327.5,394 327,393.5 326.5,393C 327.463,388.673 326.463,388.34 323.5,392C 323.759,393.261 324.426,394.261 325.5,395C 323.925,394.621 322.425,394.788 321,395.5C 318.827,392.723 318.327,392.89 319.5,396C 317.721,395.021 316.055,395.354 314.5,397C 314.966,398.299 314.966,399.799 314.5,401.5C 312.167,401.5 309.833,401.5 307.5,401.5C 307.404,405.311 306.738,405.311 305.5,401.5C 305.167,401.833 304.833,402.167 304.5,402.5C 306.453,406.069 308.119,409.736 309.5,413.5C 299.342,395.186 289.675,376.52 280.5,357.5C 280.461,356.417 280.127,355.417 279.5,354.5C 280.651,353.269 281.817,353.269 283,354.5C 283.367,350.719 284.7,350.052 287,352.5C 288.848,350.982 290.348,349.149 291.5,347C 292.449,346.383 293.282,346.549 294,347.5C 293.383,345.905 293.716,344.572 295,343.5C 295.333,344.167 295.667,344.833 296,345.5C 296.908,343.561 298.408,342.561 300.5,342.5C 300.351,341.448 300.517,340.448 301,339.5C 301.219,340.938 301.719,342.271 302.5,343.5C 303.883,340.924 304.717,341.258 305,344.5C 305.84,341.536 306.84,341.203 308,343.5C 308.748,341.668 309.748,340.001 311,338.5C 311.333,338.833 311.667,339.167 312,339.5C 312.308,338.692 312.808,338.025 313.5,337.5C 314.609,338.59 315.609,338.59 316.5,337.5C 315.17,334.151 315.67,333.818 318,336.5C 318.915,335.672 319.581,334.672 320,333.5C 321,333.833 322,334.167 323,334.5C 323.617,333.551 323.451,332.718 322.5,332C 323.849,331.228 324.682,330.061 325,328.5C 325.333,329.833 325.667,331.167 326,332.5C 327.067,331.809 328.234,331.309 329.5,331C 328.044,330.577 327.544,329.744 328,328.5C 329.84,329.833 330.34,329.666 329.5,328C 331.899,327.269 334.065,326.102 336,324.5C 336.507,325.996 336.007,327.163 334.5,328C 335.167,328.667 335.833,328.667 336.5,328C 337.211,326.745 338.044,325.579 339,324.5C 339.333,324.833 339.667,325.167 340,325.5C 340.815,323.377 341.815,321.377 343,319.5C 343.667,320.833 344.333,320.833 345,319.5C 345.333,320.167 345.667,320.833 346,321.5C 347.608,318.228 349.608,315.228 352,312.5C 352.249,313.624 352.749,314.624 353.5,315.5C 353.833,315.333 354.167,315.167 354.5,315C 352.337,312.557 352.17,310.057 354,307.5C 355.518,307.057 356.685,307.724 357.5,309.5C 359.047,308.232 360.047,306.565 360.5,304.5C 358.009,303.459 358.009,302.626 360.5,302C 357.972,301.331 357.972,300.498 360.5,299.5C 361.327,301.162 362.493,302.495 364,303.5C 365.688,302.675 365.855,301.675 364.5,300.5C 365.328,299.585 366.328,298.919 367.5,298.5C 367.618,300.083 368.451,301.749 370,303.5C 370.617,302.551 370.451,301.718 369.5,301C 370.5,300.667 371.5,300.333 372.5,300C 371.304,299.346 371.304,298.846 372.5,298.5C 373.598,302.361 374.431,302.361 375,298.5C 377.289,297.978 379.456,298.645 381.5,300.5C 383.914,298.253 386.58,297.92 389.5,299.5C 392.807,298.25 396.307,297.584 400,297.5C 403.167,297.667 406.333,297.833 409.5,298C 405.5,298.333 401.5,298.667 397.5,299C 402,299.5 406.5,300 411,300.5C 412.133,298.789 413.633,298.289 415.5,299C 414.833,299.333 414.167,299.667 413.5,300C 415.608,300.36 417.608,301.027 419.5,302C 418.304,302.654 418.304,303.154 419.5,303.5C 421.028,302.139 422.695,300.972 424.5,300C 424.167,299.667 423.833,299.333 423.5,299C 441.833,298.333 460.167,298.333 478.5,299C 470.812,299.169 463.145,299.669 455.5,300.5C 457.998,302.814 460.998,303.98 464.5,304C 464.167,304.333 463.833,304.667 463.5,305C 464.357,305.689 465.023,306.522 465.5,307.5C 464.313,307.554 462.98,307.887 461.5,308.5C 462.441,308.489 463.108,308.989 463.5,310C 461.978,312.238 460.645,314.572 459.5,317C 460.345,318.558 459.679,319.558 457.5,320C 457.833,320.333 458.167,320.667 458.5,321C 455.218,324.049 453.551,327.549 453.5,331.5 Z"/></g>
<g><path style="opacity:1" fill="#9d67fe" d="M 481.5,299.5 C 481.023,302.021 479.856,304.688 478,307.5C 472.81,315.232 467.644,322.899 462.5,330.5C 462.19,329.262 461.69,329.262 461,330.5C 459.667,332.5 458.333,334.5 457,336.5C 455.374,335.045 454.208,333.378 453.5,331.5C 453.551,327.549 455.218,324.049 458.5,321C 458.167,320.667 457.833,320.333 457.5,320C 459.679,319.558 460.345,318.558 459.5,317C 460.645,314.572 461.978,312.238 463.5,310C 463.108,308.989 462.441,308.489 461.5,308.5C 462.98,307.887 464.313,307.554 465.5,307.5C 465.023,306.522 464.357,305.689 463.5,305C 463.833,304.667 464.167,304.333 464.5,304C 460.998,303.98 457.998,302.814 455.5,300.5C 463.145,299.669 470.812,299.169 478.5,299C 460.167,298.333 441.833,298.333 423.5,299C 423.833,299.333 424.167,299.667 424.5,300C 422.695,300.972 421.028,302.139 419.5,303.5C 418.304,303.154 418.304,302.654 419.5,302C 417.608,301.027 415.608,300.36 413.5,300C 414.167,299.667 414.833,299.333 415.5,299C 413.633,298.289 412.133,298.789 411,300.5C 406.5,300 402,299.5 397.5,299C 401.5,298.667 405.5,298.333 409.5,298C 406.333,297.833 403.167,297.667 400,297.5C 396.307,297.584 392.807,298.25 389.5,299.5C 386.58,297.92 383.914,298.253 381.5,300.5C 379.456,298.645 377.289,297.978 375,298.5C 374.431,302.361 373.598,302.361 372.5,298.5C 371.304,298.846 371.304,299.346 372.5,300C 371.5,300.333 370.5,300.667 369.5,301C 370.451,301.718 370.617,302.551 370,303.5C 368.451,301.749 367.618,300.083 367.5,298.5C 366.328,298.919 365.328,299.585 364.5,300.5C 365.855,301.675 365.688,302.675 364,303.5C 362.493,302.495 361.327,301.162 360.5,299.5C 357.972,300.498 357.972,301.331 360.5,302C 358.009,302.626 358.009,303.459 360.5,304.5C 360.047,306.565 359.047,308.232 357.5,309.5C 356.685,307.724 355.518,307.057 354,307.5C 352.17,310.057 352.337,312.557 354.5,315C 354.167,315.167 353.833,315.333 353.5,315.5C 352.749,314.624 352.249,313.624 352,312.5C 349.608,315.228 347.608,318.228 346,321.5C 345.667,320.833 345.333,320.167 345,319.5C 344.333,320.833 343.667,320.833 343,319.5C 341.815,321.377 340.815,323.377 340,325.5C 339.667,325.167 339.333,324.833 339,324.5C 338.044,325.579 337.211,326.745 336.5,328C 335.833,328.667 335.167,328.667 334.5,328C 336.007,327.163 336.507,325.996 336,324.5C 334.065,326.102 331.899,327.269 329.5,328C 330.34,329.666 329.84,329.833 328,328.5C 327.544,329.744 328.044,330.577 329.5,331C 328.234,331.309 327.067,331.809 326,332.5C 325.667,331.167 325.333,329.833 325,328.5C 324.682,330.061 323.849,331.228 322.5,332C 323.451,332.718 323.617,333.551 323,334.5C 322,334.167 321,333.833 320,333.5C 319.581,334.672 318.915,335.672 318,336.5C 315.67,333.818 315.17,334.151 316.5,337.5C 315.609,338.59 314.609,338.59 313.5,337.5C 312.808,338.025 312.308,338.692 312,339.5C 311.667,339.167 311.333,338.833 311,338.5C 309.748,340.001 308.748,341.668 308,343.5C 306.84,341.203 305.84,341.536 305,344.5C 304.717,341.258 303.883,340.924 302.5,343.5C 301.719,342.271 301.219,340.938 301,339.5C 300.517,340.448 300.351,341.448 300.5,342.5C 298.408,342.561 296.908,343.561 296,345.5C 295.667,344.833 295.333,344.167 295,343.5C 293.716,344.572 293.383,345.905 294,347.5C 293.282,346.549 292.449,346.383 291.5,347C 290.348,349.149 288.848,350.982 287,352.5C 284.7,350.052 283.367,350.719 283,354.5C 281.817,353.269 280.651,353.269 279.5,354.5C 280.127,355.417 280.461,356.417 280.5,357.5C 269.566,337.966 259.399,317.966 250,297.5C 249.174,291.985 251.341,288.152 256.5,286C 304.131,289.464 351.798,292.798 399.5,296C 426.157,297.012 452.824,297.679 479.5,298C 480.416,298.278 481.082,298.778 481.5,299.5 Z"/></g>
<g><path style="opacity:1" fill="#9092fe" d="M 652.5,297.5 C 650.552,298.131 648.719,299.131 647,300.5C 646.784,302.384 646.117,304.051 645,305.5C 644.5,305 644,304.5 643.5,304C 645.394,302.921 645.727,301.587 644.5,300C 639.97,299.647 635.636,300.313 631.5,302C 633.63,303.261 635.797,303.761 638,303.5C 638.37,305.664 639.204,307.664 640.5,309.5C 640.291,310.086 639.957,310.586 639.5,311C 642.007,311.093 644.174,311.926 646,313.5C 647.53,312.364 648.863,311.364 650,310.5C 650.772,311.849 651.939,312.682 653.5,313C 653.167,313.333 652.833,313.667 652.5,314C 654.901,314.795 657.068,315.962 659,317.5C 660.84,316.167 661.34,316.334 660.5,318C 661.416,318.374 662.25,318.874 663,319.5C 666,315.167 668.333,315.5 670,320.5C 670.333,319.167 670.667,317.833 671,316.5C 672.487,317.253 672.654,318.086 671.5,319C 672.931,319.465 674.097,320.299 675,321.5C 675.519,320.484 676.353,319.818 677.5,319.5C 678.851,320.366 679.684,321.366 680,322.5C 681.473,322.097 682.806,321.43 684,320.5C 684.333,321.5 684.667,322.5 685,323.5C 685.196,321.714 686.029,320.381 687.5,319.5C 690.497,320.666 692.664,322.666 694,325.5C 694,324.167 694,322.833 694,321.5C 694.853,323.125 695.853,323.458 697,322.5C 697.333,323.5 697.667,324.5 698,325.5C 698.604,323.314 699.77,323.148 701.5,325C 701.167,325.333 700.833,325.667 700.5,326C 703.167,326.667 703.167,327.333 700.5,328C 701.784,328.684 702.951,328.517 704,327.5C 704.308,328.308 704.808,328.975 705.5,329.5C 708.127,327.042 709.96,327.708 711,331.5C 715.083,328.281 716.75,328.947 716,333.5C 716.333,333.167 716.667,332.833 717,332.5C 717.667,335.167 718.333,335.167 719,332.5C 719.667,335.167 720.333,335.167 721,332.5C 724.102,335.801 727.935,337.634 732.5,338C 731.833,338.333 731.167,338.667 730.5,339C 732.076,339.44 733.41,340.273 734.5,341.5C 735.086,341.291 735.586,340.957 736,340.5C 737.403,342.198 739.236,342.698 741.5,342C 739.441,343.185 739.274,344.352 741,345.5C 742.15,344.576 743.15,344.576 744,345.5C 744.359,342.456 745.026,342.122 746,344.5C 747.487,343.747 747.654,342.914 746.5,342C 747.959,342.355 749.293,342.189 750.5,341.5C 748.674,346.484 746.341,351.151 743.5,355.5C 742.272,356.306 741.272,357.306 740.5,358.5C 739.811,357.226 738.977,357.226 738,358.5C 737.667,357.833 737.333,357.167 737,356.5C 735.883,356.665 734.716,356.998 733.5,357.5C 731.729,356.965 731.396,356.131 732.5,355C 730.331,356.114 728.498,355.614 727,353.5C 726.667,353.833 726.333,354.167 726,354.5C 724.51,352.442 722.51,351.109 720,350.5C 719.667,351.5 719.333,352.5 719,353.5C 718.333,351.5 717.667,349.5 717,347.5C 716,350.167 715,350.167 714,347.5C 713.667,348.167 713.333,348.833 713,349.5C 711.053,348.89 709.219,348.057 707.5,347C 709.901,346.195 709.734,345.362 707,344.5C 706.213,345.711 705.546,346.711 705,347.5C 703.527,347.097 702.194,346.43 701,345.5C 700.667,346.5 700.333,347.5 700,348.5C 699.097,347.299 697.931,346.465 696.5,346C 697.833,345.333 697.833,344.667 696.5,344C 695.216,343.316 694.049,343.483 693,344.5C 691.573,342.213 689.739,341.88 687.5,343.5C 686.141,341.308 684.308,339.641 682,338.5C 680.401,340.036 678.567,340.536 676.5,340C 676.833,339.667 677.167,339.333 677.5,339C 675.084,338.339 673.418,336.839 672.5,334.5C 670.041,338.586 667.208,338.253 664,333.5C 663,334.167 662,334.833 661,335.5C 658.134,333.269 655.467,330.936 653,328.5C 652.517,329.448 652.351,330.448 652.5,331.5C 649.442,331.288 646.942,329.955 645,327.5C 643.984,328.634 643.317,328.301 643,326.5C 640.747,326.631 638.581,326.965 636.5,327.5C 635.304,327.154 635.304,326.654 636.5,326C 634.112,325.697 631.945,324.863 630,323.5C 629.196,324.804 628.029,325.471 626.5,325.5C 624.481,324.52 622.647,323.186 621,321.5C 620.333,322.167 619.667,322.833 619,323.5C 616.886,322.047 615.552,320.047 615,317.5C 614.19,322.046 612.857,322.38 611,318.5C 609.992,318.982 608.825,319.148 607.5,319C 606.874,319.75 606.374,320.584 606,321.5C 605.601,321.272 605.435,320.938 605.5,320.5C 607.297,315.113 609.297,309.779 611.5,304.5C 612.376,303.749 613.376,303.249 614.5,303C 613.906,302.536 613.239,302.369 612.5,302.5C 625.619,300.193 638.952,298.527 652.5,297.5 Z"/></g>
<g><path style="opacity:1" fill="#4b3ee5" d="M 481.5,299.5 C 488.479,309.804 495.812,319.804 503.5,329.5C 491.527,341.807 479.527,354.14 467.5,366.5C 450.83,383.17 434.497,400.17 418.5,417.5C 411.222,425.114 403.889,432.78 396.5,440.5C 400.452,431.933 404.952,423.6 410,415.5C 428.012,387.474 445.512,359.14 462.5,330.5C 467.644,322.899 472.81,315.232 478,307.5C 479.856,304.688 481.023,302.021 481.5,299.5 Z"/></g>
<g><path style="opacity:1" fill="#8973fe" d="M 612.5,302.5 C 613.239,302.369 613.906,302.536 614.5,303C 613.376,303.249 612.376,303.749 611.5,304.5C 609.297,309.779 607.297,315.113 605.5,320.5C 603.5,324.5 601.5,328.5 599.5,332.5C 597.046,335.33 595.38,338.663 594.5,342.5C 592.659,343.23 590.825,343.897 589,344.5C 588.517,343.552 588.351,342.552 588.5,341.5C 584.764,341.34 584.764,340.507 588.5,339C 587.209,336.122 585.709,336.288 584,339.5C 582.542,338.253 581.042,338.253 579.5,339.5C 576.959,336.591 575.292,337.091 574.5,341C 574.833,341.333 575.167,341.667 575.5,342C 574.234,342.309 573.067,342.809 572,343.5C 571.667,342.5 571.333,341.5 571,340.5C 570,340.833 569,341.167 568,341.5C 569.198,335.736 571.031,330.069 573.5,324.5C 573.376,323.893 573.043,323.56 572.5,323.5C 574.463,317.924 576.796,312.591 579.5,307.5C 590.395,305.182 601.395,303.515 612.5,302.5 Z"/></g>
<g><path style="opacity:1" fill="#938cfe" d="M 740.5,358.5 C 738.008,364.818 735.008,370.818 731.5,376.5C 731.649,375.448 731.483,374.448 731,373.5C 730.333,372.167 729.667,372.167 729,373.5C 729.178,371.56 728.178,369.893 726,368.5C 724.413,369.727 723.079,369.394 722,367.5C 719.315,370.305 717.648,369.638 717,365.5C 715.887,366.711 714.72,366.711 713.5,365.5C 712.522,365.977 711.689,366.643 711,367.5C 710.333,366.167 709.667,364.833 709,363.5C 708,364.833 707,364.833 706,363.5C 705.667,364.167 705.333,364.833 705,365.5C 704.71,363.956 704.044,362.623 703,361.5C 700.593,361.673 698.26,361.673 696,361.5C 695.667,362.167 695.333,362.833 695,363.5C 694.316,362.216 694.483,361.049 695.5,360C 693.182,359.658 691.015,360.158 689,361.5C 687.565,359.789 685.731,358.622 683.5,358C 680.549,357.904 677.882,357.071 675.5,355.5C 672.674,356.871 671.174,355.871 671,352.5C 670.667,352.833 670.333,353.167 670,353.5C 669.311,352.643 668.478,351.977 667.5,351.5C 664.785,353.63 662.285,353.297 660,350.5C 658.062,351.86 656.396,351.527 655,349.5C 653.667,350.167 652.667,351.167 652,352.5C 650.71,350.208 649.043,348.208 647,346.5C 644.649,349.21 642.649,348.877 641,345.5C 640.667,346.167 640.333,346.833 640,347.5C 639.985,345.446 639.152,343.446 637.5,341.5C 636.108,342.605 634.941,343.939 634,345.5C 630.396,344.409 627.396,342.409 625,339.5C 624,340.833 623,340.833 622,339.5C 621.692,340.308 621.192,340.975 620.5,341.5C 620.693,340.312 620.193,338.978 619,337.5C 618.692,338.308 618.192,338.975 617.5,339.5C 616.667,338.5 615.833,337.5 615,336.5C 614.026,338.878 613.359,338.544 613,335.5C 612.035,337.26 610.868,337.594 609.5,336.5C 611.04,335.468 611.54,334.135 611,332.5C 608.992,333.012 607.826,334.346 607.5,336.5C 606.335,335.509 605.168,334.509 604,333.5C 603.055,333.905 602.388,334.572 602,335.5C 601.667,335.167 601.333,334.833 601,334.5C 600.041,338.168 598.541,340.835 596.5,342.5C 597.508,339.156 598.508,335.823 599.5,332.5C 601.5,328.5 603.5,324.5 605.5,320.5C 605.435,320.938 605.601,321.272 606,321.5C 606.374,320.584 606.874,319.75 607.5,319C 608.825,319.148 609.992,318.982 611,318.5C 612.857,322.38 614.19,322.046 615,317.5C 615.552,320.047 616.886,322.047 619,323.5C 619.667,322.833 620.333,322.167 621,321.5C 622.647,323.186 624.481,324.52 626.5,325.5C 628.029,325.471 629.196,324.804 630,323.5C 631.945,324.863 634.112,325.697 636.5,326C 635.304,326.654 635.304,327.154 636.5,327.5C 638.581,326.965 640.747,326.631 643,326.5C 643.317,328.301 643.984,328.634 645,327.5C 646.942,329.955 649.442,331.288 652.5,331.5C 652.351,330.448 652.517,329.448 653,328.5C 655.467,330.936 658.134,333.269 661,335.5C 662,334.833 663,334.167 664,333.5C 667.208,338.253 670.041,338.586 672.5,334.5C 673.418,336.839 675.084,338.339 677.5,339C 677.167,339.333 676.833,339.667 676.5,340C 678.567,340.536 680.401,340.036 682,338.5C 684.308,339.641 686.141,341.308 687.5,343.5C 689.739,341.88 691.573,342.213 693,344.5C 694.049,343.483 695.216,343.316 696.5,344C 697.833,344.667 697.833,345.333 696.5,346C 697.931,346.465 699.097,347.299 700,348.5C 700.333,347.5 700.667,346.5 701,345.5C 702.194,346.43 703.527,347.097 705,347.5C 705.546,346.711 706.213,345.711 707,344.5C 709.734,345.362 709.901,346.195 707.5,347C 709.219,348.057 711.053,348.89 713,349.5C 713.333,348.833 713.667,348.167 714,347.5C 715,350.167 716,350.167 717,347.5C 717.667,349.5 718.333,351.5 719,353.5C 719.333,352.5 719.667,351.5 720,350.5C 722.51,351.109 724.51,352.442 726,354.5C 726.333,354.167 726.667,353.833 727,353.5C 728.498,355.614 730.331,356.114 732.5,355C 731.396,356.131 731.729,356.965 733.5,357.5C 734.716,356.998 735.883,356.665 737,356.5C 737.333,357.167 737.667,357.833 738,358.5C 738.977,357.226 739.811,357.226 740.5,358.5 Z"/></g>
<g><path style="opacity:1" fill="#f5de32" d="M 586.5,287.5 C 583.769,294.028 581.435,300.694 579.5,307.5C 576.796,312.591 574.463,317.924 572.5,323.5C 562.89,347.055 553.556,370.721 544.5,394.5C 543.903,394.265 543.57,393.765 543.5,393C 544.842,389.985 546.175,386.985 547.5,384C 544.027,383.193 541.86,381.027 541,377.5C 540.5,378.667 539.667,379.5 538.5,380C 539.369,381.465 538.869,382.631 537,383.5C 536.5,383.333 536,383.167 535.5,383C 536.308,382.692 536.975,382.192 537.5,381.5C 536.726,380.289 535.893,380.289 535,381.5C 534.316,382.784 534.483,383.951 535.5,385C 535,385.5 534.5,386 534,386.5C 533.784,384.616 533.117,382.949 532,381.5C 531.383,382.449 531.549,383.282 532.5,384C 530.567,384.783 529.067,384.283 528,382.5C 526.513,383.253 526.346,384.086 527.5,385C 525.125,387.407 524.125,386.907 524.5,383.5C 523.127,383.657 521.793,383.49 520.5,383C 521.696,382.346 521.696,381.846 520.5,381.5C 518.98,382.85 518.313,384.183 518.5,385.5C 516.941,384.926 515.441,384.26 514,383.5C 512.853,384.458 511.853,384.125 511,382.5C 510.5,383.5 510,384.5 509.5,385.5C 506.867,386.54 504.534,387.373 502.5,388C 503.328,388.915 504.328,389.581 505.5,390C 504.251,391.824 503.085,391.657 502,389.5C 501.667,389.833 501.333,390.167 501,390.5C 500.517,389.552 500.351,388.552 500.5,387.5C 498.692,387.509 497.025,387.009 495.5,386C 496.654,385.086 496.487,384.253 495,383.5C 494.113,386.708 492.447,386.708 490,383.5C 489.5,384 489,384.5 488.5,385C 490.158,386.663 492.158,387.496 494.5,387.5C 493.744,389.613 493.577,391.613 494,393.5C 491.695,391.399 490.028,389.399 489,387.5C 485.25,389.195 481.416,390.695 477.5,392C 478.696,392.654 478.696,393.154 477.5,393.5C 476.852,391.851 475.852,390.518 474.5,389.5C 472.729,390.035 472.396,390.869 473.5,392C 469.256,395.745 467.756,394.912 469,389.5C 467.853,390.458 466.853,390.125 466,388.5C 465.167,389.333 464.333,390.167 463.5,391C 467.869,391.636 468.369,393.136 465,395.5C 463.542,394.253 462.042,394.253 460.5,395.5C 459.833,394.833 459.167,394.167 458.5,393.5C 457.646,394.948 456.646,396.281 455.5,397.5C 457.762,399.508 457.262,399.841 454,398.5C 452.915,399.293 451.748,399.96 450.5,400.5C 449.289,399.726 449.289,398.893 450.5,398C 449.552,397.517 448.552,397.351 447.5,397.5C 447.649,398.552 447.483,399.552 447,400.5C 444.708,401.79 442.708,403.457 441,405.5C 440.586,405.043 440.086,404.709 439.5,404.5C 438.673,406.162 437.507,407.495 436,408.5C 434.667,408.5 433.333,408.5 432,408.5C 431.667,407.833 431.333,407.167 431,406.5C 426.97,411.077 422.803,414.744 418.5,417.5C 434.497,400.17 450.83,383.17 467.5,366.5C 477.131,358.709 486.298,349.709 495,339.5C 496.779,342.276 497.779,341.943 498,338.5C 499.119,339.552 499.619,340.719 499.5,342C 497.5,343 495.5,344 493.5,345C 494.416,345.374 495.25,345.874 496,346.5C 499.701,344.04 502.367,341.374 504,338.5C 507.351,336.146 510.018,333.146 512,329.5C 512.741,330.641 513.575,330.641 514.5,329.5C 517.505,325.629 520.838,322.129 524.5,319C 528.462,317.662 532.129,315.162 535.5,311.5C 545.947,305.369 556.281,298.369 566.5,290.5C 567.167,290.833 567.833,291.167 568.5,291.5C 568.533,290.011 569.033,288.678 570,287.5C 570.333,288.167 570.667,288.833 571,289.5C 572.968,285.777 574.635,285.777 576,289.5C 576.049,286.584 577.216,285.584 579.5,286.5C 581.337,282.787 582.837,282.787 584,286.5C 584.333,286.167 584.667,285.833 585,285.5C 585.278,286.416 585.778,287.082 586.5,287.5 Z"/></g>
<g><path style="opacity:1" fill="#9585fe" d="M 731.5,376.5 C 730.286,379.93 728.786,383.264 727,386.5C 725.938,387.097 724.772,387.43 723.5,387.5C 719.583,385.584 715.75,384.251 712,383.5C 711.692,384.308 711.192,384.975 710.5,385.5C 709.088,384.194 707.421,383.36 705.5,383C 706.696,382.346 706.696,381.846 705.5,381.5C 704.167,382.167 702.833,382.833 701.5,383.5C 701.704,382.471 701.204,381.471 700,380.5C 698.314,383.022 696.981,382.689 696,379.5C 694.899,381.394 693.566,382.061 692,381.5C 691.25,380.874 690.416,380.374 689.5,380C 690.624,379.751 691.624,379.251 692.5,378.5C 692,378.167 691.5,377.833 691,377.5C 689.374,378.289 687.874,379.289 686.5,380.5C 684.568,379.855 683.401,378.521 683,376.5C 682.667,377.167 682.333,377.833 682,378.5C 681.612,377.572 680.945,376.905 680,376.5C 678.578,377.205 677.245,377.539 676,377.5C 675.51,376.207 675.343,374.873 675.5,373.5C 674.022,373.238 672.689,373.571 671.5,374.5C 672.855,375.675 672.688,376.675 671,377.5C 669.676,376.12 668.343,375.786 667,376.5C 664.904,375.285 665.071,374.451 667.5,374C 665.236,373.764 663.069,373.264 661,372.5C 659.984,373.634 659.317,373.301 659,371.5C 658.667,371.833 658.333,372.167 658,372.5C 655.57,370.191 652.737,368.525 649.5,367.5C 648.158,368.902 647.324,368.569 647,366.5C 646.667,367.167 646.333,367.833 646,368.5C 644.615,367.449 643.615,366.116 643,364.5C 641.383,365.536 641.216,366.703 642.5,368C 640.193,368.271 639.026,367.105 639,364.5C 638.359,368.371 636.859,369.038 634.5,366.5C 634.846,365.304 635.346,365.304 636,366.5C 636.667,365.5 636.667,364.5 636,363.5C 634.184,365.441 632.184,366.108 630,365.5C 629.131,362.237 627.797,361.904 626,364.5C 624.307,360.371 622.64,360.037 621,363.5C 619.656,361.658 618.156,359.992 616.5,358.5C 615.749,359.376 615.249,360.376 615,361.5C 614.333,360.167 613.667,360.167 613,361.5C 612.667,360.167 612.333,358.833 612,357.5C 610.758,358.872 609.258,359.872 607.5,360.5C 606.304,360.154 606.304,359.654 607.5,359C 605.899,358.727 604.399,358.227 603,357.5C 602.667,358.167 602.333,358.833 602,359.5C 599.768,355.675 597.768,355.675 596,359.5C 594.667,358.833 593.667,357.833 593,356.5C 591.426,357.984 590.093,359.651 589,361.5C 588.601,361.272 588.435,360.938 588.5,360.5C 591.202,354.436 593.869,348.436 596.5,342.5C 598.541,340.835 600.041,338.168 601,334.5C 601.333,334.833 601.667,335.167 602,335.5C 602.388,334.572 603.055,333.905 604,333.5C 605.168,334.509 606.335,335.509 607.5,336.5C 607.826,334.346 608.992,333.012 611,332.5C 611.54,334.135 611.04,335.468 609.5,336.5C 610.868,337.594 612.035,337.26 613,335.5C 613.359,338.544 614.026,338.878 615,336.5C 615.833,337.5 616.667,338.5 617.5,339.5C 618.192,338.975 618.692,338.308 619,337.5C 620.193,338.978 620.693,340.312 620.5,341.5C 621.192,340.975 621.692,340.308 622,339.5C 623,340.833 624,340.833 625,339.5C 627.396,342.409 630.396,344.409 634,345.5C 634.941,343.939 636.108,342.605 637.5,341.5C 639.152,343.446 639.985,345.446 640,347.5C 640.333,346.833 640.667,346.167 641,345.5C 642.649,348.877 644.649,349.21 647,346.5C 649.043,348.208 650.71,350.208 652,352.5C 652.667,351.167 653.667,350.167 655,349.5C 656.396,351.527 658.062,351.86 660,350.5C 662.285,353.297 664.785,353.63 667.5,351.5C 668.478,351.977 669.311,352.643 670,353.5C 670.333,353.167 670.667,352.833 671,352.5C 671.174,355.871 672.674,356.871 675.5,355.5C 677.882,357.071 680.549,357.904 683.5,358C 685.731,358.622 687.565,359.789 689,361.5C 691.015,360.158 693.182,359.658 695.5,360C 694.483,361.049 694.316,362.216 695,363.5C 695.333,362.833 695.667,362.167 696,361.5C 698.26,361.673 700.593,361.673 703,361.5C 704.044,362.623 704.71,363.956 705,365.5C 705.333,364.833 705.667,364.167 706,363.5C 707,364.833 708,364.833 709,363.5C 709.667,364.833 710.333,366.167 711,367.5C 711.689,366.643 712.522,365.977 713.5,365.5C 714.72,366.711 715.887,366.711 717,365.5C 717.648,369.638 719.315,370.305 722,367.5C 723.079,369.394 724.413,369.727 726,368.5C 728.178,369.893 729.178,371.56 729,373.5C 729.667,372.167 730.333,372.167 731,373.5C 731.483,374.448 731.649,375.448 731.5,376.5 Z"/></g>
<g><path style="opacity:1" fill="#8667fc" d="M 572.5,323.5 C 573.043,323.56 573.376,323.893 573.5,324.5C 571.031,330.069 569.198,335.736 568,341.5C 569,341.167 570,340.833 571,340.5C 571.333,341.5 571.667,342.5 572,343.5C 573.067,342.809 574.234,342.309 575.5,342C 575.167,341.667 574.833,341.333 574.5,341C 575.292,337.091 576.959,336.591 579.5,339.5C 581.042,338.253 582.542,338.253 584,339.5C 585.709,336.288 587.209,336.122 588.5,339C 584.764,340.507 584.764,341.34 588.5,341.5C 588.351,342.552 588.517,343.552 589,344.5C 590.825,343.897 592.659,343.23 594.5,342.5C 595.38,338.663 597.046,335.33 599.5,332.5C 598.508,335.823 597.508,339.156 596.5,342.5C 593.869,348.436 591.202,354.436 588.5,360.5C 583.593,372.706 578.76,385.039 574,397.5C 573.378,399.731 572.211,401.565 570.5,403C 574.449,403.807 574.449,404.307 570.5,404.5C 560.791,403.745 551.125,402.578 541.5,401C 542.914,399.007 543.914,396.84 544.5,394.5C 553.556,370.721 562.89,347.055 572.5,323.5 Z"/></g>
<g><path style="opacity:1" fill="#967bfe" d="M 743.5,355.5 C 735.565,373.039 726.899,390.039 717.5,406.5C 714.91,407.172 712.91,408.672 711.5,411C 710.629,418.631 707.796,425.798 703,432.5C 700.293,429.592 697.127,428.925 693.5,430.5C 693.891,429.109 693.058,428.109 691,427.5C 690.526,432.627 689.526,432.627 688,427.5C 685.572,429.974 685.072,429.474 686.5,426C 683.975,425.104 681.808,425.604 680,427.5C 679.249,424.951 677.582,423.284 675,422.5C 673.667,423.167 672.667,424.167 672,425.5C 671.342,423.892 671.842,422.725 673.5,422C 671.892,421.342 670.725,421.842 670,423.5C 668.475,423.112 666.808,423.112 665,423.5C 664.667,422.833 664.333,422.167 664,421.5C 663.138,423.087 662.471,424.754 662,426.5C 660.902,425.033 659.402,424.199 657.5,424C 658.458,422.853 658.125,421.853 656.5,421C 658.595,420.444 658.762,419.944 657,419.5C 655.495,420.673 653.995,421.839 652.5,423C 653.956,423.423 654.456,424.256 654,425.5C 651.957,424.421 650.624,422.754 650,420.5C 648.798,423.774 647.798,427.107 647,430.5C 645.913,428.068 645.413,428.402 645.5,431.5C 644.5,431.5 643.5,431.5 642.5,431.5C 642.955,428.797 643.622,426.13 644.5,423.5C 644.333,422.833 644.167,422.167 644,421.5C 643.768,422.737 643.268,423.737 642.5,424.5C 643.129,419.577 641.129,416.411 636.5,415C 614.444,410.934 592.444,407.434 570.5,404.5C 574.449,404.307 574.449,403.807 570.5,403C 572.211,401.565 573.378,399.731 574,397.5C 578.76,385.039 583.593,372.706 588.5,360.5C 588.435,360.938 588.601,361.272 589,361.5C 590.093,359.651 591.426,357.984 593,356.5C 593.667,357.833 594.667,358.833 596,359.5C 597.768,355.675 599.768,355.675 602,359.5C 602.333,358.833 602.667,358.167 603,357.5C 604.399,358.227 605.899,358.727 607.5,359C 606.304,359.654 606.304,360.154 607.5,360.5C 609.258,359.872 610.758,358.872 612,357.5C 612.333,358.833 612.667,360.167 613,361.5C 613.667,360.167 614.333,360.167 615,361.5C 615.249,360.376 615.749,359.376 616.5,358.5C 618.156,359.992 619.656,361.658 621,363.5C 622.64,360.037 624.307,360.371 626,364.5C 627.797,361.904 629.131,362.237 630,365.5C 632.184,366.108 634.184,365.441 636,363.5C 636.667,364.5 636.667,365.5 636,366.5C 635.346,365.304 634.846,365.304 634.5,366.5C 636.859,369.038 638.359,368.371 639,364.5C 639.026,367.105 640.193,368.271 642.5,368C 641.216,366.703 641.383,365.536 643,364.5C 643.615,366.116 644.615,367.449 646,368.5C 646.333,367.833 646.667,367.167 647,366.5C 647.324,368.569 648.158,368.902 649.5,367.5C 652.737,368.525 655.57,370.191 658,372.5C 658.333,372.167 658.667,371.833 659,371.5C 659.317,373.301 659.984,373.634 661,372.5C 663.069,373.264 665.236,373.764 667.5,374C 665.071,374.451 664.904,375.285 667,376.5C 668.343,375.786 669.676,376.12 671,377.5C 672.688,376.675 672.855,375.675 671.5,374.5C 672.689,373.571 674.022,373.238 675.5,373.5C 675.343,374.873 675.51,376.207 676,377.5C 677.245,377.539 678.578,377.205 680,376.5C 680.945,376.905 681.612,377.572 682,378.5C 682.333,377.833 682.667,377.167 683,376.5C 683.401,378.521 684.568,379.855 686.5,380.5C 687.874,379.289 689.374,378.289 691,377.5C 691.5,377.833 692,378.167 692.5,378.5C 691.624,379.251 690.624,379.751 689.5,380C 690.416,380.374 691.25,380.874 692,381.5C 693.566,382.061 694.899,381.394 696,379.5C 696.981,382.689 698.314,383.022 700,380.5C 701.204,381.471 701.704,382.471 701.5,383.5C 702.833,382.833 704.167,382.167 705.5,381.5C 706.696,381.846 706.696,382.346 705.5,383C 707.421,383.36 709.088,384.194 710.5,385.5C 711.192,384.975 711.692,384.308 712,383.5C 715.75,384.251 719.583,385.584 723.5,387.5C 724.772,387.43 725.938,387.097 727,386.5C 728.786,383.264 730.286,379.93 731.5,376.5C 735.008,370.818 738.008,364.818 740.5,358.5C 741.272,357.306 742.272,356.306 743.5,355.5 Z"/></g>
<g><path style="opacity:1" fill="#f6d430" d="M 544.5,394.5 C 543.914,396.84 542.914,399.007 541.5,401C 551.125,402.578 560.791,403.745 570.5,404.5C 592.444,407.434 614.444,410.934 636.5,415C 641.129,416.411 643.129,419.577 642.5,424.5C 641.962,427.905 640.629,430.905 638.5,433.5C 631.5,440.833 624.5,448.167 617.5,455.5C 618.961,452.871 620.627,450.371 622.5,448C 621.333,447.5 620.5,446.667 620,445.5C 615.774,446.605 615.607,447.938 619.5,449.5C 617.469,451.478 615.803,451.478 614.5,449.5C 613.852,451.149 612.852,452.482 611.5,453.5C 610.707,452.645 611.04,451.811 612.5,451C 611.285,448.904 610.451,449.071 610,451.5C 608.174,449.926 606.007,449.093 603.5,449C 603.616,447.732 603.949,446.398 604.5,445C 603.256,444.544 602.423,445.044 602,446.5C 600.624,443.715 598.457,441.715 595.5,440.5C 595.704,441.529 595.204,442.529 594,443.5C 592.605,442.185 591.605,442.519 591,444.5C 590.751,443.376 590.251,442.376 589.5,441.5C 589.089,442.262 588.923,443.262 589,444.5C 588.333,443.167 587.667,443.167 587,444.5C 585.812,443.437 585.312,442.103 585.5,440.5C 583.142,441.178 580.975,441.512 579,441.5C 577.488,439.314 575.488,437.647 573,436.5C 572.552,438.409 573.385,439.576 575.5,440C 574.672,440.915 573.672,441.581 572.5,442C 573.517,443.049 573.684,444.216 573,445.5C 572.082,443.368 570.749,442.701 569,443.5C 568.25,442.874 567.416,442.374 566.5,442C 567.236,438.801 566.403,438.635 564,441.5C 562.333,440.5 561,439.167 560,437.5C 559.535,438.931 558.701,440.097 557.5,441C 554.833,441.667 552.167,441.667 549.5,441C 549.833,440.667 550.167,440.333 550.5,440C 547.143,436.525 544.977,437.025 544,441.5C 542.598,439.027 541.098,439.027 539.5,441.5C 538.52,440.019 537.353,438.685 536,437.5C 535.085,438.328 534.419,439.328 534,440.5C 529.509,434.917 527.176,435.917 527,443.5C 526.667,442.5 526.333,441.5 526,440.5C 524.267,442.602 522.267,442.935 520,441.5C 519.667,443.167 519.333,444.833 519,446.5C 518.374,444.009 517.541,444.009 516.5,446.5C 509.895,446.741 503.562,446.075 497.5,444.5C 496.186,445.313 495.019,446.313 494,447.5C 493.692,446.692 493.192,446.025 492.5,445.5C 490.309,446.671 488.142,446.337 486,444.5C 484.598,446.973 483.098,446.973 481.5,444.5C 480.494,444.938 480.494,445.604 481.5,446.5C 480.5,447.5 479.5,448.5 478.5,449.5C 477.117,446.924 476.283,447.258 476,450.5C 474.333,450.167 472.667,449.833 471,449.5C 470.667,450.167 470.333,450.833 470,451.5C 469.333,450.167 468.667,450.167 468,451.5C 467.309,449.109 466.309,449.109 465,451.5C 463.236,449.339 461.403,449.172 459.5,451C 460.654,451.914 460.487,452.747 459,453.5C 458.612,452.572 457.945,451.905 457,451.5C 454.815,451.257 452.648,451.757 450.5,453C 452.271,453.535 452.604,454.369 451.5,455.5C 449.409,454.942 447.242,454.609 445,454.5C 443.739,454.759 442.739,455.426 442,456.5C 440.654,453.751 439.32,453.417 438,455.5C 436.488,453.043 435.154,453.043 434,455.5C 433.667,454.833 433.333,454.167 433,453.5C 432.248,457.403 430.081,458.403 426.5,456.5C 425.808,457.025 425.308,457.692 425,458.5C 424.667,458.167 424.333,457.833 424,457.5C 423.056,460.347 423.556,462.847 425.5,465C 423.975,466.009 422.308,466.509 420.5,466.5C 413.091,466.385 405.758,465.552 398.5,464C 396.677,463.003 395.01,461.836 393.5,460.5C 392.242,458.313 391.242,455.98 390.5,453.5C 390.34,451.801 390.506,450.134 391,448.5C 393.054,445.953 394.887,443.286 396.5,440.5C 403.889,432.78 411.222,425.114 418.5,417.5C 422.803,414.744 426.97,411.077 431,406.5C 431.333,407.167 431.667,407.833 432,408.5C 433.333,408.5 434.667,408.5 436,408.5C 437.507,407.495 438.673,406.162 439.5,404.5C 440.086,404.709 440.586,405.043 441,405.5C 442.708,403.457 444.708,401.79 447,400.5C 447.483,399.552 447.649,398.552 447.5,397.5C 448.552,397.351 449.552,397.517 450.5,398C 449.289,398.893 449.289,399.726 450.5,400.5C 451.748,399.96 452.915,399.293 454,398.5C 457.262,399.841 457.762,399.508 455.5,397.5C 456.646,396.281 457.646,394.948 458.5,393.5C 459.167,394.167 459.833,394.833 460.5,395.5C 462.042,394.253 463.542,394.253 465,395.5C 468.369,393.136 467.869,391.636 463.5,391C 464.333,390.167 465.167,389.333 466,388.5C 466.853,390.125 467.853,390.458 469,389.5C 467.756,394.912 469.256,395.745 473.5,392C 472.396,390.869 472.729,390.035 474.5,389.5C 475.852,390.518 476.852,391.851 477.5,393.5C 478.696,393.154 478.696,392.654 477.5,392C 481.416,390.695 485.25,389.195 489,387.5C 490.028,389.399 491.695,391.399 494,393.5C 493.577,391.613 493.744,389.613 494.5,387.5C 492.158,387.496 490.158,386.663 488.5,385C 489,384.5 489.5,384 490,383.5C 492.447,386.708 494.113,386.708 495,383.5C 496.487,384.253 496.654,385.086 495.5,386C 497.025,387.009 498.692,387.509 500.5,387.5C 500.351,388.552 500.517,389.552 501,390.5C 501.333,390.167 501.667,389.833 502,389.5C 503.085,391.657 504.251,391.824 505.5,390C 504.328,389.581 503.328,388.915 502.5,388C 504.534,387.373 506.867,386.54 509.5,385.5C 510,384.5 510.5,383.5 511,382.5C 511.853,384.125 512.853,384.458 514,383.5C 515.441,384.26 516.941,384.926 518.5,385.5C 518.313,384.183 518.98,382.85 520.5,381.5C 521.696,381.846 521.696,382.346 520.5,383C 521.793,383.49 523.127,383.657 524.5,383.5C 524.125,386.907 525.125,387.407 527.5,385C 526.346,384.086 526.513,383.253 528,382.5C 529.067,384.283 530.567,384.783 532.5,384C 531.549,383.282 531.383,382.449 532,381.5C 533.117,382.949 533.784,384.616 534,386.5C 534.5,386 535,385.5 535.5,385C 534.483,383.951 534.316,382.784 535,381.5C 535.893,380.289 536.726,380.289 537.5,381.5C 536.975,382.192 536.308,382.692 535.5,383C 536,383.167 536.5,383.333 537,383.5C 538.869,382.631 539.369,381.465 538.5,380C 539.667,379.5 540.5,378.667 541,377.5C 541.86,381.027 544.027,383.193 547.5,384C 546.175,386.985 544.842,389.985 543.5,393C 543.57,393.765 543.903,394.265 544.5,394.5 Z"/></g>
<g><path style="opacity:1" fill="#8570fe" d="M 462.5,330.5 C 445.512,359.14 428.012,387.474 410,415.5C 404.952,423.6 400.452,431.933 396.5,440.5C 394.887,443.286 393.054,445.953 391,448.5C 390.506,450.134 390.34,451.801 390.5,453.5C 389.71,454.609 389.21,455.942 389,457.5C 387.556,455.845 385.722,455.178 383.5,455.5C 383.88,458.792 382.547,461.125 379.5,462.5C 378.614,463.325 378.281,464.325 378.5,465.5C 376.801,465.34 375.134,465.506 373.5,466C 374.167,466.333 374.833,466.667 375.5,467C 372.52,467.49 370.187,468.99 368.5,471.5C 368.709,472.086 369.043,472.586 369.5,473C 364.993,477.744 360.16,482.244 355,486.5C 353.727,488.714 352.727,491.047 352,493.5C 348.637,488.107 345.804,482.44 343.5,476.5C 342.817,476.137 342.15,475.804 341.5,475.5C 330.306,455.112 319.639,434.446 309.5,413.5C 308.119,409.736 306.453,406.069 304.5,402.5C 304.833,402.167 305.167,401.833 305.5,401.5C 306.738,405.311 307.404,405.311 307.5,401.5C 309.833,401.5 312.167,401.5 314.5,401.5C 314.966,399.799 314.966,398.299 314.5,397C 316.055,395.354 317.721,395.021 319.5,396C 318.327,392.89 318.827,392.723 321,395.5C 322.425,394.788 323.925,394.621 325.5,395C 324.426,394.261 323.759,393.261 323.5,392C 326.463,388.34 327.463,388.673 326.5,393C 327,393.5 327.5,394 328,394.5C 328.163,392.324 328.996,390.491 330.5,389C 330.167,388.667 329.833,388.333 329.5,388C 332.506,387.668 335.34,386.834 338,385.5C 340.071,386.364 341.738,387.697 343,389.5C 343.75,388.874 344.584,388.374 345.5,388C 346.833,387.333 346.833,386.667 345.5,386C 346.938,385.781 348.271,385.281 349.5,384.5C 348.359,383.575 348.359,382.741 349.5,382C 349.167,381.833 348.833,381.667 348.5,381.5C 347.749,382.376 347.249,383.376 347,384.5C 346.5,384 346,383.5 345.5,383C 346.634,381.984 346.301,381.317 344.5,381C 349.337,379.669 352.004,381.502 352.5,386.5C 355.261,384.319 357.094,381.985 358,379.5C 358.333,381.5 358.667,383.5 359,385.5C 359.178,381.879 360.845,379.212 364,377.5C 364.333,377.833 364.667,378.167 365,378.5C 365.991,377.061 367.324,376.061 369,375.5C 370.337,377.004 372.004,378.004 374,378.5C 375.993,377.853 377.659,376.187 379,373.5C 379.667,374.167 380.333,374.833 381,375.5C 382.74,374.284 383.74,372.618 384,370.5C 386.804,372.649 389.471,372.315 392,369.5C 392.667,372.167 393.333,372.167 394,369.5C 395.666,370.34 395.833,369.84 394.5,368C 395.667,367.5 396.5,366.667 397,365.5C 399.694,366.567 401.527,365.567 402.5,362.5C 403.086,362.709 403.586,363.043 404,363.5C 404.667,359.5 405.333,359.5 406,363.5C 408.067,366.014 409.567,365.848 410.5,363C 408.314,362.396 408.148,361.23 410,359.5C 412.547,361.749 415.047,361.416 417.5,358.5C 418.086,358.709 418.586,359.043 419,359.5C 419.691,357.109 420.691,357.109 422,359.5C 424.384,357.689 426.051,355.355 427,352.5C 428.229,354.947 429.729,355.113 431.5,353C 430.692,352.692 430.025,352.192 429.5,351.5C 430.868,350.406 432.035,350.74 433,352.5C 434.204,351.141 435.704,350.141 437.5,349.5C 437.062,348.494 436.396,348.494 435.5,349.5C 434.417,348.635 434.251,347.635 435,346.5C 435.333,346.833 435.667,347.167 436,347.5C 436.745,346.01 437.912,345.01 439.5,344.5C 440.863,345.198 442.029,345.198 443,344.5C 443.183,342.552 442.683,341.052 441.5,340C 442.458,335.826 443.458,335.66 444.5,339.5C 446.144,339.286 447.644,339.62 449,340.5C 449.167,340.167 449.333,339.833 449.5,339.5C 448.311,338.571 446.978,338.238 445.5,338.5C 445.351,337.448 445.517,336.448 446,335.5C 447.337,336.765 448.837,337.265 450.5,337C 452.15,335.025 453.15,333.192 453.5,331.5C 454.208,333.378 455.374,335.045 457,336.5C 458.333,334.5 459.667,332.5 461,330.5C 461.69,329.262 462.19,329.262 462.5,330.5 Z"/></g>
<g><path style="opacity:1" fill="#966efe" d="M 717.5,406.5 C 708.252,426.599 698.252,446.265 687.5,465.5C 683.178,472.806 678.845,480.139 674.5,487.5C 673.201,486.91 672.368,485.91 672,484.5C 671.086,485.654 670.253,485.487 669.5,484C 670.833,483.333 670.833,482.667 669.5,482C 667.167,481.667 664.833,481.333 662.5,481C 662.833,480.667 663.167,480.333 663.5,480C 662.809,478.933 662.309,477.766 662,476.5C 660.349,478.402 660.016,480.402 661,482.5C 659.237,481.056 657.237,480.056 655,479.5C 654.626,480.416 654.126,481.25 653.5,482C 654.239,483.765 654.239,485.765 653.5,488C 653,488.167 652.5,488.333 652,488.5C 650.829,487.66 649.662,486.827 648.5,486C 648.619,484.719 648.119,483.552 647,482.5C 646.667,483.167 646.333,483.833 646,484.5C 643.565,482.563 643.398,480.73 645.5,479C 645.167,478.833 644.833,478.667 644.5,478.5C 640.467,479.724 636.8,481.558 633.5,484C 631.703,486.965 629.369,489.465 626.5,491.5C 635.143,480.68 643.643,469.68 652,458.5C 652.965,454.218 652.298,450.218 650,446.5C 646.279,441.953 642.446,437.62 638.5,433.5C 640.629,430.905 641.962,427.905 642.5,424.5C 643.268,423.737 643.768,422.737 644,421.5C 644.167,422.167 644.333,422.833 644.5,423.5C 643.622,426.13 642.955,428.797 642.5,431.5C 643.5,431.5 644.5,431.5 645.5,431.5C 645.413,428.402 645.913,428.068 647,430.5C 647.798,427.107 648.798,423.774 650,420.5C 650.624,422.754 651.957,424.421 654,425.5C 654.456,424.256 653.956,423.423 652.5,423C 653.995,421.839 655.495,420.673 657,419.5C 658.762,419.944 658.595,420.444 656.5,421C 658.125,421.853 658.458,422.853 657.5,424C 659.402,424.199 660.902,425.033 662,426.5C 662.471,424.754 663.138,423.087 664,421.5C 664.333,422.167 664.667,422.833 665,423.5C 666.808,423.112 668.475,423.112 670,423.5C 670.725,421.842 671.892,421.342 673.5,422C 671.842,422.725 671.342,423.892 672,425.5C 672.667,424.167 673.667,423.167 675,422.5C 677.582,423.284 679.249,424.951 680,427.5C 681.808,425.604 683.975,425.104 686.5,426C 685.072,429.474 685.572,429.974 688,427.5C 689.526,432.627 690.526,432.627 691,427.5C 693.058,428.109 693.891,429.109 693.5,430.5C 697.127,428.925 700.293,429.592 703,432.5C 707.796,425.798 710.629,418.631 711.5,411C 712.91,408.672 714.91,407.172 717.5,406.5 Z"/></g>
<g><path style="opacity:1" fill="#f6cd28" d="M 617.5,455.5 C 609.747,465.32 601.747,474.987 593.5,484.5C 592.226,483.811 592.226,482.977 593.5,482C 592.531,480.242 591.364,479.742 590,480.5C 589.667,479.5 589.333,478.5 589,477.5C 588.3,479.032 587.134,480.032 585.5,480.5C 584.304,480.154 584.304,479.654 585.5,479C 584.146,477.706 582.812,477.54 581.5,478.5C 580.536,475.917 579.202,475.417 577.5,477C 579.506,477.849 580.172,479.015 579.5,480.5C 577.983,478.815 576.316,477.315 574.5,476C 575.815,474.605 575.481,473.605 573.5,473C 571.765,472.349 570.098,472.515 568.5,473.5C 567.304,473.154 567.304,472.654 568.5,472C 567.175,472.148 566.008,471.982 565,471.5C 564.667,472.167 564.333,472.833 564,473.5C 563.333,472.167 562.667,472.167 562,473.5C 561.077,472.241 560.243,470.908 559.5,469.5C 558.667,470.5 557.833,471.5 557,472.5C 556.176,468.225 554.176,467.559 551,470.5C 549.467,469.305 547.967,469.305 546.5,470.5C 546.089,469.738 545.923,468.738 546,467.5C 545,469.833 543.333,471.5 541,472.5C 540.308,471.975 539.808,471.308 539.5,470.5C 540.326,469.549 540.492,468.549 540,467.5C 538.615,468.551 537.615,469.884 537,471.5C 535.196,467.932 532.863,467.598 530,470.5C 529.667,470.167 529.333,469.833 529,469.5C 529.783,471.345 530.116,473.345 530,475.5C 529.692,474.692 529.192,474.025 528.5,473.5C 527.304,473.846 527.304,474.346 528.5,475C 526.231,474.769 524.397,473.602 523,471.5C 522.667,472.5 522.333,473.5 522,474.5C 521.667,474.167 521.333,473.833 521,473.5C 520.915,475.085 520.749,476.418 520.5,477.5C 518.38,476.597 518.046,475.263 519.5,473.5C 518.817,470.539 517.984,470.205 517,472.5C 516.667,471.833 516.333,471.167 516,470.5C 516,474.927 514.833,475.427 512.5,472C 513.451,471.282 513.617,470.449 513,469.5C 511.333,471.5 509.667,473.5 508,475.5C 505.863,474.521 504.029,473.188 502.5,471.5C 503.025,470.808 503.692,470.308 504.5,470C 503.24,468.887 502.073,468.72 501,469.5C 500.667,468.833 500.333,468.167 500,467.5C 497.791,468.92 495.791,470.587 494,472.5C 492.284,472.589 490.451,472.256 488.5,471.5C 487.269,472.651 487.269,473.817 488.5,475C 487.906,475.464 487.239,475.631 486.5,475.5C 464.561,472.062 442.561,469.062 420.5,466.5C 422.308,466.509 423.975,466.009 425.5,465C 423.556,462.847 423.056,460.347 424,457.5C 424.333,457.833 424.667,458.167 425,458.5C 425.308,457.692 425.808,457.025 426.5,456.5C 430.081,458.403 432.248,457.403 433,453.5C 433.333,454.167 433.667,454.833 434,455.5C 435.154,453.043 436.488,453.043 438,455.5C 439.32,453.417 440.654,453.751 442,456.5C 442.739,455.426 443.739,454.759 445,454.5C 447.242,454.609 449.409,454.942 451.5,455.5C 452.604,454.369 452.271,453.535 450.5,453C 452.648,451.757 454.815,451.257 457,451.5C 457.945,451.905 458.612,452.572 459,453.5C 460.487,452.747 460.654,451.914 459.5,451C 461.403,449.172 463.236,449.339 465,451.5C 466.309,449.109 467.309,449.109 468,451.5C 468.667,450.167 469.333,450.167 470,451.5C 470.333,450.833 470.667,450.167 471,449.5C 472.667,449.833 474.333,450.167 476,450.5C 476.283,447.258 477.117,446.924 478.5,449.5C 479.5,448.5 480.5,447.5 481.5,446.5C 480.494,445.604 480.494,444.938 481.5,444.5C 483.098,446.973 484.598,446.973 486,444.5C 488.142,446.337 490.309,446.671 492.5,445.5C 493.192,446.025 493.692,446.692 494,447.5C 495.019,446.313 496.186,445.313 497.5,444.5C 503.562,446.075 509.895,446.741 516.5,446.5C 517.541,444.009 518.374,444.009 519,446.5C 519.333,444.833 519.667,443.167 520,441.5C 522.267,442.935 524.267,442.602 526,440.5C 526.333,441.5 526.667,442.5 527,443.5C 527.176,435.917 529.509,434.917 534,440.5C 534.419,439.328 535.085,438.328 536,437.5C 537.353,438.685 538.52,440.019 539.5,441.5C 541.098,439.027 542.598,439.027 544,441.5C 544.977,437.025 547.143,436.525 550.5,440C 550.167,440.333 549.833,440.667 549.5,441C 552.167,441.667 554.833,441.667 557.5,441C 558.701,440.097 559.535,438.931 560,437.5C 561,439.167 562.333,440.5 564,441.5C 566.403,438.635 567.236,438.801 566.5,442C 567.416,442.374 568.25,442.874 569,443.5C 570.749,442.701 572.082,443.368 573,445.5C 573.684,444.216 573.517,443.049 572.5,442C 573.672,441.581 574.672,440.915 575.5,440C 573.385,439.576 572.552,438.409 573,436.5C 575.488,437.647 577.488,439.314 579,441.5C 580.975,441.512 583.142,441.178 585.5,440.5C 585.312,442.103 585.812,443.437 587,444.5C 587.667,443.167 588.333,443.167 589,444.5C 588.923,443.262 589.089,442.262 589.5,441.5C 590.251,442.376 590.751,443.376 591,444.5C 591.605,442.519 592.605,442.185 594,443.5C 595.204,442.529 595.704,441.529 595.5,440.5C 598.457,441.715 600.624,443.715 602,446.5C 602.423,445.044 603.256,444.544 604.5,445C 603.949,446.398 603.616,447.732 603.5,449C 606.007,449.093 608.174,449.926 610,451.5C 610.451,449.071 611.285,448.904 612.5,451C 611.04,451.811 610.707,452.645 611.5,453.5C 612.852,452.482 613.852,451.149 614.5,449.5C 615.803,451.478 617.469,451.478 619.5,449.5C 615.607,447.938 615.774,446.605 620,445.5C 620.5,446.667 621.333,447.5 622.5,448C 620.627,450.371 618.961,452.871 617.5,455.5 Z"/></g>
<g><path style="opacity:1" fill="#4f40e8" d="M 393.5,460.5 C 395.01,461.836 396.677,463.003 398.5,464C 405.758,465.552 413.091,466.385 420.5,466.5C 442.561,469.062 464.561,472.062 486.5,475.5C 484.035,483.563 481.368,491.563 478.5,499.5C 477.209,498.458 477.209,497.292 478.5,496C 466.488,494.807 454.488,493.64 442.5,492.5C 429.392,492.969 418.558,488.302 410,478.5C 406,471.833 400.667,466.5 394,462.5C 393.536,461.906 393.369,461.239 393.5,460.5 Z"/></g>
<g><path style="opacity:1" fill="#6c68fe" d="M 390.5,453.5 C 391.242,455.98 392.242,458.313 393.5,460.5C 393.369,461.239 393.536,461.906 394,462.5C 400.667,466.5 406,471.833 410,478.5C 418.558,488.302 429.392,492.969 442.5,492.5C 439.023,493.323 435.356,493.823 431.5,494C 430.366,495.016 430.699,495.683 432.5,496C 430.208,497.29 428.208,498.957 426.5,501C 428.569,501.324 428.902,502.158 427.5,503.5C 426.672,504.415 425.672,505.081 424.5,505.5C 422.063,504.191 420.563,504.858 420,507.5C 416.841,508.745 417.007,509.912 420.5,511C 419.5,511.667 418.5,511.667 417.5,511C 416.54,509.581 415.707,508.081 415,506.5C 413.663,508.004 411.996,509.004 410,509.5C 409.517,510.448 409.351,511.448 409.5,512.5C 407.799,512.966 406.299,512.966 405,512.5C 402.925,515.028 402.092,514.861 402.5,512C 398.315,509.746 397.648,510.413 400.5,514C 400.095,514.945 399.428,515.612 398.5,516C 400.901,516.805 400.734,517.638 398,518.5C 397.641,521.544 396.974,521.878 396,519.5C 394.143,522.07 391.809,524.07 389,525.5C 388.577,524.044 387.744,523.544 386.5,524C 387.634,525.016 387.301,525.683 385.5,526C 386.673,529.11 386.173,529.277 384,526.5C 382.956,527.623 382.29,528.956 382,530.5C 381.692,529.692 381.192,529.025 380.5,528.5C 377.415,529.2 375.415,531.033 374.5,534C 375.449,534.617 376.282,534.451 377,533.5C 379.024,535.792 378.69,536.459 376,535.5C 376,536.833 376,538.167 376,539.5C 374.723,537.253 373.223,535.253 371.5,533.5C 360.993,514.488 350.993,495.155 341.5,475.5C 342.15,475.804 342.817,476.137 343.5,476.5C 345.804,482.44 348.637,488.107 352,493.5C 352.727,491.047 353.727,488.714 355,486.5C 360.16,482.244 364.993,477.744 369.5,473C 369.043,472.586 368.709,472.086 368.5,471.5C 370.187,468.99 372.52,467.49 375.5,467C 374.833,466.667 374.167,466.333 373.5,466C 375.134,465.506 376.801,465.34 378.5,465.5C 378.281,464.325 378.614,463.325 379.5,462.5C 382.547,461.125 383.88,458.792 383.5,455.5C 385.722,455.178 387.556,455.845 389,457.5C 389.21,455.942 389.71,454.609 390.5,453.5 Z"/></g>
<g><path style="opacity:1" fill="#f7c123" d="M 593.5,484.5 C 577.833,502.5 562.167,520.5 546.5,538.5C 545.957,538.44 545.624,538.107 545.5,537.5C 547.935,534.514 549.602,531.181 550.5,527.5C 547.167,527.5 543.833,527.5 540.5,527.5C 539.757,533.171 537.09,534.171 532.5,530.5C 531.575,531.641 530.741,531.641 530,530.5C 529.275,532.158 528.108,532.658 526.5,532C 528.901,531.195 528.734,530.362 526,529.5C 524.032,533.223 522.365,533.223 521,529.5C 519.475,529.888 517.808,529.888 516,529.5C 515.316,530.784 515.483,531.951 516.5,533C 514.892,533.658 513.725,533.158 513,531.5C 512.667,532.167 512.333,532.833 512,533.5C 507.772,530.512 503.439,530.178 499,532.5C 498.019,529.345 496.685,529.012 495,531.5C 494.667,530.833 494.333,530.167 494,529.5C 493.333,534.833 492.667,534.833 492,529.5C 490.887,530.76 490.72,531.927 491.5,533C 490.167,533.667 488.833,533.667 487.5,533C 488.654,532.086 488.487,531.253 487,530.5C 485.676,531.88 484.343,532.214 483,531.5C 482.692,532.308 482.192,532.975 481.5,533.5C 478.891,532.557 476.891,530.89 475.5,528.5C 473.595,530.609 471.928,530.109 470.5,527C 471.5,526.667 472.5,526.333 473.5,526C 472.308,524.055 472.308,522.055 473.5,520C 473.333,519.5 473.167,519 473,518.5C 472.333,519.833 471.667,521.167 471,522.5C 470.601,522.272 470.435,521.938 470.5,521.5C 472.971,514.085 475.638,506.752 478.5,499.5C 481.368,491.563 484.035,483.563 486.5,475.5C 487.239,475.631 487.906,475.464 488.5,475C 487.269,473.817 487.269,472.651 488.5,471.5C 490.451,472.256 492.284,472.589 494,472.5C 495.791,470.587 497.791,468.92 500,467.5C 500.333,468.167 500.667,468.833 501,469.5C 502.073,468.72 503.24,468.887 504.5,470C 503.692,470.308 503.025,470.808 502.5,471.5C 504.029,473.188 505.863,474.521 508,475.5C 509.667,473.5 511.333,471.5 513,469.5C 513.617,470.449 513.451,471.282 512.5,472C 514.833,475.427 516,474.927 516,470.5C 516.333,471.167 516.667,471.833 517,472.5C 517.984,470.205 518.817,470.539 519.5,473.5C 518.046,475.263 518.38,476.597 520.5,477.5C 520.749,476.418 520.915,475.085 521,473.5C 521.333,473.833 521.667,474.167 522,474.5C 522.333,473.5 522.667,472.5 523,471.5C 524.397,473.602 526.231,474.769 528.5,475C 527.304,474.346 527.304,473.846 528.5,473.5C 529.192,474.025 529.692,474.692 530,475.5C 530.116,473.345 529.783,471.345 529,469.5C 529.333,469.833 529.667,470.167 530,470.5C 532.863,467.598 535.196,467.932 537,471.5C 537.615,469.884 538.615,468.551 540,467.5C 540.492,468.549 540.326,469.549 539.5,470.5C 539.808,471.308 540.308,471.975 541,472.5C 543.333,471.5 545,469.833 546,467.5C 545.923,468.738 546.089,469.738 546.5,470.5C 547.967,469.305 549.467,469.305 551,470.5C 554.176,467.559 556.176,468.225 557,472.5C 557.833,471.5 558.667,470.5 559.5,469.5C 560.243,470.908 561.077,472.241 562,473.5C 562.667,472.167 563.333,472.167 564,473.5C 564.333,472.833 564.667,472.167 565,471.5C 566.008,471.982 567.175,472.148 568.5,472C 567.304,472.654 567.304,473.154 568.5,473.5C 570.098,472.515 571.765,472.349 573.5,473C 575.481,473.605 575.815,474.605 574.5,476C 576.316,477.315 577.983,478.815 579.5,480.5C 580.172,479.015 579.506,477.849 577.5,477C 579.202,475.417 580.536,475.917 581.5,478.5C 582.812,477.54 584.146,477.706 585.5,479C 584.304,479.654 584.304,480.154 585.5,480.5C 587.134,480.032 588.3,479.032 589,477.5C 589.333,478.5 589.667,479.5 590,480.5C 591.364,479.742 592.531,480.242 593.5,482C 592.226,482.977 592.226,483.811 593.5,484.5 Z"/></g>
<g><path style="opacity:1" fill="#8d61fe" d="M 687.5,465.5 C 674.247,493.01 660.247,520.01 645.5,546.5C 642.188,551.113 639.354,556.113 637,561.5C 635.676,559.172 634.343,556.839 633,554.5C 632.25,555.126 631.416,555.626 630.5,556C 630.833,556.333 631.167,556.667 631.5,557C 630.809,558.067 630.309,559.234 630,560.5C 630.419,554.837 629.086,553.837 626,557.5C 624.333,556.5 622.667,555.5 621,554.5C 619.513,555.253 619.346,556.086 620.5,557C 618.579,557.36 616.912,558.194 615.5,559.5C 613.298,558.22 611.132,558.22 609,559.5C 609.617,557.905 609.284,556.572 608,555.5C 605.621,560.778 604.621,560.778 605,555.5C 604.667,556.167 604.333,556.833 604,557.5C 603.174,555.595 602.007,555.261 600.5,556.5C 601.167,556.833 601.833,557.167 602.5,557.5C 600.803,558.364 599.637,559.697 599,561.5C 597.601,560.773 596.101,560.273 594.5,560C 599.329,557.707 599.496,555.873 595,554.5C 594.716,556.886 593.716,557.552 592,556.5C 591.385,558.116 590.385,559.449 589,560.5C 588.225,558.777 586.892,557.777 585,557.5C 581.154,562.062 576.987,562.729 572.5,559.5C 571.186,560.313 570.019,561.313 569,562.5C 568.667,562.167 568.333,561.833 568,561.5C 566.127,564.287 564.294,566.954 562.5,569.5C 561.5,569.5 560.5,569.5 559.5,569.5C 581.37,543.087 603.703,517.087 626.5,491.5C 629.369,489.465 631.703,486.965 633.5,484C 636.8,481.558 640.467,479.724 644.5,478.5C 644.833,478.667 645.167,478.833 645.5,479C 643.398,480.73 643.565,482.563 646,484.5C 646.333,483.833 646.667,483.167 647,482.5C 648.119,483.552 648.619,484.719 648.5,486C 649.662,486.827 650.829,487.66 652,488.5C 652.5,488.333 653,488.167 653.5,488C 654.239,485.765 654.239,483.765 653.5,482C 654.126,481.25 654.626,480.416 655,479.5C 657.237,480.056 659.237,481.056 661,482.5C 660.016,480.402 660.349,478.402 662,476.5C 662.309,477.766 662.809,478.933 663.5,480C 663.167,480.333 662.833,480.667 662.5,481C 664.833,481.333 667.167,481.667 669.5,482C 670.833,482.667 670.833,483.333 669.5,484C 670.253,485.487 671.086,485.654 672,484.5C 672.368,485.91 673.201,486.91 674.5,487.5C 678.845,480.139 683.178,472.806 687.5,465.5 Z"/></g>
<g><path style="opacity:1" fill="#675afa" d="M 442.5,492.5 C 454.488,493.64 466.488,494.807 478.5,496C 477.209,497.292 477.209,498.458 478.5,499.5C 475.638,506.752 472.971,514.085 470.5,521.5C 458.993,551.206 447.993,581.206 437.5,611.5C 433.634,621.1 429.967,630.767 426.5,640.5C 407.42,605.342 389.086,569.675 371.5,533.5C 373.223,535.253 374.723,537.253 376,539.5C 376,538.167 376,536.833 376,535.5C 378.69,536.459 379.024,535.792 377,533.5C 376.282,534.451 375.449,534.617 374.5,534C 375.415,531.033 377.415,529.2 380.5,528.5C 381.192,529.025 381.692,529.692 382,530.5C 382.29,528.956 382.956,527.623 384,526.5C 386.173,529.277 386.673,529.11 385.5,526C 387.301,525.683 387.634,525.016 386.5,524C 387.744,523.544 388.577,524.044 389,525.5C 391.809,524.07 394.143,522.07 396,519.5C 396.974,521.878 397.641,521.544 398,518.5C 400.734,517.638 400.901,516.805 398.5,516C 399.428,515.612 400.095,514.945 400.5,514C 397.648,510.413 398.315,509.746 402.5,512C 402.092,514.861 402.925,515.028 405,512.5C 406.299,512.966 407.799,512.966 409.5,512.5C 409.351,511.448 409.517,510.448 410,509.5C 411.996,509.004 413.663,508.004 415,506.5C 415.707,508.081 416.54,509.581 417.5,511C 418.5,511.667 419.5,511.667 420.5,511C 417.007,509.912 416.841,508.745 420,507.5C 420.563,504.858 422.063,504.191 424.5,505.5C 425.672,505.081 426.672,504.415 427.5,503.5C 428.902,502.158 428.569,501.324 426.5,501C 428.208,498.957 430.208,497.29 432.5,496C 430.699,495.683 430.366,495.016 431.5,494C 435.356,493.823 439.023,493.323 442.5,492.5 Z"/></g>
<g><path style="opacity:1" fill="#684af3" d="M 638.5,433.5 C 642.446,437.62 646.279,441.953 650,446.5C 652.298,450.218 652.965,454.218 652,458.5C 643.643,469.68 635.143,480.68 626.5,491.5C 603.703,517.087 581.37,543.087 559.5,569.5C 554.5,574.833 549.5,580.167 544.5,585.5C 543.078,585.25 542.078,584.417 541.5,583C 541.694,581.57 541.694,580.07 541.5,578.5C 542.689,577.571 544.022,577.238 545.5,577.5C 545.244,575.541 544.744,574.207 544,573.5C 545.734,572.751 547.567,572.251 549.5,572C 545.148,570.428 544.815,568.761 548.5,567C 543.719,566.482 543.386,565.148 547.5,563C 545.606,561.921 545.273,560.587 546.5,559C 544.97,556.803 543.136,555.97 541,556.5C 540.549,554.071 539.715,553.904 538.5,556C 539.731,557.183 539.731,558.349 538.5,559.5C 537.575,558.359 536.741,558.359 536,559.5C 535.628,554.036 538.128,550.702 543.5,549.5C 543.328,547.508 543.995,545.842 545.5,544.5C 544.873,543.583 544.539,542.583 544.5,541.5C 545.167,540.5 545.833,539.5 546.5,538.5C 562.167,520.5 577.833,502.5 593.5,484.5C 601.747,474.987 609.747,465.32 617.5,455.5C 624.5,448.167 631.5,440.833 638.5,433.5 Z"/></g>
<g><path style="opacity:1" fill="#f7b627" d="M 546.5,538.5 C 545.833,539.5 545.167,540.5 544.5,541.5C 522.129,565.869 500.129,590.536 478.5,615.5C 478.703,613.956 479.37,612.622 480.5,611.5C 480.291,610.914 479.957,610.414 479.5,610C 482.121,608.346 484.621,606.513 487,604.5C 487.14,601.957 487.806,599.623 489,597.5C 490.583,599.993 492.083,599.826 493.5,597C 491.071,596.549 490.904,595.715 493,594.5C 493.414,594.957 493.914,595.291 494.5,595.5C 495.281,594.271 495.781,592.938 496,591.5C 497.364,592.258 498.531,591.758 499.5,590C 497.538,588.4 495.372,588.233 493,589.5C 491.674,589.755 490.674,590.422 490,591.5C 489.586,591.043 489.086,590.709 488.5,590.5C 487.5,591.833 486.5,593.167 485.5,594.5C 482.057,592.187 479.224,592.52 477,595.5C 474.83,593.328 472.497,591.328 470,589.5C 469.333,590.167 468.667,590.833 468,591.5C 465.807,590.227 463.64,589.894 461.5,590.5C 460.808,589.975 460.308,589.308 460,588.5C 457.643,590.849 455.976,590.183 455,586.5C 453.974,589.693 451.808,591.026 448.5,590.5C 448.657,589.127 448.49,587.793 448,586.5C 446.019,590.958 444.186,595.458 442.5,600C 443.328,600.915 444.328,601.581 445.5,602C 444.167,602.667 444.167,603.333 445.5,604C 443.641,604.684 441.974,605.684 440.5,607C 439.896,609.473 438.896,610.973 437.5,611.5C 447.993,581.206 458.993,551.206 470.5,521.5C 470.435,521.938 470.601,522.272 471,522.5C 471.667,521.167 472.333,519.833 473,518.5C 473.167,519 473.333,519.5 473.5,520C 472.308,522.055 472.308,524.055 473.5,526C 472.5,526.333 471.5,526.667 470.5,527C 471.928,530.109 473.595,530.609 475.5,528.5C 476.891,530.89 478.891,532.557 481.5,533.5C 482.192,532.975 482.692,532.308 483,531.5C 484.343,532.214 485.676,531.88 487,530.5C 488.487,531.253 488.654,532.086 487.5,533C 488.833,533.667 490.167,533.667 491.5,533C 490.72,531.927 490.887,530.76 492,529.5C 492.667,534.833 493.333,534.833 494,529.5C 494.333,530.167 494.667,530.833 495,531.5C 496.685,529.012 498.019,529.345 499,532.5C 503.439,530.178 507.772,530.512 512,533.5C 512.333,532.833 512.667,532.167 513,531.5C 513.725,533.158 514.892,533.658 516.5,533C 515.483,531.951 515.316,530.784 516,529.5C 517.808,529.888 519.475,529.888 521,529.5C 522.365,533.223 524.032,533.223 526,529.5C 528.734,530.362 528.901,531.195 526.5,532C 528.108,532.658 529.275,532.158 530,530.5C 530.741,531.641 531.575,531.641 532.5,530.5C 537.09,534.171 539.757,533.171 540.5,527.5C 543.833,527.5 547.167,527.5 550.5,527.5C 549.602,531.181 547.935,534.514 545.5,537.5C 545.624,538.107 545.957,538.44 546.5,538.5 Z"/></g>
<g><path style="opacity:1" fill="#7f55fc" d="M 645.5,546.5 C 629.262,579.978 612.262,612.978 594.5,645.5C 591.522,649.443 589.022,653.777 587,658.5C 586.751,657.376 586.251,656.376 585.5,655.5C 584.284,656.002 583.117,656.335 582,656.5C 581.25,655.874 580.416,655.374 579.5,655C 579.588,653.422 579.588,651.922 579.5,650.5C 578.713,651.242 578.047,652.075 577.5,653C 578.451,653.718 578.617,654.551 578,655.5C 576.702,654.44 575.535,653.274 574.5,652C 574.645,651.228 574.978,650.561 575.5,650C 574.119,648.375 572.452,647.208 570.5,646.5C 567.937,646.737 567.937,647.237 570.5,648C 568.899,648.273 567.399,648.773 566,649.5C 564.49,647.792 562.99,646.126 561.5,644.5C 559.799,645.802 558.632,647.469 558,649.5C 556.004,649.004 554.337,648.004 553,646.5C 552,647.833 551,647.833 550,646.5C 549.667,647.833 549.333,649.167 549,650.5C 548.529,648.754 547.862,647.087 547,645.5C 546.395,647.481 545.395,647.815 544,646.5C 543.751,647.624 543.251,648.624 542.5,649.5C 541.072,645.944 538.739,644.944 535.5,646.5C 535.775,651.22 534.941,651.554 533,647.5C 531.657,648.214 530.324,647.88 529,646.5C 528.717,649.742 527.883,650.076 526.5,647.5C 524.644,648.276 523.311,649.609 522.5,651.5C 520.742,650.872 519.242,649.872 518,648.5C 516.915,649.293 515.748,649.96 514.5,650.5C 512.674,648.837 510.84,647.17 509,645.5C 507.526,647.915 505.86,647.915 504,645.5C 502.043,646.884 501.043,646.217 501,643.5C 500.683,645.301 500.016,645.634 499,644.5C 498.667,646.167 498.333,647.833 498,649.5C 496.529,647.098 495.029,647.264 493.5,650C 494.167,650.333 494.833,650.667 495.5,651C 492.111,652.544 489.111,654.711 486.5,657.5C 505.454,633.211 524.787,609.211 544.5,585.5C 549.5,580.167 554.5,574.833 559.5,569.5C 560.5,569.5 561.5,569.5 562.5,569.5C 564.294,566.954 566.127,564.287 568,561.5C 568.333,561.833 568.667,562.167 569,562.5C 570.019,561.313 571.186,560.313 572.5,559.5C 576.987,562.729 581.154,562.062 585,557.5C 586.892,557.777 588.225,558.777 589,560.5C 590.385,559.449 591.385,558.116 592,556.5C 593.716,557.552 594.716,556.886 595,554.5C 599.496,555.873 599.329,557.707 594.5,560C 596.101,560.273 597.601,560.773 599,561.5C 599.637,559.697 600.803,558.364 602.5,557.5C 601.833,557.167 601.167,556.833 600.5,556.5C 602.007,555.261 603.174,555.595 604,557.5C 604.333,556.833 604.667,556.167 605,555.5C 604.621,560.778 605.621,560.778 608,555.5C 609.284,556.572 609.617,557.905 609,559.5C 611.132,558.22 613.298,558.22 615.5,559.5C 616.912,558.194 618.579,557.36 620.5,557C 619.346,556.086 619.513,555.253 621,554.5C 622.667,555.5 624.333,556.5 626,557.5C 629.086,553.837 630.419,554.837 630,560.5C 630.309,559.234 630.809,558.067 631.5,557C 631.167,556.667 630.833,556.333 630.5,556C 631.416,555.626 632.25,555.126 633,554.5C 634.343,556.839 635.676,559.172 637,561.5C 639.354,556.113 642.188,551.113 645.5,546.5 Z"/></g>
<g><path style="opacity:1" fill="#f7b02f" d="M 478.5,615.5 C 464.857,632.148 451.19,648.814 437.5,665.5C 433.398,670.105 429.064,674.605 424.5,679C 420.507,679.753 417.674,678.253 416,674.5C 419.172,663.145 422.672,651.812 426.5,640.5C 429.967,630.767 433.634,621.1 437.5,611.5C 438.896,610.973 439.896,609.473 440.5,607C 441.974,605.684 443.641,604.684 445.5,604C 444.167,603.333 444.167,602.667 445.5,602C 444.328,601.581 443.328,600.915 442.5,600C 444.186,595.458 446.019,590.958 448,586.5C 448.49,587.793 448.657,589.127 448.5,590.5C 451.808,591.026 453.974,589.693 455,586.5C 455.976,590.183 457.643,590.849 460,588.5C 460.308,589.308 460.808,589.975 461.5,590.5C 463.64,589.894 465.807,590.227 468,591.5C 468.667,590.833 469.333,590.167 470,589.5C 472.497,591.328 474.83,593.328 477,595.5C 479.224,592.52 482.057,592.187 485.5,594.5C 486.5,593.167 487.5,591.833 488.5,590.5C 489.086,590.709 489.586,591.043 490,591.5C 490.674,590.422 491.674,589.755 493,589.5C 495.372,588.233 497.538,588.4 499.5,590C 498.531,591.758 497.364,592.258 496,591.5C 495.781,592.938 495.281,594.271 494.5,595.5C 493.914,595.291 493.414,594.957 493,594.5C 490.904,595.715 491.071,596.549 493.5,597C 492.083,599.826 490.583,599.993 489,597.5C 487.806,599.623 487.14,601.957 487,604.5C 484.621,606.513 482.121,608.346 479.5,610C 479.957,610.414 480.291,610.914 480.5,611.5C 479.37,612.622 478.703,613.956 478.5,615.5 Z"/></g>
<g><path style="opacity:1" fill="#744df5" d="M 594.5,645.5 C 588.596,658.977 581.929,671.977 574.5,684.5C 569.774,692.276 565.274,700.276 561,708.5C 559.795,707.929 558.628,707.262 557.5,706.5C 558.167,706.167 558.833,705.833 559.5,705.5C 558.52,704.019 557.353,702.685 556,701.5C 555.235,704.196 554.068,706.696 552.5,709C 550.701,707.624 548.535,706.457 546,705.5C 545.667,706.5 545.333,707.5 545,708.5C 544.667,708.167 544.333,707.833 544,707.5C 541.838,709.199 539.672,710.032 537.5,710C 537.694,711.43 537.694,712.93 537.5,714.5C 536.808,713.975 536.308,713.308 536,712.5C 534.028,713.305 532.528,714.639 531.5,716.5C 530.808,715.975 530.308,715.308 530,714.5C 528.667,715.833 527.333,715.833 526,714.5C 525.667,715.167 525.333,715.833 525,716.5C 523.439,714.027 521.439,712.027 519,710.5C 517.484,713.051 516.651,712.718 516.5,709.5C 515.325,709.281 514.325,709.614 513.5,710.5C 513.167,711.833 512.833,713.167 512.5,714.5C 514.047,714.207 515.714,714.707 517.5,716C 514.247,716.611 511.247,717.778 508.5,719.5C 507.713,718.758 507.047,717.925 506.5,717C 510.514,712.184 510.181,711.684 505.5,715.5C 502.579,714.593 499.579,714.26 496.5,714.5C 496.649,715.552 496.483,716.552 496,717.5C 495.667,717.167 495.333,716.833 495,716.5C 491.247,723.3 487.58,723.966 484,718.5C 482.644,719.38 481.144,719.714 479.5,719.5C 479.67,718.178 479.337,717.011 478.5,716C 479.978,714.807 481.312,714.307 482.5,714.5C 478.766,713.272 478.599,711.605 482,709.5C 482.914,710.654 483.747,710.487 484.5,709C 483.874,708.25 483.374,707.416 483,706.5C 481.165,707.119 478.999,707.286 476.5,707C 478.301,706.683 478.634,706.016 477.5,705C 474.728,704.474 472.062,703.641 469.5,702.5C 468.204,699.838 466.704,696.838 465,693.5C 464,694.5 463,695.5 462,696.5C 461.819,694.326 462.652,692.493 464.5,691C 463.159,689.705 461.826,689.205 460.5,689.5C 468.841,678.5 477.508,667.833 486.5,657.5C 489.111,654.711 492.111,652.544 495.5,651C 494.833,650.667 494.167,650.333 493.5,650C 495.029,647.264 496.529,647.098 498,649.5C 498.333,647.833 498.667,646.167 499,644.5C 500.016,645.634 500.683,645.301 501,643.5C 501.043,646.217 502.043,646.884 504,645.5C 505.86,647.915 507.526,647.915 509,645.5C 510.84,647.17 512.674,648.837 514.5,650.5C 515.748,649.96 516.915,649.293 518,648.5C 519.242,649.872 520.742,650.872 522.5,651.5C 523.311,649.609 524.644,648.276 526.5,647.5C 527.883,650.076 528.717,649.742 529,646.5C 530.324,647.88 531.657,648.214 533,647.5C 534.941,651.554 535.775,651.22 535.5,646.5C 538.739,644.944 541.072,645.944 542.5,649.5C 543.251,648.624 543.751,647.624 544,646.5C 545.395,647.815 546.395,647.481 547,645.5C 547.862,647.087 548.529,648.754 549,650.5C 549.333,649.167 549.667,647.833 550,646.5C 551,647.833 552,647.833 553,646.5C 554.337,648.004 556.004,649.004 558,649.5C 558.632,647.469 559.799,645.802 561.5,644.5C 562.99,646.126 564.49,647.792 566,649.5C 567.399,648.773 568.899,648.273 570.5,648C 567.937,647.237 567.937,646.737 570.5,646.5C 572.452,647.208 574.119,648.375 575.5,650C 574.978,650.561 574.645,651.228 574.5,652C 575.535,653.274 576.702,654.44 578,655.5C 578.617,654.551 578.451,653.718 577.5,653C 578.047,652.075 578.713,651.242 579.5,650.5C 579.588,651.922 579.588,653.422 579.5,655C 580.416,655.374 581.25,655.874 582,656.5C 583.117,656.335 584.284,656.002 585.5,655.5C 586.251,656.376 586.751,657.376 587,658.5C 589.022,653.777 591.522,649.443 594.5,645.5 Z"/></g>
<g><path style="opacity:1" fill="#6445ee" d="M 544.5,541.5 C 544.539,542.583 544.873,543.583 545.5,544.5C 543.995,545.842 543.328,547.508 543.5,549.5C 538.128,550.702 535.628,554.036 536,559.5C 536.741,558.359 537.575,558.359 538.5,559.5C 539.731,558.349 539.731,557.183 538.5,556C 539.715,553.904 540.549,554.071 541,556.5C 543.136,555.97 544.97,556.803 546.5,559C 545.273,560.587 545.606,561.921 547.5,563C 543.386,565.148 543.719,566.482 548.5,567C 544.815,568.761 545.148,570.428 549.5,572C 547.567,572.251 545.734,572.751 544,573.5C 544.744,574.207 545.244,575.541 545.5,577.5C 544.022,577.238 542.689,577.571 541.5,578.5C 541.694,580.07 541.694,581.57 541.5,583C 542.078,584.417 543.078,585.25 544.5,585.5C 524.787,609.211 505.454,633.211 486.5,657.5C 477.508,667.833 468.841,678.5 460.5,689.5C 461.826,689.205 463.159,689.705 464.5,691C 462.652,692.493 461.819,694.326 462,696.5C 463,695.5 464,694.5 465,693.5C 466.704,696.838 468.204,699.838 469.5,702.5C 472.062,703.641 474.728,704.474 477.5,705C 478.634,706.016 478.301,706.683 476.5,707C 478.999,707.286 481.165,707.119 483,706.5C 483.374,707.416 483.874,708.25 484.5,709C 483.747,710.487 482.914,710.654 482,709.5C 478.599,711.605 478.766,713.272 482.5,714.5C 481.312,714.307 479.978,714.807 478.5,716C 479.337,717.011 479.67,718.178 479.5,719.5C 481.144,719.714 482.644,719.38 484,718.5C 487.58,723.966 491.247,723.3 495,716.5C 495.333,716.833 495.667,717.167 496,717.5C 496.483,716.552 496.649,715.552 496.5,714.5C 499.579,714.26 502.579,714.593 505.5,715.5C 510.181,711.684 510.514,712.184 506.5,717C 507.047,717.925 507.713,718.758 508.5,719.5C 511.247,717.778 514.247,716.611 517.5,716C 515.714,714.707 514.047,714.207 512.5,714.5C 512.833,713.167 513.167,711.833 513.5,710.5C 514.325,709.614 515.325,709.281 516.5,709.5C 516.651,712.718 517.484,713.051 519,710.5C 521.439,712.027 523.439,714.027 525,716.5C 525.333,715.833 525.667,715.167 526,714.5C 527.333,715.833 528.667,715.833 530,714.5C 530.308,715.308 530.808,715.975 531.5,716.5C 532.528,714.639 534.028,713.305 536,712.5C 536.308,713.308 536.808,713.975 537.5,714.5C 537.694,712.93 537.694,711.43 537.5,710C 539.672,710.032 541.838,709.199 544,707.5C 544.333,707.833 544.667,708.167 545,708.5C 545.333,707.5 545.667,706.5 546,705.5C 548.535,706.457 550.701,707.624 552.5,709C 554.068,706.696 555.235,704.196 556,701.5C 557.353,702.685 558.52,704.019 559.5,705.5C 558.833,705.833 558.167,706.167 557.5,706.5C 558.628,707.262 559.795,707.929 561,708.5C 565.274,700.276 569.774,692.276 574.5,684.5C 557.552,719.061 540.052,753.394 522,787.5C 514.258,795.698 506.925,795.365 500,786.5C 479.139,746.109 458.305,705.775 437.5,665.5C 451.19,648.814 464.857,632.148 478.5,615.5C 500.129,590.536 522.129,565.869 544.5,541.5 Z"/></g>
</svg>
