<?xml version="1.0" encoding="UTF-8"?>
<!DOCTYPE svg PUBLIC "-//W3C//DTD SVG 1.1//EN" "http://www.w3.org/Graphics/SVG/1.1/DTD/svg11.dtd">
<svg xmlns="http://www.w3.org/2000/svg" version="1.1" width="1024px" height="1024px" style="shape-rendering:geometricPrecision; text-rendering:geometricPrecision; image-rendering:optimizeQuality; fill-rule:evenodd; clip-rule:evenodd" xmlns:xlink="http://www.w3.org/1999/xlink">
<g><path style="opacity:1" fill="#fefefe" d="M -0.5,-0.5 C 340.833,-0.5 682.167,-0.5 1023.5,-0.5C 1023.5,340.833 1023.5,682.167 1023.5,1023.5C 682.167,1023.5 340.833,1023.5 -0.5,1023.5C -0.5,682.167 -0.5,340.833 -0.5,-0.5 Z"/></g>
<g><path style="opacity:1" fill="#82cdad" d="M 310.5,221.5 C 310.5,221.833 310.5,222.167 310.5,222.5C 268.33,222.168 226.33,222.501 184.5,223.5C 183.957,223.44 183.624,223.107 183.5,222.5C 225.828,221.5 268.161,221.167 310.5,221.5 Z"/></g>
<g><path style="opacity:1" fill="#6f7b89" d="M 310.5,221.5 C 348.337,221.168 386.004,221.502 423.5,222.5C 385.996,222.168 348.663,222.502 311.5,223.5C 310.833,223.5 310.5,223.167 310.5,222.5C 310.5,222.167 310.5,221.833 310.5,221.5 Z"/></g>
<g><path style="opacity:1" fill="#6f7b89" d="M 600.5,222.5 C 637.996,221.502 675.663,221.168 713.5,221.5C 713.5,221.833 713.5,222.167 713.5,222.5C 713.5,223.167 713.167,223.5 712.5,223.5C 675.337,222.502 638.004,222.168 600.5,222.5 Z"/></g>
<g><path style="opacity:1" fill="#8cd1ad" d="M 713.5,222.5 C 713.5,222.167 713.5,221.833 713.5,221.5C 755.505,221.167 797.505,221.5 839.5,222.5C 839.376,223.107 839.043,223.44 838.5,223.5C 797.003,222.501 755.337,222.168 713.5,222.5 Z"/></g>
<g><path style="opacity:1" fill="#010e27" d="M 311.5,223.5 C 348.663,222.502 385.996,222.168 423.5,222.5C 424.773,224.713 425.773,227.046 426.5,229.5C 424.821,228 423.488,226.167 422.5,224C 385.502,223.5 348.502,223.333 311.5,223.5 Z"/></g>
<g><path style="opacity:1" fill="#000d26" d="M 600.5,222.5 C 638.004,222.168 675.337,222.502 712.5,223.5C 675.498,223.333 638.498,223.5 601.5,224C 600.956,224.717 600.289,225.217 599.5,225.5C 599.557,224.391 599.89,223.391 600.5,222.5 Z"/></g>
<g><path style="opacity:1" fill="#40b285" d="M 313.5,227.5 C 379.64,341.104 445.807,454.77 512,568.5C 543.261,514.305 574.761,460.305 606.5,406.5C 607.885,405.426 609.051,404.093 610,402.5C 609.647,404.228 609.481,405.894 609.5,407.5C 610.262,407.911 611.262,408.077 612.5,408C 613.809,410.68 613.809,413.346 612.5,416C 613.509,417.168 614.509,418.335 615.5,419.5C 614.044,419.322 612.711,420.156 611.5,422C 612.833,423 612.833,424 611.5,425C 612.784,425.684 613.951,425.517 615,424.5C 615.783,426.433 615.283,427.933 613.5,429C 613.799,430.32 613.966,431.82 614,433.5C 616.178,432.107 617.178,430.44 617,428.5C 619,429.167 620.333,430.5 621,432.5C 621.667,431.833 622.333,431.167 623,430.5C 624.473,430.132 625.973,430.632 627.5,432C 625.833,432.333 624.167,432.667 622.5,433C 623.167,433.333 623.833,433.667 624.5,434C 623.449,435.385 622.116,436.385 620.5,437C 621.167,438.667 621.833,440.333 622.5,442C 619.736,443.544 619.903,444.711 623,445.5C 623.333,445.167 623.667,444.833 624,444.5C 624.863,446.749 624.363,448.582 622.5,450C 623.448,450.483 624.448,450.649 625.5,450.5C 625.773,446.883 627.44,445.217 630.5,445.5C 629.902,446.795 629.402,448.128 629,449.5C 628.586,449.043 628.086,448.709 627.5,448.5C 626.289,449.274 626.289,450.107 627.5,451C 626.167,452 624.833,453 623.5,454C 625.519,454.45 627.352,455.283 629,456.5C 629.333,456.167 629.667,455.833 630,455.5C 630.309,456.766 630.809,457.933 631.5,459C 630.5,460.667 629.5,462.333 628.5,464C 629.167,464.333 629.833,464.667 630.5,465C 629.209,467.09 629.876,468.424 632.5,469C 631.929,470.205 631.262,471.372 630.5,472.5C 628.902,471.515 627.235,471.349 625.5,472C 626.71,473.932 628.71,475.765 631.5,477.5C 630.833,478.5 630.167,479.5 629.5,480.5C 630.792,482.667 631.625,485 632,487.5C 633.073,486.72 634.24,486.887 635.5,488C 635.943,489.518 635.276,490.685 633.5,491.5C 636.471,497.098 635.638,497.764 631,493.5C 630.833,493.833 630.667,494.167 630.5,494.5C 632.585,496.852 634.085,499.518 635,502.5C 636.284,501.428 636.617,500.095 636,498.5C 637.587,499.727 638.921,499.394 640,497.5C 640.315,498.908 639.982,500.241 639,501.5C 638.667,501.167 638.333,500.833 638,500.5C 637.333,501.833 637.333,503.167 638,504.5C 638.333,504.167 638.667,503.833 639,503.5C 639.976,505.887 641.809,507.054 644.5,507C 642.31,509.356 640.31,511.856 638.5,514.5C 639.687,515.519 640.687,516.686 641.5,518C 641.167,518.333 640.833,518.667 640.5,519C 642.286,519.785 643.786,520.951 645,522.5C 645.374,521.584 645.874,520.75 646.5,520C 645.692,519.692 645.025,519.192 644.5,518.5C 645.603,518.002 646.603,517.669 647.5,517.5C 646.167,516.38 645.667,515.047 646,513.5C 648,514.167 650,514.833 652,515.5C 652.827,514.338 653.66,513.171 654.5,512C 654.355,511.228 654.022,510.561 653.5,510C 654.667,508.167 656.167,506.667 658,505.5C 658.667,503.5 659.333,501.5 660,499.5C 660.333,500.167 660.667,500.833 661,501.5C 661.309,500.234 661.809,499.067 662.5,498C 662.167,497.667 661.833,497.333 661.5,497C 662.77,496.1 663.77,494.934 664.5,493.5C 664.205,494.826 664.705,496.159 666,497.5C 666.833,496 668,494.833 669.5,494C 668.833,493.667 668.167,493.333 667.5,493C 668.833,492.333 670.167,491.667 671.5,491C 670.833,490.667 670.167,490.333 669.5,490C 670.5,489 671.5,488 672.5,487C 671.833,486.667 671.167,486.333 670.5,486C 671.965,483.201 674.132,481.035 677,479.5C 677.44,477.924 678.273,476.59 679.5,475.5C 678.145,474.325 678.312,473.325 680,472.5C 680.333,473.167 680.667,473.833 681,474.5C 681.684,473.216 681.517,472.049 680.5,471C 683.464,470.16 683.797,469.16 681.5,468C 683.246,467.529 684.913,466.862 686.5,466C 685.289,465.107 685.289,464.274 686.5,463.5C 687.086,463.709 687.586,464.043 688,464.5C 688.684,463.216 688.517,462.049 687.5,461C 688.253,459.513 689.086,459.346 690,460.5C 690.273,458.671 691.107,457.171 692.5,456C 691.833,455.667 691.167,455.333 690.5,455C 694.098,454.288 696.932,452.455 699,449.5C 697.969,445.75 699.469,443.25 703.5,442C 701.741,440.236 701.574,438.069 703,435.5C 703.333,435.833 703.667,436.167 704,436.5C 704.772,435.151 705.939,434.318 707.5,434C 707.335,432.883 707.002,431.716 706.5,430.5C 708.333,428.167 710.167,425.833 712,423.5C 714.575,425.061 716.742,426.395 718.5,427.5C 711.301,439.325 704.635,451.325 698.5,463.5C 653.655,541.868 608.321,619.868 562.5,697.5C 559.193,701.426 556.36,705.76 554,710.5C 553.599,708.479 552.432,707.145 550.5,706.5C 548.723,707.901 547.056,709.401 545.5,711C 547.797,712.16 547.464,713.16 544.5,714C 544.833,714.333 545.167,714.667 545.5,715C 542.96,716.04 541.293,717.874 540.5,720.5C 539.914,720.291 539.414,719.957 539,719.5C 538.316,720.784 538.483,721.951 539.5,723C 538.809,724.067 538.309,725.234 538,726.5C 537.586,726.043 537.086,725.709 536.5,725.5C 535.833,727.5 535.167,729.5 534.5,731.5C 533.268,732.145 531.935,732.311 530.5,732C 529.206,735.98 526.539,737.314 522.5,736C 523.696,735.346 523.696,734.846 522.5,734.5C 520.629,735.767 518.796,735.767 517,734.5C 516.444,736.595 515.944,736.762 515.5,735C 515.905,734.055 516.572,733.388 517.5,733C 517.167,732.667 516.833,732.333 516.5,732C 519.251,731.484 521.584,730.317 523.5,728.5C 522.24,727.618 521.074,726.618 520,725.5C 519.28,727.255 518.113,728.089 516.5,728C 517.833,727.333 517.833,726.667 516.5,726C 517.167,725.667 517.833,725.333 518.5,725C 516.693,723.398 514.693,722.064 512.5,721C 514.454,720.579 516.621,719.746 519,718.5C 520.152,720.512 521.318,720.678 522.5,719C 521.44,710.829 519.273,710.662 516,718.5C 515.758,716.862 514.925,715.362 513.5,714C 515.125,713.147 515.458,712.147 514.5,711C 515.899,710.405 517.232,710.572 518.5,711.5C 519.382,710.24 520.382,709.074 521.5,708C 519.963,706.89 519.297,705.39 519.5,703.5C 515.582,703.254 511.916,704.587 508.5,707.5C 507.522,707.023 506.689,706.357 506,705.5C 504.184,707.441 502.184,708.108 500,707.5C 499.383,706.551 499.549,705.718 500.5,705C 497.772,704.361 497.272,703.194 499,701.5C 499.423,702.956 500.256,703.456 501.5,703C 500.066,700.779 498.066,699.279 495.5,698.5C 496.035,696.729 496.869,696.396 498,697.5C 497.792,691.754 496.625,691.421 494.5,696.5C 493.646,695.478 492.646,694.645 491.5,694C 492.167,693.667 492.833,693.333 493.5,693C 492.354,692.355 491.354,691.522 490.5,690.5C 490.264,691.247 489.93,692.08 489.5,693C 485.992,693.731 485.659,693.064 488.5,691C 487.351,689.27 487.351,687.604 488.5,686C 487.675,684.312 486.675,684.145 485.5,685.5C 483.983,683.815 482.316,682.315 480.5,681C 481.051,679.602 481.384,678.268 481.5,677C 480.256,676.544 479.423,677.044 479,678.5C 478.316,677.216 478.483,676.049 479.5,675C 478.551,674.383 477.718,674.549 477,675.5C 476.508,674.451 476.674,673.451 477.5,672.5C 474.323,672.235 473.99,670.735 476.5,668C 469.347,666.935 469.013,665.601 475.5,664C 472.833,663.333 472.833,662.667 475.5,662C 473.109,661.309 473.109,660.309 475.5,659C 474.78,656.878 473.613,656.378 472,657.5C 471.489,655.122 470.822,652.788 470,650.5C 469.396,652.686 468.23,652.852 466.5,651C 468.221,649.473 470.221,648.473 472.5,648C 471.833,647.333 471.167,646.667 470.5,646C 471.051,644.602 471.384,643.268 471.5,642C 469.924,641.612 468.591,642.112 467.5,643.5C 468.326,644.451 468.492,645.451 468,646.5C 465.333,644.5 463,642.167 461,639.5C 459.817,640.731 458.651,640.731 457.5,639.5C 459.5,638.167 461.167,636.5 462.5,634.5C 461.846,632.885 461.346,631.218 461,629.5C 460.641,632.544 459.974,632.878 459,630.5C 458.16,633.464 457.16,633.797 456,631.5C 455.784,633.384 455.117,635.051 454,636.5C 454.498,634.473 454.331,632.473 453.5,630.5C 448.608,632.015 447.941,631.515 451.5,629C 449.417,627.68 449.751,626.346 452.5,625C 451.978,624.439 451.645,623.772 451.5,623C 450.518,621.946 449.351,621.446 448,621.5C 447.333,622.833 446.667,624.167 446,625.5C 444.176,624.251 444.343,623.085 446.5,622C 446.167,621.667 445.833,621.333 445.5,621C 446.872,620.369 448.205,619.702 449.5,619C 450.3,617.212 450.634,615.545 450.5,614C 447.798,615.348 444.964,615.848 442,615.5C 442.266,613.536 443.433,612.036 445.5,611C 442.785,610.125 441.452,608.292 441.5,605.5C 440.178,605.33 439.011,605.663 438,606.5C 437.626,605.584 437.126,604.75 436.5,604C 437.667,602.167 439.167,600.667 441,599.5C 441.438,595.271 440.105,594.604 437,597.5C 436.333,596.167 435.333,595.167 434,594.5C 432.266,595.638 430.432,596.138 428.5,596C 430.381,594.128 430.381,591.961 428.5,589.5C 427.391,590.59 426.391,590.59 425.5,589.5C 426.5,588.833 427.5,588.167 428.5,587.5C 428.154,586.304 427.654,586.304 427,587.5C 426.89,585.152 425.723,583.652 423.5,583C 424.641,582.259 424.641,581.425 423.5,580.5C 424.98,579.887 426.313,579.554 427.5,579.5C 426.758,577.65 425.758,576.984 424.5,577.5C 425.376,576.749 426.376,576.249 427.5,576C 426.322,575.033 424.989,574.533 423.5,574.5C 422.813,572.726 421.98,571.059 421,569.5C 420.383,570.449 420.549,571.282 421.5,572C 420.584,572.374 419.75,572.874 419,573.5C 415.804,571.189 414.971,568.189 416.5,564.5C 415.726,563.289 414.893,563.289 414,564.5C 413.508,563.451 413.674,562.451 414.5,561.5C 413.02,560.887 411.687,560.554 410.5,560.5C 411.167,559.833 411.833,559.167 412.5,558.5C 408.828,557.769 408.161,556.269 410.5,554C 408.136,552.988 406.802,551.655 406.5,550C 407.167,549 407.833,548 408.5,547C 407.167,544.667 405.833,542.333 404.5,540C 408.398,537.852 408.398,535.686 404.5,533.5C 403.201,534.09 402.368,535.09 402,536.5C 400.738,534.697 399.071,533.364 397,532.5C 395.561,530.725 394.561,528.725 394,526.5C 393.667,526.833 393.333,527.167 393,527.5C 392.5,526.333 391.667,525.5 390.5,525C 392.23,523.148 393.396,523.314 394,525.5C 395.927,523.407 395.76,521.407 393.5,519.5C 392.914,519.709 392.414,520.043 392,520.5C 391.316,519.216 391.483,518.049 392.5,517C 390.026,516.887 388.026,515.887 386.5,514C 387.167,513.333 387.833,512.667 388.5,512C 386.939,511.682 385.772,510.849 385,509.5C 384.316,511.359 383.316,513.026 382,514.5C 381.412,511.787 381.745,510.12 383,509.5C 382.667,509.167 382.333,508.833 382,508.5C 380.933,509.191 379.766,509.691 378.5,510C 379.167,510.333 379.833,510.667 380.5,511C 378.842,511.725 378.342,512.892 379,514.5C 380.087,512.068 380.587,512.402 380.5,515.5C 379.5,515.5 378.5,515.5 377.5,515.5C 377.5,513.167 377.5,510.833 377.5,508.5C 381.327,508.56 381.994,507.393 379.5,505C 379.833,504.667 380.167,504.333 380.5,504C 379.019,503.02 377.685,501.853 376.5,500.5C 378.645,499.318 378.645,497.818 376.5,496C 377.167,495.667 377.833,495.333 378.5,495C 376.578,494.61 374.578,493.61 372.5,492C 372.833,491.667 373.167,491.333 373.5,491C 372.552,490.517 371.552,490.351 370.5,490.5C 369.862,488.54 369.862,486.707 370.5,485C 369.266,481.865 367.266,480.365 364.5,480.5C 365.145,478.568 366.479,477.401 368.5,477C 366.186,475.602 363.853,475.435 361.5,476.5C 360.833,475.167 360.167,473.833 359.5,472.5C 358.575,471.359 357.741,471.359 357,472.5C 356.138,470.913 355.471,469.246 355,467.5C 354.282,468.451 353.449,468.617 352.5,468C 353.191,466.933 353.691,465.766 354,464.5C 354.333,465.167 354.667,465.833 355,466.5C 356.204,465.529 356.704,464.529 356.5,463.5C 358.488,464.289 358.821,465.455 357.5,467C 358.261,471.358 359.428,471.525 361,467.5C 361.197,472.178 362.197,472.512 364,468.5C 363.954,470.313 364.12,471.979 364.5,473.5C 366.018,471.486 366.685,469.486 366.5,467.5C 365.5,466.833 364.5,466.167 363.5,465.5C 364.855,464.325 364.688,463.325 363,462.5C 360.871,463.863 360.371,463.529 361.5,461.5C 360.265,458.956 359.099,458.956 358,461.5C 356.667,458.833 355.333,458.833 354,461.5C 352.56,459.954 350.727,459.121 348.5,459C 349.805,456.373 349.805,453.206 348.5,449.5C 346.218,447.755 344.218,446.421 342.5,445.5C 343.641,444.575 343.641,443.741 342.5,443C 343.362,440.266 344.195,440.099 345,442.5C 345.334,440.153 345.167,437.819 344.5,435.5C 342.61,435.297 341.11,435.963 340,437.5C 339.424,434.876 338.09,434.209 336,435.5C 332.606,433.516 332.273,431.516 335,429.5C 335.333,429.833 335.667,430.167 336,430.5C 337.11,428.603 337.276,426.77 336.5,425C 337.5,424.333 338.5,424.333 339.5,425C 338.289,425.893 338.289,426.726 339.5,427.5C 341.115,425.378 341.615,423.045 341,420.5C 340.667,421.5 340.333,422.5 340,423.5C 339.333,422.167 338.667,422.167 338,423.5C 334.966,421.161 331.8,419.827 328.5,419.5C 329.09,418.201 330.09,417.368 331.5,417C 330.167,415.16 330.334,414.66 332,415.5C 332.5,415 333,414.5 333.5,414C 330.732,412.238 329.232,409.738 329,406.5C 328.174,408.405 327.007,408.739 325.5,407.5C 328.366,399.376 326.032,396.71 318.5,399.5C 317.713,398.758 317.047,397.925 316.5,397C 318.443,397.305 320.443,397.305 322.5,397C 322.461,395.755 322.795,394.422 323.5,393C 321.521,390.67 319.521,388.337 317.5,386C 316.5,385.667 315.5,385.333 314.5,385C 315.834,382.34 316.668,379.506 317,376.5C 317.669,379.028 318.502,379.028 319.5,376.5C 318.902,375.205 318.402,373.872 318,372.5C 316.984,373.634 316.317,373.301 316,371.5C 315.915,373.085 315.749,374.418 315.5,375.5C 314.232,373.696 313.565,371.696 313.5,369.5C 312.325,369.719 311.325,369.386 310.5,368.5C 311.833,367.833 313.167,367.167 314.5,366.5C 311.727,365.747 309.06,364.747 306.5,363.5C 308.07,363.306 309.57,363.306 311,363.5C 314.274,361.241 314.107,360.408 310.5,361C 308.833,359.333 307.167,357.667 305.5,356C 306.747,354.542 306.747,353.042 305.5,351.5C 306.025,350.808 306.692,350.308 307.5,350C 307.167,349.667 306.833,349.333 306.5,349C 307.191,347.933 307.691,346.766 308,345.5C 308.718,346.451 309.551,346.617 310.5,346C 306.055,342.896 302.222,343.73 299,348.5C 298.316,347.216 298.483,346.049 299.5,345C 296.768,344.602 294.935,343.102 294,340.5C 293.667,340.833 293.333,341.167 293,341.5C 292.097,340.299 290.931,339.465 289.5,339C 289.93,338.08 290.264,337.247 290.5,336.5C 294.735,338.26 295.568,337.26 293,333.5C 291.15,335.962 289.983,335.462 289.5,332C 290.147,330.007 291.813,328.341 294.5,327C 292.56,327.178 290.893,326.178 289.5,324C 290.167,323.333 290.833,322.667 291.5,322C 290.044,321.577 289.544,320.744 290,319.5C 291.205,318.929 292.372,318.262 293.5,317.5C 291.366,317.846 289.533,316.846 288,314.5C 287.667,315.167 287.333,315.833 287,316.5C 285.956,314.285 285.29,311.952 285,309.5C 283.007,313.256 281.174,313.256 279.5,309.5C 280.902,308.158 280.569,307.324 278.5,307C 281.097,304.967 283.263,305.467 285,308.5C 285.507,307.004 285.007,305.837 283.5,305C 284.738,305.077 285.738,304.911 286.5,304.5C 283.729,303.783 281.063,303.449 278.5,303.5C 277.833,305.167 277.167,306.833 276.5,308.5C 273.873,305.599 272.706,302.266 273,298.5C 273.741,299.641 274.575,299.641 275.5,298.5C 276.712,296.59 276.379,296.256 274.5,297.5C 273.833,296.5 273.167,295.5 272.5,294.5C 271.5,295.833 270.5,295.833 269.5,294.5C 268.749,295.376 268.249,296.376 268,297.5C 266.367,296.17 264.867,295.504 263.5,295.5C 264.103,294.365 264.436,293.365 264.5,292.5C 266.098,293.485 267.765,293.651 269.5,293C 268.5,292.667 267.5,292.333 266.5,292C 266.833,291.667 267.167,291.333 267.5,291C 266.541,289.293 265.875,287.459 265.5,285.5C 264.811,283.647 263.478,282.481 261.5,282C 264.954,281.707 265.288,280.374 262.5,278C 263.167,277.333 263.833,276.667 264.5,276C 261.888,275.361 259.554,274.194 257.5,272.5C 257.002,273.603 256.669,274.603 256.5,275.5C 253.696,272.936 254.029,271.103 257.5,270C 255.023,267.239 255.356,265.406 258.5,264.5C 256.972,263.139 255.305,261.972 253.5,261C 255.176,259.823 256.509,258.323 257.5,256.5C 256.011,256.467 254.678,255.967 253.5,255C 254.833,253.667 256.167,252.333 257.5,251C 256.646,249.978 255.646,249.145 254.5,248.5C 254.874,249.771 254.208,250.938 252.5,252C 251.069,252.465 249.903,253.299 249,254.5C 248.833,254 248.667,253.5 248.5,253C 249.34,251.233 250.673,249.899 252.5,249C 249.736,247.456 249.903,246.289 253,245.5C 254.079,247.394 255.413,247.727 257,246.5C 256.102,245.84 255.768,244.507 256,242.5C 257.587,243.727 258.921,243.394 260,241.5C 264.442,245.534 265.942,245.034 264.5,240C 265,239.5 265.5,239 266,238.5C 266.92,238.93 267.753,239.264 268.5,239.5C 267.833,240.5 267.167,241.5 266.5,242.5C 266.833,242.833 267.167,243.167 267.5,243.5C 269.069,242.286 269.902,240.619 270,238.5C 270.333,239.5 270.667,240.5 271,241.5C 271.368,240.09 272.201,239.09 273.5,238.5C 274.249,240.012 275.416,241.012 277,241.5C 279.367,239.755 281.867,238.255 284.5,237C 283.026,235.684 281.359,234.684 279.5,234C 281.644,233.956 283.477,232.789 285,230.5C 285.308,231.308 285.808,231.975 286.5,232.5C 286.833,231.833 287.167,231.167 287.5,230.5C 288.086,230.709 288.586,231.043 289,231.5C 289.402,230.128 289.902,228.795 290.5,227.5C 290.167,227.167 289.833,226.833 289.5,226.5C 288.506,230.481 287.506,230.481 286.5,226.5C 286.709,225.914 287.043,225.414 287.5,225C 295.167,224.333 302.833,224.333 310.5,225C 311.211,226.255 312.044,227.421 313,228.5C 313.399,228.272 313.565,227.938 313.5,227.5 Z"/></g>
<g><path style="opacity:1" fill="#2e3f54" d="M 311.5,223.5 C 348.502,223.333 385.502,223.5 422.5,224C 423.488,226.167 424.821,228 426.5,229.5C 455.155,276.806 483.822,324.139 512.5,371.5C 541.526,322.77 570.526,274.103 599.5,225.5C 600.289,225.217 600.956,224.717 601.5,224C 638.498,223.5 675.498,223.333 712.5,223.5C 696.581,250.336 680.914,277.336 665.5,304.5C 645.332,338.165 625.665,372.165 606.5,406.5C 574.761,460.305 543.261,514.305 512,568.5C 445.807,454.77 379.64,341.104 313.5,227.5C 312.833,226.167 312.167,224.833 311.5,223.5 Z"/></g>
<g><path style="opacity:1" fill="#4db884" d="M 713.5,222.5 C 755.337,222.168 797.003,222.501 838.5,223.5C 821.323,253.865 803.656,283.865 785.5,313.5C 784.341,314.456 783.174,315.456 782,316.5C 781.5,316.167 781,315.833 780.5,315.5C 781.711,314.28 781.711,313.113 780.5,312C 782.127,312.43 783.627,312.596 785,312.5C 786.5,310.167 788,307.833 789.5,305.5C 787.909,303.367 785.909,301.701 783.5,300.5C 782.261,302.007 782.595,303.174 784.5,304C 782.939,304.318 781.772,305.151 781,306.5C 780.195,304.099 779.362,304.266 778.5,307C 778.833,307.333 779.167,307.667 779.5,308C 777.919,308.707 776.419,309.54 775,310.5C 774.383,311.449 774.549,312.282 775.5,313C 774.167,313.667 772.833,314.333 771.5,315C 771.833,315.333 772.167,315.667 772.5,316C 771.107,317.171 770.273,318.671 770,320.5C 769.667,320.167 769.333,319.833 769,319.5C 768.138,321.087 767.471,322.754 767,324.5C 765.092,321.668 764.259,322.001 764.5,325.5C 767.907,325.125 768.407,326.125 766,328.5C 764.612,327.446 763.112,327.28 761.5,328C 762.791,330.09 762.124,331.424 759.5,332C 760.833,333.84 760.666,334.34 759,333.5C 757.513,334.253 757.346,335.086 758.5,336C 756.939,336.318 755.772,337.151 755,338.5C 754.667,338.167 754.333,337.833 754,337.5C 753.689,338.742 754.189,339.742 755.5,340.5C 752.875,342.081 751.542,344.415 751.5,347.5C 749.058,347.119 748.391,347.786 749.5,349.5C 748.329,351.169 746.996,352.669 745.5,354C 746.187,355.162 746.353,356.328 746,357.5C 745.667,357.167 745.333,356.833 745,356.5C 741.825,360.008 738.325,363.175 734.5,366C 733.101,366.595 731.768,366.428 730.5,365.5C 729.719,366.737 728.719,367.737 727.5,368.5C 727.406,366.761 727.239,364.761 727,362.5C 724.152,361.567 723.986,360.067 726.5,358C 724.714,357.804 723.381,356.971 722.5,355.5C 723.989,355.467 725.322,354.967 726.5,354C 722.309,352.811 720.143,349.977 720,345.5C 719.667,345.833 719.333,346.167 719,346.5C 717.064,343.897 714.564,342.064 711.5,341C 714.167,340.333 714.167,339.667 711.5,339C 712.696,338.346 712.696,337.846 711.5,337.5C 710.571,338.689 710.238,340.022 710.5,341.5C 706.944,341.725 706.61,340.892 709.5,339C 708.122,336.902 708.456,335.068 710.5,333.5C 707.408,329.636 704.574,325.636 702,321.5C 699.175,322.584 699.008,323.751 701.5,325C 700.833,325.667 700.167,326.333 699.5,327C 700.167,328.667 700.833,330.333 701.5,332C 699.983,333.779 699.149,333.279 699,330.5C 697.933,329.809 696.766,329.309 695.5,329C 699.279,327.89 699.446,326.39 696,324.5C 695.667,324.833 695.333,325.167 695,325.5C 693.07,323.242 691.57,320.742 690.5,318C 692.056,315.386 694.39,314.053 697.5,314C 695.336,313.63 693.336,312.796 691.5,311.5C 690.669,309.527 690.502,307.527 691,305.5C 690.198,308.681 688.531,311.347 686,313.5C 685.801,311.598 684.967,310.098 683.5,309C 684.634,307.984 684.301,307.317 682.5,307C 682.833,306.667 683.167,306.333 683.5,306C 682.365,305.251 681.365,305.417 680.5,306.5C 681.609,307.965 681.109,308.965 679,309.5C 678.383,308.551 678.549,307.718 679.5,307C 677.68,306.021 676.513,304.521 676,302.5C 675.751,303.624 675.251,304.624 674.5,305.5C 673.391,304.41 672.391,304.41 671.5,305.5C 673.403,311.855 672.403,312.688 668.5,308C 669.833,306.667 669.833,305.333 668.5,304C 671.985,303.507 672.485,302.007 670,299.5C 669,301.167 668,302.833 667,304.5C 666.31,305.738 665.81,305.738 665.5,304.5C 680.914,277.336 696.581,250.336 712.5,223.5C 713.167,223.5 713.5,223.167 713.5,222.5 Z"/></g>
<g><path style="opacity:1" fill="#47b685" d="M 785.5,313.5 C 757.291,364.023 728.291,414.023 698.5,463.5C 704.635,451.325 711.301,439.325 718.5,427.5C 716.742,426.395 714.575,425.061 712,423.5C 710.167,425.833 708.333,428.167 706.5,430.5C 707.002,431.716 707.335,432.883 707.5,434C 705.939,434.318 704.772,435.151 704,436.5C 703.667,436.167 703.333,435.833 703,435.5C 701.574,438.069 701.741,440.236 703.5,442C 699.469,443.25 697.969,445.75 699,449.5C 696.932,452.455 694.098,454.288 690.5,455C 691.167,455.333 691.833,455.667 692.5,456C 691.107,457.171 690.273,458.671 690,460.5C 689.086,459.346 688.253,459.513 687.5,461C 688.517,462.049 688.684,463.216 688,464.5C 687.586,464.043 687.086,463.709 686.5,463.5C 685.289,464.274 685.289,465.107 686.5,466C 684.913,466.862 683.246,467.529 681.5,468C 683.797,469.16 683.464,470.16 680.5,471C 681.517,472.049 681.684,473.216 681,474.5C 680.667,473.833 680.333,473.167 680,472.5C 678.312,473.325 678.145,474.325 679.5,475.5C 678.273,476.59 677.44,477.924 677,479.5C 674.132,481.035 671.965,483.201 670.5,486C 671.167,486.333 671.833,486.667 672.5,487C 671.5,488 670.5,489 669.5,490C 670.167,490.333 670.833,490.667 671.5,491C 670.167,491.667 668.833,492.333 667.5,493C 668.167,493.333 668.833,493.667 669.5,494C 668,494.833 666.833,496 666,497.5C 664.705,496.159 664.205,494.826 664.5,493.5C 663.77,494.934 662.77,496.1 661.5,497C 661.833,497.333 662.167,497.667 662.5,498C 661.809,499.067 661.309,500.234 661,501.5C 660.667,500.833 660.333,500.167 660,499.5C 659.333,501.5 658.667,503.5 658,505.5C 656.167,506.667 654.667,508.167 653.5,510C 654.022,510.561 654.355,511.228 654.5,512C 653.66,513.171 652.827,514.338 652,515.5C 650,514.833 648,514.167 646,513.5C 645.667,515.047 646.167,516.38 647.5,517.5C 646.603,517.669 645.603,518.002 644.5,518.5C 645.025,519.192 645.692,519.692 646.5,520C 645.874,520.75 645.374,521.584 645,522.5C 643.786,520.951 642.286,519.785 640.5,519C 640.833,518.667 641.167,518.333 641.5,518C 640.687,516.686 639.687,515.519 638.5,514.5C 640.31,511.856 642.31,509.356 644.5,507C 641.809,507.054 639.976,505.887 639,503.5C 638.667,503.833 638.333,504.167 638,504.5C 637.333,503.167 637.333,501.833 638,500.5C 638.333,500.833 638.667,501.167 639,501.5C 639.982,500.241 640.315,498.908 640,497.5C 638.921,499.394 637.587,499.727 636,498.5C 636.617,500.095 636.284,501.428 635,502.5C 634.085,499.518 632.585,496.852 630.5,494.5C 630.667,494.167 630.833,493.833 631,493.5C 635.638,497.764 636.471,497.098 633.5,491.5C 635.276,490.685 635.943,489.518 635.5,488C 634.24,486.887 633.073,486.72 632,487.5C 631.625,485 630.792,482.667 629.5,480.5C 630.167,479.5 630.833,478.5 631.5,477.5C 628.71,475.765 626.71,473.932 625.5,472C 627.235,471.349 628.902,471.515 630.5,472.5C 631.262,471.372 631.929,470.205 632.5,469C 629.876,468.424 629.209,467.09 630.5,465C 629.833,464.667 629.167,464.333 628.5,464C 629.5,462.333 630.5,460.667 631.5,459C 630.809,457.933 630.309,456.766 630,455.5C 629.667,455.833 629.333,456.167 629,456.5C 627.352,455.283 625.519,454.45 623.5,454C 624.833,453 626.167,452 627.5,451C 626.289,450.107 626.289,449.274 627.5,448.5C 628.086,448.709 628.586,449.043 629,449.5C 629.402,448.128 629.902,446.795 630.5,445.5C 627.44,445.217 625.773,446.883 625.5,450.5C 624.448,450.649 623.448,450.483 622.5,450C 624.363,448.582 624.863,446.749 624,444.5C 623.667,444.833 623.333,445.167 623,445.5C 619.903,444.711 619.736,443.544 622.5,442C 621.833,440.333 621.167,438.667 620.5,437C 622.116,436.385 623.449,435.385 624.5,434C 623.833,433.667 623.167,433.333 622.5,433C 624.167,432.667 625.833,432.333 627.5,432C 625.973,430.632 624.473,430.132 623,430.5C 622.333,431.167 621.667,431.833 621,432.5C 620.333,430.5 619,429.167 617,428.5C 617.178,430.44 616.178,432.107 614,433.5C 613.966,431.82 613.799,430.32 613.5,429C 615.283,427.933 615.783,426.433 615,424.5C 613.951,425.517 612.784,425.684 611.5,425C 612.833,424 612.833,423 611.5,422C 612.711,420.156 614.044,419.322 615.5,419.5C 614.509,418.335 613.509,417.168 612.5,416C 613.809,413.346 613.809,410.68 612.5,408C 611.262,408.077 610.262,407.911 609.5,407.5C 609.481,405.894 609.647,404.228 610,402.5C 609.051,404.093 607.885,405.426 606.5,406.5C 625.665,372.165 645.332,338.165 665.5,304.5C 665.81,305.738 666.31,305.738 667,304.5C 668,302.833 669,301.167 670,299.5C 672.485,302.007 671.985,303.507 668.5,304C 669.833,305.333 669.833,306.667 668.5,308C 672.403,312.688 673.403,311.855 671.5,305.5C 672.391,304.41 673.391,304.41 674.5,305.5C 675.251,304.624 675.751,303.624 676,302.5C 676.513,304.521 677.68,306.021 679.5,307C 678.549,307.718 678.383,308.551 679,309.5C 681.109,308.965 681.609,307.965 680.5,306.5C 681.365,305.417 682.365,305.251 683.5,306C 683.167,306.333 682.833,306.667 682.5,307C 684.301,307.317 684.634,307.984 683.5,309C 684.967,310.098 685.801,311.598 686,313.5C 688.531,311.347 690.198,308.681 691,305.5C 690.502,307.527 690.669,309.527 691.5,311.5C 693.336,312.796 695.336,313.63 697.5,314C 694.39,314.053 692.056,315.386 690.5,318C 691.57,320.742 693.07,323.242 695,325.5C 695.333,325.167 695.667,324.833 696,324.5C 699.446,326.39 699.279,327.89 695.5,329C 696.766,329.309 697.933,329.809 699,330.5C 699.149,333.279 699.983,333.779 701.5,332C 700.833,330.333 700.167,328.667 699.5,327C 700.167,326.333 700.833,325.667 701.5,325C 699.008,323.751 699.175,322.584 702,321.5C 704.574,325.636 707.408,329.636 710.5,333.5C 708.456,335.068 708.122,336.902 709.5,339C 706.61,340.892 706.944,341.725 710.5,341.5C 710.238,340.022 710.571,338.689 711.5,337.5C 712.696,337.846 712.696,338.346 711.5,339C 714.167,339.667 714.167,340.333 711.5,341C 714.564,342.064 717.064,343.897 719,346.5C 719.333,346.167 719.667,345.833 720,345.5C 720.143,349.977 722.309,352.811 726.5,354C 725.322,354.967 723.989,355.467 722.5,355.5C 723.381,356.971 724.714,357.804 726.5,358C 723.986,360.067 724.152,361.567 727,362.5C 727.239,364.761 727.406,366.761 727.5,368.5C 728.719,367.737 729.719,366.737 730.5,365.5C 731.768,366.428 733.101,366.595 734.5,366C 738.325,363.175 741.825,360.008 745,356.5C 745.333,356.833 745.667,357.167 746,357.5C 746.353,356.328 746.187,355.162 745.5,354C 746.996,352.669 748.329,351.169 749.5,349.5C 748.391,347.786 749.058,347.119 751.5,347.5C 751.542,344.415 752.875,342.081 755.5,340.5C 754.189,339.742 753.689,338.742 754,337.5C 754.333,337.833 754.667,338.167 755,338.5C 755.772,337.151 756.939,336.318 758.5,336C 757.346,335.086 757.513,334.253 759,333.5C 760.666,334.34 760.833,333.84 759.5,332C 762.124,331.424 762.791,330.09 761.5,328C 763.112,327.28 764.612,327.446 766,328.5C 768.407,326.125 767.907,325.125 764.5,325.5C 764.259,322.001 765.092,321.668 767,324.5C 767.471,322.754 768.138,321.087 769,319.5C 769.333,319.833 769.667,320.167 770,320.5C 770.273,318.671 771.107,317.171 772.5,316C 772.167,315.667 771.833,315.333 771.5,315C 772.833,314.333 774.167,313.667 775.5,313C 774.549,312.282 774.383,311.449 775,310.5C 776.419,309.54 777.919,308.707 779.5,308C 779.167,307.667 778.833,307.333 778.5,307C 779.362,304.266 780.195,304.099 781,306.5C 781.772,305.151 782.939,304.318 784.5,304C 782.595,303.174 782.261,302.007 783.5,300.5C 785.909,301.701 787.909,303.367 789.5,305.5C 788,307.833 786.5,310.167 785,312.5C 783.627,312.596 782.127,312.43 780.5,312C 781.711,313.113 781.711,314.28 780.5,315.5C 781,315.833 781.5,316.167 782,316.5C 783.174,315.456 784.341,314.456 785.5,313.5 Z"/></g>
<g><path style="opacity:1" fill="#3fae81" d="M 310.5,222.5 C 310.5,223.167 310.833,223.5 311.5,223.5C 312.167,224.833 312.833,226.167 313.5,227.5C 313.565,227.938 313.399,228.272 313,228.5C 312.044,227.421 311.211,226.255 310.5,225C 302.833,224.333 295.167,224.333 287.5,225C 287.043,225.414 286.709,225.914 286.5,226.5C 287.506,230.481 288.506,230.481 289.5,226.5C 289.833,226.833 290.167,227.167 290.5,227.5C 289.902,228.795 289.402,230.128 289,231.5C 288.586,231.043 288.086,230.709 287.5,230.5C 287.167,231.167 286.833,231.833 286.5,232.5C 285.808,231.975 285.308,231.308 285,230.5C 283.477,232.789 281.644,233.956 279.5,234C 281.359,234.684 283.026,235.684 284.5,237C 281.867,238.255 279.367,239.755 277,241.5C 275.416,241.012 274.249,240.012 273.5,238.5C 272.201,239.09 271.368,240.09 271,241.5C 270.667,240.5 270.333,239.5 270,238.5C 269.902,240.619 269.069,242.286 267.5,243.5C 267.167,243.167 266.833,242.833 266.5,242.5C 267.167,241.5 267.833,240.5 268.5,239.5C 267.753,239.264 266.92,238.93 266,238.5C 265.5,239 265,239.5 264.5,240C 265.942,245.034 264.442,245.534 260,241.5C 258.921,243.394 257.587,243.727 256,242.5C 255.768,244.507 256.102,245.84 257,246.5C 255.413,247.727 254.079,247.394 253,245.5C 249.903,246.289 249.736,247.456 252.5,249C 250.673,249.899 249.34,251.233 248.5,253C 248.667,253.5 248.833,254 249,254.5C 249.903,253.299 251.069,252.465 252.5,252C 254.208,250.938 254.874,249.771 254.5,248.5C 255.646,249.145 256.646,249.978 257.5,251C 256.167,252.333 254.833,253.667 253.5,255C 254.678,255.967 256.011,256.467 257.5,256.5C 256.509,258.323 255.176,259.823 253.5,261C 255.305,261.972 256.972,263.139 258.5,264.5C 255.356,265.406 255.023,267.239 257.5,270C 254.029,271.103 253.696,272.936 256.5,275.5C 256.669,274.603 257.002,273.603 257.5,272.5C 259.554,274.194 261.888,275.361 264.5,276C 263.833,276.667 263.167,277.333 262.5,278C 265.288,280.374 264.954,281.707 261.5,282C 263.478,282.481 264.811,283.647 265.5,285.5C 265.875,287.459 266.541,289.293 267.5,291C 267.167,291.333 266.833,291.667 266.5,292C 267.5,292.333 268.5,292.667 269.5,293C 267.765,293.651 266.098,293.485 264.5,292.5C 264.436,293.365 264.103,294.365 263.5,295.5C 264.867,295.504 266.367,296.17 268,297.5C 268.249,296.376 268.749,295.376 269.5,294.5C 270.5,295.833 271.5,295.833 272.5,294.5C 273.167,295.5 273.833,296.5 274.5,297.5C 276.379,296.256 276.712,296.59 275.5,298.5C 274.575,299.641 273.741,299.641 273,298.5C 272.706,302.266 273.873,305.599 276.5,308.5C 277.167,306.833 277.833,305.167 278.5,303.5C 281.063,303.449 283.729,303.783 286.5,304.5C 285.738,304.911 284.738,305.077 283.5,305C 285.007,305.837 285.507,307.004 285,308.5C 283.263,305.467 281.097,304.967 278.5,307C 280.569,307.324 280.902,308.158 279.5,309.5C 281.174,313.256 283.007,313.256 285,309.5C 285.29,311.952 285.956,314.285 287,316.5C 287.333,315.833 287.667,315.167 288,314.5C 289.533,316.846 291.366,317.846 293.5,317.5C 292.372,318.262 291.205,318.929 290,319.5C 289.544,320.744 290.044,321.577 291.5,322C 290.833,322.667 290.167,323.333 289.5,324C 290.893,326.178 292.56,327.178 294.5,327C 291.813,328.341 290.147,330.007 289.5,332C 289.983,335.462 291.15,335.962 293,333.5C 295.568,337.26 294.735,338.26 290.5,336.5C 290.264,337.247 289.93,338.08 289.5,339C 290.931,339.465 292.097,340.299 293,341.5C 293.333,341.167 293.667,340.833 294,340.5C 294.935,343.102 296.768,344.602 299.5,345C 298.483,346.049 298.316,347.216 299,348.5C 302.222,343.73 306.055,342.896 310.5,346C 309.551,346.617 308.718,346.451 308,345.5C 307.691,346.766 307.191,347.933 306.5,349C 306.833,349.333 307.167,349.667 307.5,350C 306.692,350.308 306.025,350.808 305.5,351.5C 306.747,353.042 306.747,354.542 305.5,356C 307.167,357.667 308.833,359.333 310.5,361C 314.107,360.408 314.274,361.241 311,363.5C 309.57,363.306 308.07,363.306 306.5,363.5C 309.06,364.747 311.727,365.747 314.5,366.5C 313.167,367.167 311.833,367.833 310.5,368.5C 311.325,369.386 312.325,369.719 313.5,369.5C 313.565,371.696 314.232,373.696 315.5,375.5C 315.749,374.418 315.915,373.085 316,371.5C 316.317,373.301 316.984,373.634 318,372.5C 318.402,373.872 318.902,375.205 319.5,376.5C 318.502,379.028 317.669,379.028 317,376.5C 316.668,379.506 315.834,382.34 314.5,385C 315.5,385.333 316.5,385.667 317.5,386C 319.521,388.337 321.521,390.67 323.5,393C 322.795,394.422 322.461,395.755 322.5,397C 320.443,397.305 318.443,397.305 316.5,397C 317.047,397.925 317.713,398.758 318.5,399.5C 326.032,396.71 328.366,399.376 325.5,407.5C 327.007,408.739 328.174,408.405 329,406.5C 329.232,409.738 330.732,412.238 333.5,414C 333,414.5 332.5,415 332,415.5C 330.334,414.66 330.167,415.16 331.5,417C 330.09,417.368 329.09,418.201 328.5,419.5C 331.8,419.827 334.966,421.161 338,423.5C 338.667,422.167 339.333,422.167 340,423.5C 340.333,422.5 340.667,421.5 341,420.5C 341.615,423.045 341.115,425.378 339.5,427.5C 338.289,426.726 338.289,425.893 339.5,425C 338.5,424.333 337.5,424.333 336.5,425C 337.276,426.77 337.11,428.603 336,430.5C 335.667,430.167 335.333,429.833 335,429.5C 332.273,431.516 332.606,433.516 336,435.5C 338.09,434.209 339.424,434.876 340,437.5C 341.11,435.963 342.61,435.297 344.5,435.5C 345.167,437.819 345.334,440.153 345,442.5C 344.195,440.099 343.362,440.266 342.5,443C 343.641,443.741 343.641,444.575 342.5,445.5C 344.218,446.421 346.218,447.755 348.5,449.5C 349.805,453.206 349.805,456.373 348.5,459C 350.727,459.121 352.56,459.954 354,461.5C 355.333,458.833 356.667,458.833 358,461.5C 359.099,458.956 360.265,458.956 361.5,461.5C 360.371,463.529 360.871,463.863 363,462.5C 364.688,463.325 364.855,464.325 363.5,465.5C 364.5,466.167 365.5,466.833 366.5,467.5C 366.685,469.486 366.018,471.486 364.5,473.5C 364.12,471.979 363.954,470.313 364,468.5C 362.197,472.512 361.197,472.178 361,467.5C 359.428,471.525 358.261,471.358 357.5,467C 358.821,465.455 358.488,464.289 356.5,463.5C 356.704,464.529 356.204,465.529 355,466.5C 354.667,465.833 354.333,465.167 354,464.5C 353.691,465.766 353.191,466.933 352.5,468C 353.449,468.617 354.282,468.451 355,467.5C 355.471,469.246 356.138,470.913 357,472.5C 357.741,471.359 358.575,471.359 359.5,472.5C 360.167,473.833 360.833,475.167 361.5,476.5C 363.853,475.435 366.186,475.602 368.5,477C 366.479,477.401 365.145,478.568 364.5,480.5C 367.266,480.365 369.266,481.865 370.5,485C 369.862,486.707 369.862,488.54 370.5,490.5C 371.552,490.351 372.552,490.517 373.5,491C 373.167,491.333 372.833,491.667 372.5,492C 374.578,493.61 376.578,494.61 378.5,495C 377.833,495.333 377.167,495.667 376.5,496C 378.645,497.818 378.645,499.318 376.5,500.5C 377.685,501.853 379.019,503.02 380.5,504C 380.167,504.333 379.833,504.667 379.5,505C 381.994,507.393 381.327,508.56 377.5,508.5C 377.5,510.833 377.5,513.167 377.5,515.5C 378.5,515.5 379.5,515.5 380.5,515.5C 380.587,512.402 380.087,512.068 379,514.5C 378.342,512.892 378.842,511.725 380.5,511C 379.833,510.667 379.167,510.333 378.5,510C 379.766,509.691 380.933,509.191 382,508.5C 382.333,508.833 382.667,509.167 383,509.5C 381.745,510.12 381.412,511.787 382,514.5C 383.316,513.026 384.316,511.359 385,509.5C 385.772,510.849 386.939,511.682 388.5,512C 387.833,512.667 387.167,513.333 386.5,514C 388.026,515.887 390.026,516.887 392.5,517C 391.483,518.049 391.316,519.216 392,520.5C 392.414,520.043 392.914,519.709 393.5,519.5C 395.76,521.407 395.927,523.407 394,525.5C 393.396,523.314 392.23,523.148 390.5,525C 391.667,525.5 392.5,526.333 393,527.5C 393.333,527.167 393.667,526.833 394,526.5C 394.561,528.725 395.561,530.725 397,532.5C 399.071,533.364 400.738,534.697 402,536.5C 402.368,535.09 403.201,534.09 404.5,533.5C 408.398,535.686 408.398,537.852 404.5,540C 405.833,542.333 407.167,544.667 408.5,547C 407.833,548 407.167,549 406.5,550C 406.802,551.655 408.136,552.988 410.5,554C 408.161,556.269 408.828,557.769 412.5,558.5C 411.833,559.167 411.167,559.833 410.5,560.5C 411.687,560.554 413.02,560.887 414.5,561.5C 413.674,562.451 413.508,563.451 414,564.5C 414.893,563.289 415.726,563.289 416.5,564.5C 414.971,568.189 415.804,571.189 419,573.5C 419.75,572.874 420.584,572.374 421.5,572C 420.549,571.282 420.383,570.449 421,569.5C 421.98,571.059 422.813,572.726 423.5,574.5C 424.989,574.533 426.322,575.033 427.5,576C 426.376,576.249 425.376,576.749 424.5,577.5C 425.758,576.984 426.758,577.65 427.5,579.5C 426.313,579.554 424.98,579.887 423.5,580.5C 424.641,581.425 424.641,582.259 423.5,583C 425.723,583.652 426.89,585.152 427,587.5C 427.654,586.304 428.154,586.304 428.5,587.5C 427.5,588.167 426.5,588.833 425.5,589.5C 426.391,590.59 427.391,590.59 428.5,589.5C 430.381,591.961 430.381,594.128 428.5,596C 430.432,596.138 432.266,595.638 434,594.5C 435.333,595.167 436.333,596.167 437,597.5C 440.105,594.604 441.438,595.271 441,599.5C 439.167,600.667 437.667,602.167 436.5,604C 437.126,604.75 437.626,605.584 438,606.5C 439.011,605.663 440.178,605.33 441.5,605.5C 441.452,608.292 442.785,610.125 445.5,611C 443.433,612.036 442.266,613.536 442,615.5C 444.964,615.848 447.798,615.348 450.5,614C 450.634,615.545 450.3,617.212 449.5,619C 448.205,619.702 446.872,620.369 445.5,621C 445.833,621.333 446.167,621.667 446.5,622C 444.343,623.085 444.176,624.251 446,625.5C 446.667,624.167 447.333,622.833 448,621.5C 449.351,621.446 450.518,621.946 451.5,623C 451.645,623.772 451.978,624.439 452.5,625C 449.751,626.346 449.417,627.68 451.5,629C 447.941,631.515 448.608,632.015 453.5,630.5C 454.331,632.473 454.498,634.473 454,636.5C 455.117,635.051 455.784,633.384 456,631.5C 457.16,633.797 458.16,633.464 459,630.5C 459.974,632.878 460.641,632.544 461,629.5C 461.346,631.218 461.846,632.885 462.5,634.5C 461.167,636.5 459.5,638.167 457.5,639.5C 458.651,640.731 459.817,640.731 461,639.5C 463,642.167 465.333,644.5 468,646.5C 468.492,645.451 468.326,644.451 467.5,643.5C 468.591,642.112 469.924,641.612 471.5,642C 471.384,643.268 471.051,644.602 470.5,646C 471.167,646.667 471.833,647.333 472.5,648C 470.221,648.473 468.221,649.473 466.5,651C 468.23,652.852 469.396,652.686 470,650.5C 470.822,652.788 471.489,655.122 472,657.5C 473.613,656.378 474.78,656.878 475.5,659C 473.109,660.309 473.109,661.309 475.5,662C 472.833,662.667 472.833,663.333 475.5,664C 469.013,665.601 469.347,666.935 476.5,668C 473.99,670.735 474.323,672.235 477.5,672.5C 476.674,673.451 476.508,674.451 477,675.5C 477.718,674.549 478.551,674.383 479.5,675C 478.483,676.049 478.316,677.216 479,678.5C 479.423,677.044 480.256,676.544 481.5,677C 481.384,678.268 481.051,679.602 480.5,681C 482.316,682.315 483.983,683.815 485.5,685.5C 486.675,684.145 487.675,684.312 488.5,686C 487.351,687.604 487.351,689.27 488.5,691C 485.659,693.064 485.992,693.731 489.5,693C 489.93,692.08 490.264,691.247 490.5,690.5C 491.354,691.522 492.354,692.355 493.5,693C 492.833,693.333 492.167,693.667 491.5,694C 492.646,694.645 493.646,695.478 494.5,696.5C 496.625,691.421 497.792,691.754 498,697.5C 496.869,696.396 496.035,696.729 495.5,698.5C 498.066,699.279 500.066,700.779 501.5,703C 500.256,703.456 499.423,702.956 499,701.5C 497.272,703.194 497.772,704.361 500.5,705C 499.549,705.718 499.383,706.551 500,707.5C 502.184,708.108 504.184,707.441 506,705.5C 506.689,706.357 507.522,707.023 508.5,707.5C 511.916,704.587 515.582,703.254 519.5,703.5C 519.297,705.39 519.963,706.89 521.5,708C 520.382,709.074 519.382,710.24 518.5,711.5C 517.232,710.572 515.899,710.405 514.5,711C 515.458,712.147 515.125,713.147 513.5,714C 514.925,715.362 515.758,716.862 516,718.5C 519.273,710.662 521.44,710.829 522.5,719C 521.318,720.678 520.152,720.512 519,718.5C 516.621,719.746 514.454,720.579 512.5,721C 514.693,722.064 516.693,723.398 518.5,725C 517.833,725.333 517.167,725.667 516.5,726C 517.833,726.667 517.833,727.333 516.5,728C 518.113,728.089 519.28,727.255 520,725.5C 521.074,726.618 522.24,727.618 523.5,728.5C 521.584,730.317 519.251,731.484 516.5,732C 516.833,732.333 517.167,732.667 517.5,733C 516.572,733.388 515.905,734.055 515.5,735C 515.944,736.762 516.444,736.595 517,734.5C 518.796,735.767 520.629,735.767 522.5,734.5C 523.696,734.846 523.696,735.346 522.5,736C 526.539,737.314 529.206,735.98 530.5,732C 531.935,732.311 533.268,732.145 534.5,731.5C 535.167,729.5 535.833,727.5 536.5,725.5C 537.086,725.709 537.586,726.043 538,726.5C 538.309,725.234 538.809,724.067 539.5,723C 538.483,721.951 538.316,720.784 539,719.5C 539.414,719.957 539.914,720.291 540.5,720.5C 541.293,717.874 542.96,716.04 545.5,715C 545.167,714.667 544.833,714.333 544.5,714C 547.464,713.16 547.797,712.16 545.5,711C 547.056,709.401 548.723,707.901 550.5,706.5C 552.432,707.145 553.599,708.479 554,710.5C 556.36,705.76 559.193,701.426 562.5,697.5C 545.691,727.112 528.857,756.779 512,786.5C 402.822,598.806 293.655,411.139 184.5,223.5C 226.33,222.501 268.33,222.168 310.5,222.5 Z"/></g>
</svg>
