<?xml version="1.0" encoding="UTF-8"?>
<svg version="1.1" xmlns="http://www.w3.org/2000/svg" width="500" height="500">
<path d="M0 0 C1.07894531 0.12117188 2.15789062 0.24234375 3.26953125 0.3671875 C30.43267178 4.17546757 57.45618365 15.61194558 80 31 C80.90105469 31.61439941 80.90105469 31.61439941 81.8203125 32.24121094 C83.78370907 33.58762382 85.73725952 34.94711124 87.6875 36.3125 C88.31293701 36.74554443 88.93837402 37.17858887 89.58276367 37.62475586 C91.09285467 38.69873478 92.55197809 39.84369637 94 41 C94 41.66 94 42.32 94 43 C94.66 43 95.32 43 96 43 C96 43.66 96 44.32 96 45 C96.56589844 45.25007813 97.13179688 45.50015625 97.71484375 45.7578125 C110.31388292 52.60652097 121.09118101 67.42464041 129 79 C129.40637695 79.58716797 129.81275391 80.17433594 130.23144531 80.77929688 C135.41451968 88.28101318 140.1911229 95.69419058 144 104 C144.56460937 105.13953125 145.12921875 106.2790625 145.7109375 107.453125 C149.28347792 114.72427321 152.06608352 121.79677079 154.078125 129.68359375 C154.77119686 132.1768904 155.53481402 134.43533646 156.48046875 136.828125 C158.17105415 141.23892023 159.16573511 145.68242402 160.0625 150.3125 C160.23168945 151.18350342 160.40087891 152.05450684 160.57519531 152.9519043 C166.92026387 186.80755189 164.99421354 221.30998104 154 254 C153.78255127 254.67933594 153.56510254 255.35867188 153.34106445 256.05859375 C148.95227597 269.62473873 142.81336508 282.09167853 135 294 C133.76976218 295.9576606 132.54055074 297.91596668 131.3125 299.875 C128.65714676 304.01565357 126.02114263 308.11567376 123 312 C122.34 312 121.68 312 121 312 C120.7525 312.55171875 120.505 313.1034375 120.25 313.671875 C118.75765526 316.45136707 116.96327477 318.7814707 115 321.25 C114.29875 322.14203125 113.5975 323.0340625 112.875 323.953125 C112.25625 324.62859375 111.6375 325.3040625 111 326 C110.34 326 109.68 326 109 326 C108.67 326.99 108.34 327.98 108 329 C107.34 329 106.68 329 106 329 C106 329.66 106 330.32 106 331 C105.34 331 104.68 331 104 331 C104 331.66 104 332.32 104 333 C103.34 333 102.68 333 102 333 C102 333.66 102 334.32 102 335 C83.84154061 352.3828468 59.52310954 366.79616453 35.54296875 374.20703125 C33.38567254 374.87973652 31.3381949 375.64388539 29.25 376.5 C10.43329517 383.68884548 -9.64300002 385.06794742 -29.5625 385.125 C-31.24762695 385.13200928 -31.24762695 385.13200928 -32.96679688 385.13916016 C-84.31910376 385.04184529 -130.92531137 362.72605154 -167.1875 327.125 C-183.55359814 310.67240886 -196.6054348 290.52029129 -205.8125 269.3125 C-206.18568359 268.45785156 -206.55886719 267.60320312 -206.94335938 266.72265625 C-209.17265899 261.44678202 -210.85831353 256.19393776 -212.28808594 250.64990234 C-212.9523033 248.17753773 -213.72090565 245.78146347 -214.55859375 243.36328125 C-229.75493283 198.66525456 -222.25946766 145.1421184 -201.80517578 103.38085938 C-196.78423215 93.47393028 -190.6910428 84.59396782 -184.16308594 75.64648438 C-182.99207214 73.98877719 -181.90647124 72.29226636 -180.8203125 70.578125 C-180.21960938 69.72734375 -179.61890625 68.8765625 -179 68 C-178.34 68 -177.68 68 -177 68 C-177 67.34 -177 66.68 -177 66 C-176.34 66 -175.68 66 -175 66 C-174.71125 65.401875 -174.4225 64.80375 -174.125 64.1875 C-173 62 -173 62 -171 59 C-170.34 59 -169.68 59 -169 59 C-168.7525 58.4225 -168.505 57.845 -168.25 57.25 C-166.81700012 54.67060021 -165.21575324 52.93878408 -163 51 C-162.34 51 -161.68 51 -161 51 C-161 50.34 -161 49.68 -161 49 C-156.52941176 45 -156.52941176 45 -154 45 C-154 44.34 -154 43.68 -154 43 C-153.34 43 -152.68 43 -152 43 C-152 42.34 -152 41.68 -152 41 C-150.64575195 39.79833984 -150.64575195 39.79833984 -148.73828125 38.4609375 C-148.03832031 37.9669043 -147.33835937 37.47287109 -146.6171875 36.96386719 C-145.85664063 36.43954102 -145.09609375 35.91521484 -144.3125 35.375 C-143.53519531 34.83520508 -142.75789063 34.29541016 -141.95703125 33.73925781 C-99.52254055 4.47830349 -50.99551442 -5.87950836 0 0 Z " fill="#020202" transform="translate(279,59)"/>
<path d="M0 0 C0.99 0.495 0.99 0.495 2 1 C0.625 2.5 0.625 2.5 -1 4 C-1.66 4 -2.32 4 -3 4 C-3 4.66 -3 5.32 -3 6 C-3.66 6 -4.32 6 -5 6 C-5.268125 6.59039062 -5.53625 7.18078125 -5.8125 7.7890625 C-7.01072058 10.01996003 -8.27008995 11.53697058 -10 13.375 C-18.85859257 23.34091664 -25.40409824 33.93772287 -31 46 C-31.51175781 47.01191406 -32.02351563 48.02382812 -32.55078125 49.06640625 C-35.75980668 55.55908561 -38.14520266 62.14904531 -40.25 69.0625 C-40.4962915 69.86510254 -40.74258301 70.66770508 -40.99633789 71.49462891 C-44.11574789 82.15557625 -45.36914884 92.59432474 -45.3125 103.6875 C-45.30831055 104.8209082 -45.30412109 105.95431641 -45.29980469 107.12207031 C-45.17616155 116.37952125 -44.17110928 125.01480314 -42 134 C-41.73316406 135.17046875 -41.46632813 136.3409375 -41.19140625 137.546875 C-39.01865178 146.08338591 -35.49859298 153.72059876 -31.609375 161.578125 C-30 165 -30 165 -30 167 C-39.33457052 169.13661839 -48.51020923 169.3222304 -56.93359375 164.4375 C-59.72085129 162.49853824 -61.85783602 160.64200224 -64 158 C-64 157.34 -64 156.68 -64 156 C-64.66 156 -65.32 156 -66 156 C-66.80314053 153.90018602 -67.59182083 151.79484047 -68.375 149.6875 C-68.81585938 148.51574219 -69.25671875 147.34398437 -69.7109375 146.13671875 C-72.89876764 136.567303 -73.3875752 126.95861161 -73.375 116.9375 C-73.37411377 115.66414795 -73.37322754 114.3907959 -73.37231445 113.07885742 C-73.24507477 102.88741114 -71.88528717 93.74047676 -69 84 C-68.74992187 83.02417969 -68.49984375 82.04835938 -68.2421875 81.04296875 C-66.61089031 74.93966719 -63.97906085 69.55072877 -61 64 C-60.55785156 63.13632813 -60.11570312 62.27265625 -59.66015625 61.3828125 C-52.78518785 48.24229118 -43.89539804 36.9567341 -34 26 C-32.89205078 24.76443359 -32.89205078 24.76443359 -31.76171875 23.50390625 C-23.22484963 14.48472814 -11.38939158 5.08326529 0 0 Z " fill="#FAB404" transform="translate(348,165)"/>
<path d="M0 0 C0.99 0.495 0.99 0.495 2 1 C1.21496094 1.71285156 0.42992187 2.42570313 -0.37890625 3.16015625 C-3.10810313 5.64401251 -5.82513378 8.14071037 -8.53466797 10.64599609 C-9.68782484 11.71154224 -10.84510792 12.77262303 -12.00390625 13.83203125 C-36.66217653 37.30195116 -54.1364587 76.1029433 -55.0546875 110.02001953 C-55.39019643 128.40171514 -53.45364709 144.8222399 -45.171875 161.48828125 C-44 164 -44 164 -44 166 C-47.20815845 166.08774066 -50.41600462 166.14063706 -53.625 166.1875 C-54.52863281 166.21263672 -55.43226563 166.23777344 -56.36328125 166.26367188 C-62.77685196 166.33389345 -67.21124411 165.69669987 -72.01171875 161.0546875 C-82.79474855 147.02920819 -83.76973275 127.72681164 -81.71142578 110.59863281 C-77.28299259 81.72168187 -62.64014852 52.7057199 -41.48095703 32.46557617 C-39.83802837 30.90367719 -39.83802837 30.90367719 -38.0625 28.5 C-35.07839891 24.88290777 -31.58309763 22.01004329 -28 19 C-27.17242187 18.28457031 -26.34484375 17.56914062 -25.4921875 16.83203125 C-17.91779959 10.41698843 -9.26461213 3.7928949 0 0 Z " fill="#FAB504" transform="translate(310,167)"/>
<path d="M0 0 C-1.28970703 1.22009766 -1.28970703 1.22009766 -2.60546875 2.46484375 C-14.90787031 14.31127604 -25.18814901 27.36057823 -34 42 C-34.47308594 42.71027344 -34.94617188 43.42054688 -35.43359375 44.15234375 C-52.31746187 70.1873599 -62.23282112 106.49796457 -55.76708984 137.23510742 C-54.27317793 143.41741996 -52.32761904 149.39999268 -49.734375 155.21484375 C-49 157 -49 157 -49 159 C-56.99058623 161.66352874 -63.30917177 162.03644077 -70.9609375 158.25 C-77.38442808 154.31222799 -79.77092912 147.89482217 -82 141 C-85.58707827 125.43361928 -83.4683353 108.14721281 -79 93 C-78.649375 91.73285156 -78.29875 90.46570313 -77.9375 89.16015625 C-70.96942414 66.10259966 -56.29113567 46.37385411 -40 29 C-39.52965332 28.4956543 -39.05930664 27.99130859 -38.57470703 27.47167969 C-30.93476874 19.34450674 -22.85819047 12.48785201 -13.67578125 6.15869141 C-12.15597252 5.10784464 -10.65492404 4.0299933 -9.15625 2.94921875 C-3.38300364 -1.12766788 -3.38300364 -1.12766788 0 0 Z " fill="#FAB404" transform="translate(268,174)"/>
<path d="M0 0 C0.99 0.495 0.99 0.495 2 1 C0.37660195 2.70884005 -1.29319053 4.37446717 -3 6 C-3.66 6 -4.32 6 -5 6 C-5.25652344 6.58523437 -5.51304687 7.17046875 -5.77734375 7.7734375 C-7.10562162 10.19234608 -8.56524801 11.73198872 -10.5625 13.625 C-13.14015389 16.04521959 -13.14015389 16.04521959 -15 19 C-15.66 19 -16.32 19 -17 19 C-17.37511719 19.8353125 -17.37511719 19.8353125 -17.7578125 20.6875 C-19.20837679 23.38792158 -20.96858048 25.59777174 -22.875 28 C-33.88033814 42.37617847 -42.11021523 58.31618125 -49 75 C-49.42925781 76.02351563 -49.85851562 77.04703125 -50.30078125 78.1015625 C-56.73173133 94.5389716 -58.41683973 111.47188928 -58 129 C-57.99484375 129.80566406 -57.9896875 130.61132812 -57.984375 131.44140625 C-57.53939494 140.57938962 -53.90093647 149.4017885 -51 158 C-57.88009597 160.49278839 -64.42850295 161.46958188 -71.3125 158.4375 C-77.68278872 154.76430933 -80.2768667 149.10527703 -82.421875 142.30859375 C-89.13901306 115.48542756 -78.51269708 86.98585581 -65.16162109 63.93408203 C-50.20811727 39.03671817 -26.95449962 12.34115107 0 0 Z " fill="#F9B405" transform="translate(227,175)"/>
<path d="M0 0 C0.66 0.33 1.32 0.66 2 1 C1.21496094 1.71285156 0.42992187 2.42570313 -0.37890625 3.16015625 C-3.10810313 5.64401251 -5.82513378 8.14071037 -8.53466797 10.64599609 C-9.68782484 11.71154224 -10.84510792 12.77262303 -12.00390625 13.83203125 C-16.80043538 18.39740235 -20.69816451 23.63637085 -24.66796875 28.9140625 C-26.7343189 31.64842869 -28.84526828 34.33506744 -31 37 C-31.99 33.535 -31.99 33.535 -33 30 C-34.98 30 -36.96 30 -39 30 C-37.871093 28.871093 -36.74145753 27.74291001 -35.609375 26.6171875 C-34.46364795 25.46589866 -33.3293893 24.30314801 -32.203125 23.1328125 C-23.22837933 13.90677395 -12.04067069 4.89744134 0 0 Z " fill="#F0B10E" transform="translate(310,167)"/>
<path d="M0 0 C-0.85980469 0.81339844 -1.71960938 1.62679687 -2.60546875 2.46484375 C-13.85328793 13.29910481 -22.97678418 25.30127241 -32 38 C-32.33 36.68 -32.66 35.36 -33 34 C-32.34 34 -31.68 34 -31 34 C-30.505 31.03 -30.505 31.03 -30 28 C-30.66 28 -31.32 28 -32 28 C-31.67 26.68 -31.34 25.36 -31 24 C-32.98 25.65 -34.96 27.3 -37 29 C-37.66 28.67 -38.32 28.34 -39 28 C-31.20936748 19.68709044 -23.05882791 12.66174049 -13.69189453 6.17480469 C-12.16653191 5.11563515 -10.65829186 4.0319088 -9.15234375 2.9453125 C-3.3814554 -1.1271518 -3.3814554 -1.1271518 0 0 Z " fill="#EFB10E" transform="translate(268,174)"/>
<path d="M0 0 C0.66 0.33 1.32 0.66 2 1 C0.37660195 2.70884005 -1.29319053 4.37446717 -3 6 C-3.66 6 -4.32 6 -5 6 C-5.38478516 6.87785156 -5.38478516 6.87785156 -5.77734375 7.7734375 C-7.10562162 10.19234608 -8.56524801 11.73198872 -10.5625 13.625 C-13.14015389 16.04521959 -13.14015389 16.04521959 -15 19 C-15.66 19 -16.32 19 -17 19 C-17.26554688 19.57234375 -17.53109375 20.1446875 -17.8046875 20.734375 C-19.05676891 23.1076012 -20.4936352 25.12213286 -22.125 27.25 C-22.66382813 27.95640625 -23.20265625 28.6628125 -23.7578125 29.390625 C-24.16773438 29.92171875 -24.57765625 30.4528125 -25 31 C-25.33 29.68 -25.66 28.36 -26 27 C-26.66 27 -27.32 27 -28 27 C-28 26.34 -28 25.68 -28 25 C-27.34 25 -26.68 25 -26 25 C-26 24.34 -26 23.68 -26 23 C-27.65 23.33 -29.3 23.66 -31 24 C-23.3267147 13.91511075 -11.52713304 5.27771215 0 0 Z " fill="#EEB212" transform="translate(227,175)"/>
<path d="M0 0 C0.66 0.33 1.32 0.66 2 1 C0.625 2.5 0.625 2.5 -1 4 C-1.66 4 -2.32 4 -3 4 C-3 4.66 -3 5.32 -3 6 C-3.66 6 -4.32 6 -5 6 C-5.25910156 6.57621094 -5.51820313 7.15242187 -5.78515625 7.74609375 C-7.09599382 10.17809787 -8.59597834 12.00712421 -10.4375 14.0625 C-11.03433594 14.73410156 -11.63117188 15.40570313 -12.24609375 16.09765625 C-13.79296942 17.7754479 -15.37171566 19.40159243 -17 21 C-17.33 20.01 -17.66 19.02 -18 18 C-20.31 18 -22.62 18 -25 18 C-21.71350177 14.47700438 -18.10312235 11.76396872 -14.1875 9 C-13.59646484 8.57460937 -13.00542969 8.14921875 -12.39648438 7.7109375 C-8.39625778 4.86671968 -4.37348359 2.23784646 0 0 Z " fill="#E8B014" transform="translate(348,165)"/>
<path d="M0 0 C0.99 0.33 1.98 0.66 3 1 C2.60731934 1.38744385 2.21463867 1.7748877 1.81005859 2.17407227 C-0.00438201 3.96745192 -1.81469627 5.76494489 -3.625 7.5625 C-4.55119141 8.47612305 -4.55119141 8.47612305 -5.49609375 9.40820312 C-9.55193972 13.44270254 -13.32905525 17.61180912 -17 22 C-17.33 20.68 -17.66 19.36 -18 18 C-17.01 18 -16.02 18 -15 18 C-14.67 16.35 -14.34 14.7 -14 13 C-15.32 13.33 -16.64 13.66 -18 14 C-14.39917608 10.21036883 -10.66538991 7.10280487 -6.375 4.125 C-5.80265625 3.70992187 -5.2303125 3.29484375 -4.640625 2.8671875 C-2.9609375 1.6953125 -2.9609375 1.6953125 0 0 Z " fill="#EAB017" transform="translate(265,173)"/>
<path d="M0 0 C1.06574005 3.19722014 0.96534507 3.84664178 0.125 6.9375 C-4.20703757 25.17303651 -3.01159272 45.74593447 2.0625 63.6171875 C2.83561337 66.40683823 3.48067778 69.154547 4 72 C0.43821713 69.31339806 -0.15837232 65.62943346 -1.125 61.5 C-1.29386719 60.84257812 -1.46273437 60.18515625 -1.63671875 59.5078125 C-6.14961959 40.95872402 -6.7447293 17.975908 0 0 Z " fill="#DBAC25" transform="translate(257,251)"/>
<path d="M0 0 C0.66 0.33 1.32 0.66 2 1 C1.21496094 1.71285156 0.42992187 2.42570313 -0.37890625 3.16015625 C-6.04652152 8.32155719 -11.64533473 13.51109522 -17 19 C-17.99884058 20.00115808 -18.99851522 21.00148699 -20 22 C-20 20.68 -20 19.36 -20 18 C-19.34 18 -18.68 18 -18 18 C-18 17.01 -18 16.02 -18 15 C-18.66 14.34 -19.32 13.68 -20 13 C-15.07200132 8.59073802 -9.75709735 5.23955478 -4 2 C-3.28070313 1.59136719 -2.56140625 1.18273437 -1.8203125 0.76171875 C-1.21960938 0.51035156 -0.61890625 0.25898438 0 0 Z " fill="#E3AA16" transform="translate(310,167)"/>
<path d="M0 0 C0.66 0.33 1.32 0.66 2 1 C0.37660195 2.70884005 -1.29319053 4.37446717 -3 6 C-3.66 6 -4.32 6 -5 6 C-5.2578125 6.58523437 -5.515625 7.17046875 -5.78125 7.7734375 C-7.09588946 10.17518266 -8.53190795 11.73196231 -10.5 13.625 C-11.41265625 14.51058594 -11.41265625 14.51058594 -12.34375 15.4140625 C-13.16359375 16.19910156 -13.16359375 16.19910156 -14 17 C-14.66 17.66 -15.32 18.32 -16 19 C-16 17.35 -16 15.7 -16 14 C-15.34 14 -14.68 14 -14 14 C-14 13.34 -14 12.68 -14 12 C-14.66 11.34 -15.32 10.68 -16 10 C-13.70912072 8.51960151 -11.41734017 7.04063324 -9.125 5.5625 C-8.47402344 5.14162109 -7.82304687 4.72074219 -7.15234375 4.28710938 C-2.2265625 1.11328125 -2.2265625 1.11328125 0 0 Z " fill="#E0AC18" transform="translate(227,175)"/>
<path d="M0 0 C0.33 0 0.66 0 1 0 C0.97905273 0.78947021 0.95810547 1.57894043 0.93652344 2.39233398 C0.58769763 17.55632182 0.66972353 31.37444774 5 46 C5.3644988 47.99455552 5.70896758 49.99340805 6 52 C5.01 51.67 4.02 51.34 3 51 C3 48.69 3 46.38 3 44 C2.34 44 1.68 44 1 44 C-0.76495372 34.53924807 -1.28053287 25.42426396 -1.1875 15.8125 C-1.18685547 14.50474609 -1.18621094 13.19699219 -1.18554688 11.84960938 C-1.14090708 2.28181417 -1.14090708 2.28181417 0 0 Z " fill="#D7A520" transform="translate(210,275)"/>
<path d="M0 0 C0.61328125 1.859375 0.61328125 1.859375 1 4 C-0.8125 6.25 -0.8125 6.25 -3 8 C-3.66 8 -4.32 8 -5 8 C-5 8.99 -5 9.98 -5 11 C-5.99 11 -6.98 11 -8 11 C-9.50560497 13.85410334 -10.63216796 16.68124642 -11.625 19.75 C-11.88539063 20.54921875 -12.14578125 21.3484375 -12.4140625 22.171875 C-12.60742188 22.77515625 -12.80078125 23.3784375 -13 24 C-13.33 23.34 -13.66 22.68 -14 22 C-14.66 22 -15.32 22 -16 22 C-16 22.99 -16 23.98 -16 25 C-16.99 25.33 -17.98 25.66 -19 26 C-17.52834411 21.6175551 -15.15059985 18.27294146 -12.3125 14.6875 C-11.86986816 14.1200708 -11.42723633 13.5526416 -10.97119141 12.96801758 C-7.46746438 8.50947742 -3.82249603 4.18955691 0 0 Z " fill="#DDA81B" transform="translate(313,192)"/>
<path d="M0 0 C-0.99 0.495 -0.99 0.495 -2 1 C-2 1.66 -2 2.32 -2 3 C-2.66 3 -3.32 3 -4 3 C-4.0825 4.093125 -4.165 5.18625 -4.25 6.3125 C-5 10 -5 10 -7.0625 11.9375 C-7.701875 12.288125 -8.34125 12.63875 -9 13 C-9.33 12.01 -9.66 11.02 -10 10 C-9.01 10 -8.02 10 -7 10 C-7 9.01 -7 8.02 -7 7 C-7.928125 7.33 -8.85625 7.66 -9.8125 8 C-13 9 -13 9 -16 9 C-14.28380301 7.48517814 -12.55149325 5.9885966 -10.8125 4.5 C-9.84957031 3.6646875 -8.88664063 2.829375 -7.89453125 1.96875 C-4.84750871 -0.10371877 -3.58401694 -0.4717536 0 0 Z " fill="#E9B013" transform="translate(215,186)"/>
<path d="M0 0 C1.03115279 3.26913624 0.9638984 5.86041348 0.5625 9.25 C0.46066406 10.14203125 0.35882813 11.0340625 0.25390625 11.953125 C0.17011719 12.62859375 0.08632812 13.3040625 0 14 C-0.66 14 -1.32 14 -2 14 C-1.979375 15.27875 -1.95875 16.5575 -1.9375 17.875 C-1.875 21.75 -1.875 21.75 -3 24 C-3.23274209 26.87910588 -3.41972757 29.74146495 -3.5625 32.625 C-3.60568359 33.42679687 -3.64886719 34.22859375 -3.69335938 35.0546875 C-3.79951457 37.0362511 -3.90026855 39.01810271 -4 41 C-4.33 41 -4.66 41 -5 41 C-5.57108044 26.83403251 -4.51460302 13.54380905 0 0 Z " fill="#C3941A" transform="translate(233,258)"/>
<path d="M0 0 C0.33 0 0.66 0 1 0 C1.02705729 1.77074917 1.04642195 3.54161711 1.0625 5.3125 C1.07410156 6.29863281 1.08570313 7.28476562 1.09765625 8.30078125 C1 11 1 11 0 14 C-0.2153564 15.84371272 -0.38829681 17.69253981 -0.53515625 19.54296875 C-0.62216797 20.61611328 -0.70917969 21.68925781 -0.79882812 22.79492188 C-0.88583984 23.91447266 -0.97285156 25.03402344 -1.0625 26.1875 C-1.15337891 27.31865234 -1.24425781 28.44980469 -1.33789062 29.61523438 C-1.56193614 32.40990736 -1.78250144 35.20481111 -2 38 C-2.33 38 -2.66 38 -3 38 C-3.33160857 24.95162792 -3.36548923 12.68068263 0 0 Z " fill="#DFAE24" transform="translate(188,270)"/>
<path d="M0 0 C1.65364934 3.30729869 -0.23895062 6.51884479 -1.3125 9.875 C-3.46950824 16.86097611 -5.06201591 23.73412321 -6 31 C-6.33 31 -6.66 31 -7 31 C-6.91228454 28.31106733 -6.80532075 25.62514692 -6.6875 22.9375 C-6.66494141 22.18533203 -6.64238281 21.43316406 -6.61914062 20.65820312 C-6.36950085 15.41576781 -5.24196133 11.73629004 -3 7 C-2.814375 5.88625 -2.62875 4.7725 -2.4375 3.625 C-2.293125 2.75875 -2.14875 1.8925 -2 1 C-1.34 0.67 -0.68 0.34 0 0 Z " fill="#D7A41D" transform="translate(309,225)"/>
<path d="M0 0 C2.32413029 0.87154886 4.56604849 1.74458854 6.70898438 3.00585938 C12.17505583 6.16088715 16.31002317 6.38512792 22.5 5.75 C23.73363281 5.65138672 23.73363281 5.65138672 24.9921875 5.55078125 C26.99656104 5.38763457 28.9986421 5.19671467 31 5 C31 5.66 31 6.32 31 7 C21.47926818 9.17922942 12.53398603 9.15201547 3.890625 4.38671875 C2 3 2 3 0 0 Z " fill="#D1A024" transform="translate(287,325)"/>
<path d="M0 0 C1.66905241 3.33810482 2.8741386 6.46157845 4 10 C-1.39460953 12.27141454 -6.26157749 12.20413361 -12 12 C-12.33 11.34 -12.66 10.68 -13 10 C-6.565 9.505 -6.565 9.505 0 9 C0 6.03 0 3.06 0 0 Z " fill="#BE9620" transform="translate(172,323)"/>
<path d="M0 0 C1 3 1 3 0.375 5.4375 C-1 8 -1 8 -3.4375 9.875 C-5.97673387 11.98070614 -6.49942594 12.76338961 -7.625 15.6875 C-8.07875 16.780625 -8.5325 17.87375 -9 19 C-9.99 19.33 -10.98 19.66 -12 20 C-10.41956214 15.47459324 -8.04961363 11.7280056 -5.4375 7.75 C-5.02564453 7.11320313 -4.61378906 6.47640625 -4.18945312 5.8203125 C-1.16071429 1.16071429 -1.16071429 1.16071429 0 0 Z " fill="#2B1A01" transform="translate(286,194)"/>
<path d="M0 0 C0.33 1.32 0.66 2.64 1 4 C0.34 4 -0.32 4 -1 4 C-1.0825 5.0725 -1.165 6.145 -1.25 7.25 C-2.10101293 11.50506465 -2.95457164 12.12859611 -6 15 C-7.48290589 17.59885541 -8.75827695 20.27877715 -10 23 C-10.33 22.34 -10.66 21.68 -11 21 C-9.8253808 18.32744469 -8.59442214 15.77275011 -7.25 13.1875 C-6.70859375 12.11918945 -6.70859375 12.11918945 -6.15625 11.02929688 C-4.23451335 7.26589595 -2.23032525 3.59251757 0 0 Z " fill="#D8A71D" transform="translate(204,234)"/>
<path d="M0 0 C0.66 0.33 1.32 0.66 2 1 C-3.94 6.445 -3.94 6.445 -10 12 C-11.32 10.68 -12.64 9.36 -14 8 C-12.41779413 7.03980636 -10.83418669 6.08192202 -9.25 5.125 C-7.92742187 4.32449219 -7.92742187 4.32449219 -6.578125 3.5078125 C-1.97546012 0.81595092 -1.97546012 0.81595092 0 0 Z " fill="#D4A21E" transform="translate(310,167)"/>
<path d="M0 0 C0.33 0 0.66 0 1 0 C1.02578125 0.62003906 1.0515625 1.24007813 1.078125 1.87890625 C1.54210545 9.12332823 3.08974471 15.66902731 5.0625 22.6171875 C5.83561337 25.40683823 6.48067778 28.154547 7 31 C3.47091931 28.32032555 2.79629912 24.67029284 1.8125 20.5625 C1.6381543 19.85544922 1.46380859 19.14839844 1.28417969 18.41992188 C-0.13755722 12.2488603 -0.43118517 6.32404917 0 0 Z " fill="#D0A222" transform="translate(254,292)"/>
<path d="M0 0 C1.58461823 5.84318405 0.58553034 12.18638877 -1 18 C-1.66 18.66 -2.32 19.32 -3 20 C-3.40047444 22.32275177 -3.7397104 24.65739357 -4 27 C-4.33 27 -4.66 27 -5 27 C-5.29854639 20.55139796 -4.25825856 15.18716929 -2.5 9 C-2.26152344 8.12988281 -2.02304687 7.25976562 -1.77734375 6.36328125 C-1.193891 4.23951325 -0.60133866 2.11875921 0 0 Z " fill="#2C1A01" transform="translate(260,244)"/>
<path d="M0 0 C0.33 0 0.66 0 1 0 C1 1.65 1 3.3 1 5 C0.01 5.495 0.01 5.495 -1 6 C-1.72159424 7.64363134 -2.39351421 9.31050386 -3 11 C-3.66 11 -4.32 11 -5 11 C-5.185625 12.3303125 -5.185625 12.3303125 -5.375 13.6875 C-5.94412736 16.70387502 -6.76614436 19.20326054 -8 22 C-8.99 21.67 -9.98 21.34 -11 21 C-9.73167312 18.43623236 -8.46043635 15.87397788 -7.1875 13.3125 C-6.83107422 12.59126953 -6.47464844 11.87003906 -6.10742188 11.12695312 C-4.21554301 7.32583871 -2.33460126 3.554483 0 0 Z " fill="#D8A41C" transform="translate(249,224)"/>
<path d="M0 0 C0 3.78176921 -1.07555275 5.76967782 -3 9 C-5.1875 10.375 -5.1875 10.375 -7 11 C-7 11.66 -7 12.32 -7 13 C-7.66 13 -8.32 13 -9 13 C-9.66 14.32 -10.32 15.64 -11 17 C-11.99 17 -12.98 17 -14 17 C-9.43425277 11.24066911 -4.82286732 5.54629742 0 0 Z " fill="#DDA81B" transform="translate(182,212)"/>
<path d="M0 0 C0.66 0.33 1.32 0.66 2 1 C0.625 2.5 0.625 2.5 -1 4 C-1.66 4 -2.32 4 -3 4 C-3 4.66 -3 5.32 -3 6 C-3.66 6 -4.32 6 -5 6 C-5.28875 6.639375 -5.5775 7.27875 -5.875 7.9375 C-7 10 -7 10 -9 11 C-9 10.34 -9 9.68 -9 9 C-10.32 8.67 -11.64 8.34 -13 8 C-11.58531689 7.03874097 -10.1681636 6.08111675 -8.75 5.125 C-7.96109375 4.59132812 -7.1721875 4.05765625 -6.359375 3.5078125 C-4.26684277 2.17053197 -2.30109848 0.93420665 0 0 Z " fill="#DDAC20" transform="translate(348,165)"/>
<path d="M0 0 C0.33 0 0.66 0 1 0 C1.01981934 0.57854736 1.03963867 1.15709473 1.06005859 1.75317383 C1.51312684 16.99169283 1.51312684 16.99169283 4 32 C3.01 31.67 2.02 31.34 1 31 C0.09429581 24.10381142 -0.1222984 17.38791455 -0.0625 10.4375 C-0.05798828 9.42880859 -0.05347656 8.42011719 -0.04882812 7.38085938 C-0.03716769 4.92050853 -0.02080378 2.46028761 0 0 Z " fill="#331E00" transform="translate(184,289)"/>
<path d="M0 0 C-0.61722952 2.93933089 -1.24340471 5.87625379 -1.875 8.8125 C-2.04902344 9.64587891 -2.22304687 10.47925781 -2.40234375 11.33789062 C-2.57636719 12.14033203 -2.75039062 12.94277344 -2.9296875 13.76953125 C-3.16534424 14.87711792 -3.16534424 14.87711792 -3.40576172 16.00708008 C-4 18 -4 18 -6 21 C-6.02689216 19.52093108 -6.04634621 18.04172517 -6.0625 16.5625 C-6.07410156 15.73878906 -6.08570313 14.91507812 -6.09765625 14.06640625 C-6 12 -6 12 -5 11 C-5.04125 9.72125 -5.0825 8.4425 -5.125 7.125 C-5.18037823 3.26236834 -5.18037823 3.26236834 -3.625 1 C-2 0 -2 0 0 0 Z " fill="#DBA920" transform="translate(175,257)"/>
<path d="M0 0 C0.33 0 0.66 0 1 0 C1.24222254 4.11778316 0.36905536 7.13443193 -1 11 C-1.546966 13.40665041 -2 15.53594563 -2 18 C-3.32 18 -4.64 18 -6 18 C-4.23536928 11.89262558 -2.30442525 5.92566493 0 0 Z " fill="#E1A917" transform="translate(154,254)"/>
<path d="M0 0 C0.66 0.33 1.32 0.66 2 1 C2.625 3.5625 2.625 3.5625 3 6 C-2.2290337 7.74301123 -6.47753685 8.37440428 -12 8 C-12.66 7.34 -13.32 6.68 -14 6 C-9.38 6 -4.76 6 0 6 C0 4.02 0 2.04 0 0 Z " fill="#CDA020" transform="translate(216,327)"/>
<path d="M0 0 C0.99 0 1.98 0 3 0 C1.68775452 3.93673644 0.08089673 6.22719294 -3 9 C-3.103125 8.360625 -3.20625 7.72125 -3.3125 7.0625 C-3.539375 6.381875 -3.76625 5.70125 -4 5 C-4.99 4.67 -5.98 4.34 -7 4 C-7 3.01 -7 2.02 -7 1 C-3.125 2.875 -3.125 2.875 -2 4 C-1.34 2.68 -0.68 1.36 0 0 Z " fill="#F9B806" transform="translate(197,207)"/>
<path d="M0 0 C0.63671875 1.84765625 0.63671875 1.84765625 1 4 C-1.1875 6.4375 -1.1875 6.4375 -4 9 C-4.721875 9.928125 -5.44375 10.85625 -6.1875 11.8125 C-6.785625 12.534375 -7.38375 13.25625 -8 14 C-8.66 14 -9.32 14 -10 14 C-8.43632643 10.47761953 -6.30504111 7.72876006 -3.875 4.75 C-3.15054687 3.85796875 -2.42609375 2.9659375 -1.6796875 2.046875 C-0.84824219 1.03367188 -0.84824219 1.03367188 0 0 Z " fill="#291901" transform="translate(339,176)"/>
<path d="M0 0 C0.99 0.33 1.98 0.66 3 1 C0.36 3.64 -2.28 6.28 -5 9 C-5.33 8.34 -5.66 7.68 -6 7 C-7.32 7.33 -8.64 7.66 -10 8 C-6.97731777 4.74480375 -3.85903564 2.21689281 0 0 Z " fill="#D1A52C" transform="translate(265,173)"/>
<path d="M0 0 C1.32 0.66 2.64 1.32 4 2 C2.68 4.64 1.36 7.28 0 10 C-1.65 10 -3.3 10 -5 10 C-4.34 9.2575 -3.68 8.515 -3 7.75 C-0.60788553 5.02757055 -0.60788553 5.02757055 -1 1 C-0.67 0.67 -0.34 0.34 0 0 Z " fill="#160901" transform="translate(229,171)"/>
<path d="M0 0 C0.33 0.66 0.66 1.32 1 2 C0.67 2.66 0.34 3.32 0 4 C-0.99 4.33 -1.98 4.66 -3 5 C-3.6496875 6.2065625 -3.6496875 6.2065625 -4.3125 7.4375 C-6.46245976 10.70225371 -8.28533211 11.09197007 -12 12 C-8.32167983 7.47384007 -4.58913637 3.60575001 0 0 Z " fill="#D5A216" transform="translate(195,199)"/>
<path d="M0 0 C2 3 2 3 4 9 C-2.6 9 -9.2 9 -16 9 C-16 8.67 -16 8.34 -16 8 C-10.39 8 -4.78 8 1 8 C0.67 5.36 0.34 2.72 0 0 Z " fill="#D3A328" transform="translate(262,324)"/>
<path d="M0 0 C0.8214856 2.75197675 1.04631835 3.83402593 0.25 6.6875 C-1 9 -1 9 -4 10 C-4.33 11.65 -4.66 13.3 -5 15 C-5.66 15 -6.32 15 -7 15 C-5.45454854 9.52067211 -2.84456788 4.88570819 0 0 Z " fill="#DBA81E" transform="translate(162,239)"/>
<path d="M0 0 C0.33 0 0.66 0 1 0 C1.33 2.64 1.66 5.28 2 8 C2.99 8 3.98 8 5 8 C4.67 11.3 4.34 14.6 4 18 C0.26790462 12.40185694 -0.27269478 6.54467462 0 0 Z " fill="#291701" transform="translate(255,296)"/>
<path d="M0 0 C0.33 0.66 0.66 1.32 1 2 C-0.23761823 3.65516419 -1.49057455 5.29886798 -2.75 6.9375 C-3.44609375 7.85402344 -4.1421875 8.77054688 -4.859375 9.71484375 C-7.01029035 12.01098513 -7.93617261 12.67567593 -11 13 C-9.625 10.5 -9.625 10.5 -8 8 C-7.34 8 -6.68 8 -6 8 C-6 7.34 -6 6.68 -6 6 C-4.37550757 4.29220027 -2.70779973 2.62449243 -1 1 C-0.67 0.67 -0.34 0.34 0 0 Z " fill="#221102" transform="translate(351,163)"/>
<path d="M0 0 C0.33 0.66 0.66 1.32 1 2 C-0.58759644 6.58747193 -2.68985663 10.53706093 -7 13 C-5.58832253 7.73829306 -3.25149768 4.27828642 0 0 Z " fill="#361F00" transform="translate(328,190)"/>
<path d="M0 0 C1.2065625 0.0309375 1.2065625 0.0309375 2.4375 0.0625 C2.4375 1.0525 2.4375 2.0425 2.4375 3.0625 C1.4475 3.5575 1.4475 3.5575 0.4375 4.0625 C0.4375 4.7225 0.4375 5.3825 0.4375 6.0625 C-0.8825 6.0625 -2.2025 6.0625 -3.5625 6.0625 C-3.605221 4.39638095 -3.60313832 2.72867115 -3.5625 1.0625 C-2.5625 0.0625 -2.5625 0.0625 0 0 Z " fill="#FBB605" transform="translate(205.5625,192.9375)"/>
<path d="M0 0 C1.32 0.33 2.64 0.66 4 1 C0.7 3.64 -2.6 6.28 -6 9 C-6.33 7.68 -6.66 6.36 -7 5 C-6.34 4.67 -5.68 4.34 -5 4 C-4.34 4.33 -3.68 4.66 -3 5 C-3 4.34 -3 3.68 -3 3 C-2.34 3 -1.68 3 -1 3 C-0.67 2.01 -0.34 1.02 0 0 Z " fill="#261600" transform="translate(331,173)"/>
<path d="M0 0 C0.75 1.75 0.75 1.75 1 4 C-0.8125 6.25 -0.8125 6.25 -3 8 C-3.66 8 -4.32 8 -5 8 C-5 8.99 -5 9.98 -5 11 C-5.66 10.67 -6.32 10.34 -7 10 C-2.85714286 2.42857143 -2.85714286 2.42857143 0 0 Z " fill="#E7AE16" transform="translate(313,192)"/>
<path d="M0 0 C1 4 1 4 1 6 C0.01 6 -0.98 6 -2 6 C-2 7.32 -2 8.64 -2 10 C-2.66 10 -3.32 10 -4 10 C-4 10.66 -4 11.32 -4 12 C-4.66 11.67 -5.32 11.34 -6 11 C-4.02 7.37 -2.04 3.74 0 0 Z " fill="#D59F1D" transform="translate(293,218)"/>
<path d="M0 0 C0.66 0 1.32 0 2 0 C2 0.66 2 1.32 2 2 C2.66 2 3.32 2 4 2 C3.54917531 3.46067199 3.08906463 4.91848032 2.625 6.375 C2.36976563 7.18710938 2.11453125 7.99921875 1.8515625 8.8359375 C1 11 1 11 -1 13 C-0.9278125 12.31292969 -0.855625 11.62585938 -0.78125 10.91796875 C-0.6884375 10.01691406 -0.595625 9.11585938 -0.5 8.1875 C-0.4071875 7.29417969 -0.314375 6.40085938 -0.21875 5.48046875 C0.04392401 2.91694901 0.04392401 2.91694901 0 0 Z " fill="#EAAB1A" transform="translate(264,222)"/>
<path d="M0 0 C1 3 1 3 0 6 C-1.62332967 7.38576923 -3.28724465 8.72641268 -5 10 C-5.66 9.67 -6.32 9.34 -7 9 C-4.69 6.03 -2.38 3.06 0 0 Z " fill="#231700" transform="translate(294,184)"/>
<path d="M0 0 C1.66905241 3.33810482 2.8741386 6.46157845 4 10 C2.02 10 0.04 10 -2 10 C-1.34 9.67 -0.68 9.34 0 9 C0 6.03 0 3.06 0 0 Z " fill="#D8A61C" transform="translate(172,323)"/>
<path d="M0 0 C0.99 0 1.98 0 3 0 C2.54917531 1.46067199 2.08906463 2.91848032 1.625 4.375 C1.36976563 5.18710938 1.11453125 5.99921875 0.8515625 6.8359375 C0 9 0 9 -2 11 C-1.85892253 9.54119891 -1.71197585 8.08296449 -1.5625 6.625 C-1.48128906 5.81289062 -1.40007812 5.00078125 -1.31640625 4.1640625 C-1 2 -1 2 0 0 Z " fill="#271501" transform="translate(285,227)"/>
<path d="M0 0 C0.66 0.33 1.32 0.66 2 1 C-1.465 3.97 -1.465 3.97 -5 7 C-5.66 6.67 -6.32 6.34 -7 6 C-7 5.34 -7 4.68 -7 4 C-1.7265625 0.77734375 -1.7265625 0.77734375 0 0 Z " fill="#CEAC32" transform="translate(227,175)"/>
<path d="M0 0 C0 3 0 3 -1.75 4.82421875 C-2.4925 5.43910156 -3.235 6.05398437 -4 6.6875 C-4.7425 7.31011719 -5.485 7.93273437 -6.25 8.57421875 C-6.8275 9.04472656 -7.405 9.51523438 -8 10 C-8.66 9.67 -9.32 9.34 -10 9 C-8.71034824 7.62437146 -7.37310707 6.29233607 -6 5 C-5.34 5 -4.68 5 -4 5 C-4 4.34 -4 3.68 -4 3 C-2 1.375 -2 1.375 0 0 Z " fill="#6C6C6C" transform="translate(122,105)"/>
<path d="M0 0 C4.49797113 1.68673918 8.72886302 3.81673892 13 6 C10 7 10 7 8.02734375 6.328125 C7.33769531 5.97234375 6.64804687 5.6165625 5.9375 5.25 C5.24527344 4.90453125 4.55304688 4.5590625 3.83984375 4.203125 C2 3 2 3 0 0 Z " fill="#DBAC20" transform="translate(287,325)"/>
<path d="M0 0 C0.66 0 1.32 0 2 0 C2 0.66 2 1.32 2 2 C2.66 2 3.32 2 4 2 C4 2.99 4 3.98 4 5 C4.99 4.67 5.98 4.34 7 4 C7.33 5.65 7.66 7.3 8 9 C3.7938588 7.49780671 2.22833454 4.74041869 0 1 C0 0.67 0 0.34 0 0 Z " fill="#DAAA20" transform="translate(189,322)"/>
<path d="M0 0 C0.6875 1.625 0.6875 1.625 1 4 C-0.4375 7.25 -0.4375 7.25 -2 10 C-2.99 10 -3.98 10 -5 10 C-3.66511872 6.40608886 -2.03977277 3.24509304 0 0 Z " fill="#2F1C00" transform="translate(232,218)"/>
<path d="M0 0 C0.99 0.33 1.98 0.66 3 1 C0.03 4.96 0.03 4.96 -3 9 C-3.33 8.01 -3.66 7.02 -4 6 C-2.0625 2.8125 -2.0625 2.8125 0 0 Z " fill="#231001" transform="translate(300,204)"/>
<path d="M0 0 C0.66 0.33 1.32 0.66 2 1 C0.625 2.5 0.625 2.5 -1 4 C-1.66 4 -2.32 4 -3 4 C-3 4.66 -3 5.32 -3 6 C-3.66 6 -4.32 6 -5 6 C-5.33 6.66 -5.66 7.32 -6 8 C-6.33 6.68 -6.66 5.36 -7 4 C-1.7265625 0.77734375 -1.7265625 0.77734375 0 0 Z " fill="#BB9930" transform="translate(348,165)"/>
<path d="M0 0 C0.66 0.99 1.32 1.98 2 3 C0.71937515 4.7074998 -0.61767557 6.37373596 -2 8 C-2.66 8 -3.32 8 -4 8 C-2.87548273 5.0280615 -1.77706209 2.66559313 0 0 Z " fill="#321D01" transform="translate(238,208)"/>
<path d="M0 0 C1.32 0.66 2.64 1.32 4 2 C2.68 3.32 1.36 4.64 0 6 C0 5.01 0 4.02 0 3 C-0.99 2.67 -1.98 2.34 -3 2 C-2.01 1.34 -1.02 0.68 0 0 Z " fill="#D19F15" transform="translate(218,180)"/>
<path d="M0 0 C-2.64 1.65 -5.28 3.3 -8 5 C-7.67 3.35 -7.34 1.7 -7 0 C-3.98968256 -0.93423645 -3.13349732 -1.04449911 0 0 Z " fill="#2E1D01" transform="translate(259,178)"/>
<path d="M0 0 C0.66 0.33 1.32 0.66 2 1 C-2.296875 5.00390625 -2.296875 5.00390625 -4 6 C-6.203125 5.65234375 -6.203125 5.65234375 -8 5 C-6.71475739 4.13619741 -5.42157581 3.28419631 -4.125 2.4375 C-3.04605469 1.72400391 -3.04605469 1.72400391 -1.9453125 0.99609375 C-1.30335938 0.66738281 -0.66140625 0.33867187 0 0 Z " fill="#AF8F33" transform="translate(310,167)"/>
<path d="M0 0 C1.99097846 2.98646769 2.94124926 5.59687262 4 9 C2.68 8.34 1.36 7.68 0 7 C0 4.69 0 2.38 0 0 Z " fill="#D6A41A" transform="translate(313,321)"/>
<path d="M0 0 C0.66 0 1.32 0 2 0 C1.34 2.31 0.68 4.62 0 7 C-0.99 6.67 -1.98 6.34 -3 6 C-2.42655063 3.13275314 -2.1385485 2.1385485 0 0 Z " fill="#EDAF17" transform="translate(173,257)"/>
<path d="M0 0 C0.99 0 1.98 0 3 0 C1.8141763 3.37503669 0.72426311 5.64722731 -2 8 C-1.125 2.25 -1.125 2.25 0 0 Z " fill="#E4B01A" transform="translate(197,207)"/>
<path d="M0 0 C2.60334924 2.71182212 2.99456691 3.89133813 3.1875 7.75 C3.0946875 9.35875 3.0946875 9.35875 3 11 C0.43383368 7.15075052 0.44902324 4.5650696 0 0 Z " fill="#261600" transform="translate(306,299)"/>
<path d="M0 0 C0.33 0 0.66 0 1 0 C1.41176754 3.60296594 1.1535853 4.78402067 -1 7.8125 C-1.66 8.534375 -2.32 9.25625 -3 10 C-2.25 3.375 -2.25 3.375 0 0 Z " fill="#DCA91B" transform="translate(284,236)"/>
<path d="M0 0 C0.99 0 1.98 0 3 0 C2.40138258 2.35171131 1.73075648 4.6859378 1 7 C0.01 7.495 0.01 7.495 -1 8 C-1.08226668 4.95613276 -0.97608217 2.92824652 0 0 Z " fill="#E3AE16" transform="translate(184,228)"/>
<path d="M0 0 C1.32 0.33 2.64 0.66 4 1 C1.69 2.65 -0.62 4.3 -3 6 C-3 5.01 -3 4.02 -3 3 C-2.34 3 -1.68 3 -1 3 C-0.67 2.01 -0.34 1.02 0 0 Z " fill="#341E00" transform="translate(245,184)"/>
<path d="M0 0 C1.32 0.66 2.64 1.32 4 2 C2.68 2.99 1.36 3.98 0 5 C-0.66 4.67 -1.32 4.34 -2 4 C-1.34 2.68 -0.68 1.36 0 0 Z " fill="#2D240C" transform="translate(229,171)"/>
</svg>
